SplineFontDB: 1.0
FontName: THChakraPetch-Italic
FullName: THChakraPetch-Italic
FamilyName: TH Chakra Petch
Weight: Book
Copyright: Copyright (c) 2006 by Department of Intellectual Property (DIP), Ministry of Commerce and Software Industry Promotion Agency (Public Organization) (SIPA). All rights reserved.
Version: 1.1
ItalicAngle: -12
UnderlinePosition: -35
UnderlineWidth: 30
Ascent: 800
Descent: 200
Order2: 1
XUID: [1021 375 425136265 8187496]
FSType: 0
OS2Version: 3
OS2_WeightWidthSlopeOnly: 0
OS2_UseTypoMetrics: 1
CreationTime: 1158666480
ModificationTime: 1174462502
PfmFamily: 17
TTFWeight: 400
TTFWidth: 5
LineGap: 60
VLineGap: 0
Panose: 2 0 5 6 0 0 0 2 0 4
OS2TypoAscent: 0
OS2TypoAOffset: 1
OS2TypoDescent: 0
OS2TypoDOffset: 1
OS2TypoLinegap: 0
OS2WinAscent: 16
OS2WinAOffset: 1
OS2WinDescent: -207
OS2WinDOffset: 1
HheadAscent: 16
HheadAOffset: 1
HheadDescent: 207
HheadDOffset: 1
OS2SubXSize: 700
OS2SubYSize: 650
OS2SubXOff: 0
OS2SubYOff: 140
OS2SupXSize: 700
OS2SupYSize: 650
OS2SupXOff: 0
OS2SupYOff: 477
OS2StrikeYSize: 30
OS2StrikeYPos: 250
OS2FamilyClass: 773
OS2Vendor: 'ASSA'
ScriptLang: 2
 1 latn 1 dflt 
 0 
ChainSub: coverage 0 0 'liga' 0 0 0 1
 1 0 1
  Coverage: 64 uni0E48.alt2 uni0E49.alt2 uni0E4A.alt2 uni0E4B.alt2 uni0E4C.alt2
  FCoverage: 7 uni0E33
 1
  SeqLookup: 0 'L027'
EndFPST
ChainSub: coverage 0 0 'liga' 0 0 0 1
 1 1 0
  Coverage: 7 uni0E47
  BCoverage: 12 uni0E2C.alt1
 1
  SeqLookup: 0 'L026'
EndFPST
ChainSub: coverage 0 0 'liga' 0 0 0 1
 1 0 1
  Coverage: 7 uni0E2C
  FCoverage: 39 uni0E34 uni0E35 uni0E36 uni0E37 uni0E47
 1
  SeqLookup: 0 'L026'
EndFPST
ChainSub: coverage 0 0 'liga' 0 0 0 1
 1 0 1
  Coverage: 15 uni0E0E uni0E0F
  FCoverage: 38 uni0E38.alt1 uni0E39.alt1 uni0E3A.alt1
 1
  SeqLookup: 0 'L026'
EndFPST
ChainSub: coverage 0 0 'liga' 0 0 0 1
 1 1 0
  Coverage: 5 a b c
  BCoverage: 23 uni0E1B uni0E1D uni0E1F
 1
  SeqLookup: 0 'L026'
EndFPST
ChainSub: coverage 0 0 'liga' 0 0 0 1
 1 0 1
  Coverage: 5 a b c

StartChar: .notdef
Encoding: 65536 -1 0
Width: 390
Flags: W
Fore
154 576 m 1,0,-1
 460 576 l 1,1,-1
 337 0 l 1,2,-1
 32 0 l 1,3,-1
 154 576 l 1,0,-1
309 36 m 1,4,-1
 416 540 l 1,5,-1
 182 540 l 1,6,-1
 75 36 l 1,7,-1
 309 36 l 1,4,-1
EndSplineSet
EndChar
StartChar: numbersign
Encoding: 35 35 4
Width: 355
Flags: W
Fore
351 234 m 1,0,-1
 297 234 l 1,1,-1
 262 126 l 1,2,-1
 316 126 l 1,3,-1
 305 90 l 1,4,-1
 251 90 l 1,5,-1
 222 0 l 1,6,-1
 186 0 l 1,7,-1
 215 90 l 1,8,-1
 143 90 l 1,9,-1
 114 0 l 1,10,-1
 78 0 l 1,11,-1
 107 90 l 1,12,-1
 53 90 l 1,13,-1
 65 126 l 1,14,-1
 119 126 l 1,15,-1
 153 234 l 1,16,-1
 99 234 l 1,17,-1
 111 270 l 1,18,-1
 165 270 l 1,19,-1
 193 360 l 1,20,-1
 229 360 l 1,21,-1
 201 270 l 1,22,-1
 273 270 l 1,23,-1
 301 360 l 1,24,-1
 337 360 l 1,25,-1
 309 270 l 1,26,-1
 363 270 l 1,27,-1
 351 234 l 1,0,-1
226 126 m 1,28,-1
 261 234 l 1,29,-1
 189 234 l 1,30,-1
 155 126 l 1,31,-1
 226 126 l 1,28,-1
EndSplineSet
EndChar
StartChar: dollar
Encoding: 36 36 5
Width: 371
Flags: W
Fore
312 215 m 1,0,-1
 355 162 l 1,1,-1
 332 54 l 1,2,-1
 266 0 l 1,3,-1
 194 0 l 1,4,-1
 187 -36 l 1,5,-1
 151 -36 l 1,6,-1
 158 0 l 1,7,-1
 95 0 l 1,8,-1
 53 54 l 1,9,-1
 61 90 l 1,10,-1
 97 90 l 1,11,-1
 92 69 l 1,12,-1
 118 36 l 1,13,-1
 259 36 l 1,14,-1
 299 69 l 1,15,-1
 316 147 l 1,16,-1
 290 180 l 1,17,-1
 125 180 l 1,18,-1
 82 233 l 1,19,-1
 105 342 l 1,20,-1
 171 396 l 1,21,-1
 243 396 l 1,22,-1
 250 432 l 1,23,-1
 286 432 l 1,24,-1
 279 396 l 1,25,-1
 342 396 l 1,26,-1
 384 342 l 1,27,-1
 376 306 l 1,28,-1
 340 306 l 1,29,-1
 345 327 l 1,30,-1
 319 360 l 1,31,-1
 178 360 l 1,32,-1
 138 327 l 1,33,-1
 121 248 l 1,34,-1
 147 215 l 1,35,-1
 312 215 l 1,36,-1
 312 215 l 1,0,-1
EndSplineSet
EndChar
StartChar: percent
Encoding: 37 37 6
Width: 408
Flags: W
Fore
190 234 m 1,0,-1
 120 234 l 1,1,-1
 91 271 l 1,2,-1
 110 359 l 1,3,-1
 155 396 l 1,4,-1
 225 396 l 1,5,-1
 254 359 l 1,6,-1
 235 271 l 1,7,-1
 190 234 l 1,0,-1
139 346 m 1,8,-1
 126 284 l 1,9,-1
 140 265 l 1,10,-1
 184 265 l 1,11,-1
 207 284 l 1,12,-1
 220 346 l 1,13,-1
 205 364 l 1,14,-1
 161 364 l 1,15,-1
 139 346 l 1,8,-1
363 198 m 1,16,-1
 392 161 l 1,17,-1
 373 73 l 1,18,-1
 328 36 l 1,19,-1
 258 36 l 1,20,-1
 229 73 l 1,21,-1
 248 161 l 1,22,-1
 293 198 l 1,23,-1
 363 198 l 1,16,-1
344 86 m 1,24,-1
 357 148 l 1,25,-1
 343 166 l 1,26,-1
 299 166 l 1,27,-1
 277 148 l 1,28,-1
 264 86 l 1,29,-1
 278 67 l 1,30,-1
 322 67 l 1,31,-1
 344 86 l 1,24,-1
390 432 m 1,32,-1
 432 432 l 1,33,-1
 93 0 l 1,34,-1
 52 0 l 1,35,-1
 390 432 l 1,32,-1
EndSplineSet
EndChar
StartChar: ampersand
Encoding: 38 38 7
Width: 407
Flags: W
Fore
405 234 m 1,0,-1
 398 198 l 1,1,-1
 362 198 l 1,2,-1
 331 54 l 1,3,-1
 266 0 l 1,4,-1
 86 0 l 1,5,-1
 44 54 l 1,6,-1
 70 180 l 1,7,-1
 124 225 l 1,8,-1
 103 252 l 1,9,-1
 130 378 l 1,10,-1
 195 432 l 1,11,-1
 339 432 l 1,12,-1
 382 378 l 1,13,-1
 374 342 l 1,14,-1
 338 342 l 1,15,-1
 343 363 l 1,16,-1
 317 396 l 1,17,-1
 203 396 l 1,18,-1
 163 363 l 1,19,-1
 142 266 l 1,20,-1
 168 234 l 1,21,-1
 333 234 l 1,22,-1
 341 270 l 1,23,-1
 377 270 l 1,24,-1
 369 234 l 1,25,-1
 405 234 l 1,0,-1
298 69 m 1,26,-1
 326 198 l 1,27,-1
 143 198 l 1,28,-1
 103 165 l 1,29,-1
 82 69 l 1,30,-1
 108 36 l 1,31,-1
 258 36 l 1,32,-1
 298 69 l 1,26,-1
EndSplineSet
EndChar
StartChar: quotesingle
Encoding: 39 39 8
Width: 120
Flags: W
Fore
131 342 m 1,0,-1
 113 342 l 1,1,-1
 123 432 l 1,2,-1
 159 432 l 1,3,-1
 131 342 l 1,4,-1
 131 342 l 1,0,-1
EndSplineSet
EndChar
StartChar: parenleft
Encoding: 40 40 9
Width: 173
Flags: W
Fore
116 -36 m 1,0,-1
 108 -72 l 1,1,-1
 72 -72 l 1,2,-1
 31 -18 l 1,3,-1
 129 449 l 1,4,-1
 195 503 l 1,5,-1
 231 503 l 1,6,-1
 223 468 l 1,7,-1
 202 468 l 1,8,-1
 162 435 l 1,9,-1
 69 -3 l 1,10,-1
 95 -36 l 1,11,-1
 116 -36 l 1,12,-1
 116 -36 l 1,0,-1
EndSplineSet
EndChar
StartChar: parenright
Encoding: 41 41 10
Width: 140
Flags: W
Fore
-7 -36 m 1,0,-1
 14 -36 l 1,1,-1
 53 -3 l 1,2,-1
 146 435 l 1,3,-1
 120 468 l 1,4,-1
 99 468 l 1,5,-1
 107 503 l 1,6,-1
 143 503 l 1,7,-1
 185 449 l 1,8,-1
 86 -18 l 1,9,-1
 21 -72 l 1,10,-1
 -15 -72 l 1,11,-1
 -7 -36 l 1,12,-1
 -7 -36 l 1,0,-1
EndSplineSet
EndChar
StartChar: asterisk
Encoding: 42 42 11
Width: 226
Flags: W
Fore
195 380 m 1,0,-1
 143 360 l 1,1,-1
 186 339 l 1,2,-1
 161 308 l 1,3,-1
 126 340 l 1,4,-1
 122 288 l 1,5,-1
 86 288 l 1,6,-1
 103 340 l 1,7,-1
 55 308 l 1,8,-1
 44 339 l 1,9,-1
 97 360 l 1,10,-1
 53 380 l 1,11,-1
 77 411 l 1,12,-1
 112 379 l 1,13,-1
 117 432 l 1,14,-1
 153 432 l 1,15,-1
 135 379 l 1,16,-1
 183 411 l 1,17,-1
 195 380 l 1,18,-1
 195 380 l 1,0,-1
EndSplineSet
EndChar
StartChar: plus
Encoding: 43 43 12
Width: 405
Flags: W
Fore
385 196 m 1,0,-1
 241 196 l 1,1,-1
 210 52 l 1,2,-1
 174 52 l 1,3,-1
 205 196 l 1,4,-1
 61 196 l 1,5,-1
 68 232 l 1,6,-1
 212 232 l 1,7,-1
 243 376 l 1,8,-1
 279 376 l 1,9,-1
 248 232 l 1,10,-1
 392 232 l 1,11,-1
 385 196 l 1,0,-1
EndSplineSet
EndChar
StartChar: comma
Encoding: 44 44 13
Width: 151
Flags: W
Fore
123 50 m 1,0,-1
 116 17 l 1,1,-1
 47 -54 l 1,2,-1
 29 -54 l 1,3,-1
 68 0 l 1,4,-1
 62 0 l 1,5,-1
 45 21 l 1,6,-1
 51 50 l 1,7,-1
 77 72 l 1,8,-1
 107 72 l 1,9,-1
 123 50 l 1,10,-1
 123 50 l 1,0,-1
EndSplineSet
EndChar
StartChar: hyphen
Encoding: 45 45 14
Width: 264
Flags: W
Fore
214 144 m 1,0,-1
 34 144 l 1,1,-1
 41 180 l 1,2,-1
 221 180 l 1,3,-1
 214 144 l 1,4,-1
 214 144 l 1,0,-1
EndSplineSet
EndChar
StartChar: period
Encoding: 46 46 15
Width: 151
Flags: W
Fore
111 50 m 1,0,-1
 105 21 l 1,1,-1
 80 0 l 1,2,-1
 50 0 l 1,3,-1
 33 21 l 1,4,-1
 39 50 l 1,5,-1
 65 72 l 1,6,-1
 95 72 l 1,7,-1
 111 50 l 1,8,-1
 111 50 l 1,0,-1
EndSplineSet
EndChar
StartChar: slash
Encoding: 47 47 16
Width: 340
Flags: W
Fore
338 432 m 1,0,-1
 379 432 l 1,1,-1
 41 0 l 1,2,-1
 0 0 l 1,3,-1
 338 432 l 1,4,-1
 338 432 l 1,0,-1
EndSplineSet
EndChar
StartChar: zero
Encoding: 48 48 17
Width: 353
Flags: W
Fore
339 431 m 1,0,-1
 382 378 l 1,1,-1
 313 54 l 1,2,-1
 248 0 l 1,3,-1
 86 0 l 1,4,-1
 44 54 l 1,5,-1
 112 377 l 1,6,-1
 177 431 l 1,7,-1
 339 431 l 1,0,-1
280 69 m 1,8,-1
 343 363 l 1,9,-1
 318 395 l 1,10,-1
 185 395 l 1,11,-1
 145 363 l 1,12,-1
 82 69 l 1,13,-1
 108 36 l 1,14,-1
 240 36 l 1,15,-1
 280 69 l 1,8,-1
EndSplineSet
EndChar
StartChar: one
Encoding: 49 49 18
Width: 182
Flags: W
Fore
223 431 m 1,0,-1
 132 0 l 1,1,-1
 96 0 l 1,2,-1
 177 381 l 1,3,-1
 121 335 l 1,4,-1
 101 361 l 1,5,-1
 187 431 l 1,6,-1
 223 431 l 1,7,-1
 223 431 l 1,0,-1
EndSplineSet
EndChar
StartChar: two
Encoding: 50 50 19
Width: 353
Flags: W
Fore
339 431 m 1,0,-1
 382 378 l 1,1,-1
 363 288 l 1,2,-1
 83 74 l 1,3,-1
 75 36 l 1,4,-1
 309 36 l 1,5,-1
 302 0 l 1,6,-1
 33 0 l 1,7,-1
 51 90 l 1,8,-1
 330 304 l 1,9,-1
 343 363 l 1,10,-1
 317 395 l 1,11,-1
 194 395 l 1,12,-1
 154 363 l 1,13,-1
 149 340 l 1,14,-1
 113 340 l 1,15,-1
 121 377 l 1,16,-1
 186 431 l 1,17,-1
 339 431 l 1,18,-1
 339 431 l 1,0,-1
EndSplineSet
EndChar
StartChar: three
Encoding: 51 51 20
Width: 335
Flags: W
Fore
344 198 m 1,0,-1
 313 54 l 1,1,-1
 248 0 l 1,2,-1
 86 0 l 1,3,-1
 44 54 l 1,4,-1
 51 90 l 1,5,-1
 87 90 l 1,6,-1
 82 69 l 1,7,-1
 108 36 l 1,8,-1
 240 36 l 1,9,-1
 280 69 l 1,10,-1
 305 183 l 1,11,-1
 279 216 l 1,12,-1
 168 216 l 1,13,-1
 175 252 l 1,14,-1
 286 252 l 1,15,-1
 326 284 l 1,16,-1
 343 363 l 1,17,-1
 317 395 l 1,18,-1
 194 395 l 1,19,-1
 154 363 l 1,20,-1
 149 342 l 1,21,-1
 113 342 l 1,22,-1
 121 377 l 1,23,-1
 186 431 l 1,24,-1
 339 431 l 1,25,-1
 382 378 l 1,26,-1
 359 269 l 1,27,-1
 315 234 l 1,28,-1
 344 198 l 1,29,-1
 344 198 l 1,0,-1
EndSplineSet
EndChar
StartChar: four
Encoding: 52 52 21
Width: 353
Flags: W
Fore
289 108 m 1,0,-1
 325 108 l 1,1,-1
 317 72 l 1,2,-1
 281 72 l 1,3,-1
 266 0 l 1,4,-1
 230 0 l 1,5,-1
 245 72 l 1,6,-1
 48 72 l 1,7,-1
 47 72 l 1,8,-1
 62 144 l 1,9,-1
 285 431 l 1,10,-1
 357 431 l 1,11,-1
 289 108 l 1,0,-1
253 108 m 1,12,-1
 314 395 l 1,13,-1
 299 395 l 1,14,-1
 96 134 l 1,15,-1
 91 108 l 1,16,-1
 253 108 l 1,12,-1
EndSplineSet
EndChar
StartChar: five
Encoding: 53 53 22
Width: 353
Flags: W
Fore
348 216 m 1,0,-1
 313 54 l 1,1,-1
 248 0 l 1,2,-1
 86 0 l 1,3,-1
 44 54 l 1,4,-1
 51 90 l 1,5,-1
 87 90 l 1,6,-1
 82 69 l 1,7,-1
 108 36 l 1,8,-1
 240 36 l 1,9,-1
 280 69 l 1,10,-1
 308 201 l 1,11,-1
 282 234 l 1,12,-1
 81 234 l 1,13,-1
 123 431 l 1,14,-1
 375 431 l 1,15,-1
 368 395 l 1,16,-1
 152 395 l 1,17,-1
 125 270 l 1,18,-1
 305 270 l 1,19,-1
 348 216 l 1,0,-1
EndSplineSet
EndChar
StartChar: six
Encoding: 54 54 23
Width: 353
Flags: W
Fore
348 216 m 1,0,-1
 313 54 l 1,1,-1
 248 0 l 1,2,-1
 86 0 l 1,3,-1
 45 54 l 1,4,-1
 113 378 l 1,5,-1
 177 431 l 1,6,-1
 330 431 l 1,7,-1
 373 377 l 1,8,-1
 365 342 l 1,9,-1
 329 342 l 1,10,-1
 334 363 l 1,11,-1
 309 395 l 1,12,-1
 185 395 l 1,13,-1
 146 363 l 1,14,-1
 122 252 l 1,15,-1
 144 270 l 1,16,-1
 306 270 l 1,17,-1
 348 216 l 1,0,-1
241 36 m 1,18,-1
 280 69 l 1,19,-1
 308 201 l 1,20,-1
 283 234 l 1,21,-1
 151 234 l 1,22,-1
 111 201 l 1,23,-1
 83 69 l 1,24,-1
 108 36 l 1,25,-1
 241 36 l 1,18,-1
EndSplineSet
EndChar
StartChar: seven
Encoding: 55 55 24
Width: 353
Flags: W
Fore
393 431 m 1,0,-1
 367 306 l 1,1,-1
 227 200 l 1,2,-1
 185 0 l 1,3,-1
 149 0 l 1,4,-1
 195 216 l 1,5,-1
 334 322 l 1,6,-1
 350 395 l 1,7,-1
 152 395 l 1,8,-1
 140 342 l 1,9,-1
 104 342 l 1,10,-1
 123 431 l 1,11,-1
 393 431 l 1,0,-1
EndSplineSet
EndChar
StartChar: eight
Encoding: 56 56 25
Width: 353
Flags: W
Fore
308 243 m 1,0,-1
 344 198 l 1,1,-1
 313 54 l 1,2,-1
 248 0 l 1,3,-1
 86 0 l 1,4,-1
 44 54 l 1,5,-1
 74 198 l 1,6,-1
 128 243 l 1,7,-1
 107 270 l 1,8,-1
 130 378 l 1,9,-1
 195 431 l 1,10,-1
 321 431 l 1,11,-1
 364 377 l 1,12,-1
 341 269 l 1,13,-1
 308 243 l 1,0,-1
163 363 m 1,14,-1
 146 285 l 1,15,-1
 172 252 l 1,16,-1
 268 252 l 1,17,-1
 308 284 l 1,18,-1
 325 363 l 1,19,-1
 299 395 l 1,20,-1
 203 395 l 1,21,-1
 163 363 l 1,14,-1
280 69 m 1,22,-1
 305 183 l 1,23,-1
 279 216 l 1,24,-1
 147 216 l 1,25,-1
 107 183 l 1,26,-1
 82 69 l 1,27,-1
 108 36 l 1,28,-1
 240 36 l 1,29,-1
 280 69 l 1,22,-1
EndSplineSet
EndChar
StartChar: nine
Encoding: 57 57 26
Width: 353
Flags: W
Fore
382 378 m 1,0,-1
 313 54 l 1,1,-1
 248 0 l 1,2,-1
 95 0 l 1,3,-1
 52 54 l 1,4,-1
 60 90 l 1,5,-1
 96 90 l 1,6,-1
 91 69 l 1,7,-1
 117 36 l 1,8,-1
 241 36 l 1,9,-1
 280 69 l 1,10,-1
 304 180 l 1,11,-1
 282 162 l 1,12,-1
 120 162 l 1,13,-1
 79 216 l 1,14,-1
 112 377 l 1,15,-1
 177 431 l 1,16,-1
 339 431 l 1,17,-1
 382 378 l 1,0,-1
275 198 m 1,18,-1
 315 231 l 1,19,-1
 343 363 l 1,20,-1
 318 395 l 1,21,-1
 185 395 l 1,22,-1
 145 363 l 1,23,-1
 117 230 l 1,24,-1
 143 198 l 1,25,-1
 275 198 l 1,18,-1
EndSplineSet
EndChar
StartChar: colon
Encoding: 58 58 27
Width: 151
Flags: W
Fore
65 72 m 1,0,-1
 95 72 l 1,1,-1
 112 50 l 1,2,-1
 105 21 l 1,3,-1
 80 0 l 1,4,-1
 50 0 l 1,5,-1
 33 21 l 1,6,-1
 40 50 l 1,7,-1
 65 72 l 1,0,-1
137 269 m 1,8,-1
 154 248 l 1,9,-1
 147 219 l 1,10,-1
 122 197 l 1,11,-1
 92 197 l 1,12,-1
 75 219 l 1,13,-1
 82 248 l 1,14,-1
 107 269 l 1,15,-1
 137 269 l 1,8,-1
EndSplineSet
EndChar
StartChar: semicolon
Encoding: 59 59 28
Width: 151
Flags: W
Fore
148 269 m 1,0,-1
 164 248 l 1,1,-1
 158 219 l 1,2,-1
 133 197 l 1,3,-1
 103 197 l 1,4,-1
 86 219 l 1,5,-1
 92 248 l 1,6,-1
 118 269 l 1,7,-1
 148 269 l 1,0,-1
76 72 m 1,8,-1
 106 72 l 1,9,-1
 122 50 l 1,10,-1
 115 17 l 1,11,-1
 46 -54 l 1,12,-1
 29 -54 l 1,13,-1
 67 0 l 1,14,-1
 61 0 l 1,15,-1
 44 21 l 1,16,-1
 50 50 l 1,17,-1
 76 72 l 1,8,-1
EndSplineSet
EndChar
StartChar: less
Encoding: 60 60 29
Width: 405
Flags: W
Fore
105 182 m 1,0,-1
 104 174 l 1,1,-1
 363 39 l 1,2,-1
 354 -1 l 1,3,-1
 63 151 l 1,4,-1
 74 205 l 1,5,-1
 431 357 l 1,6,-1
 422 318 l 1,7,-1
 105 182 l 1,0,-1
EndSplineSet
EndChar
StartChar: equal
Encoding: 61 61 30
Width: 405
Flags: W
Fore
389 294 m 1,0,-1
 381 258 l 1,1,-1
 57 258 l 1,2,-1
 65 294 l 1,3,-1
 389 294 l 1,0,-1
38 169 m 1,4,-1
 362 169 l 1,5,-1
 354 133 l 1,6,-1
 30 133 l 1,7,-1
 38 169 l 1,4,-1
EndSplineSet
EndChar
StartChar: greater
Encoding: 62 62 31
Width: 405
Flags: W
Fore
396 205 m 1,0,-1
 385 151 l 1,1,-1
 30 -1 l 1,2,-1
 38 39 l 1,3,-1
 354 174 l 1,4,-1
 355 182 l 1,5,-1
 97 318 l 1,6,-1
 106 357 l 1,7,-1
 396 205 l 1,0,-1
EndSplineSet
EndChar
StartChar: question
Encoding: 63 63 32
Width: 354
Flags: W
Fore
167 45 m 1,0,-1
 186 45 l 1,1,-1
 196 32 l 1,2,-1
 192 13 l 1,3,-1
 177 0 l 1,4,-1
 158 0 l 1,5,-1
 147 13 l 1,6,-1
 151 32 l 1,7,-1
 167 45 l 1,0,-1
340 432 m 1,8,-1
 383 378 l 1,9,-1
 364 287 l 1,10,-1
 224 180 l 1,11,-1
 205 90 l 1,12,-1
 169 90 l 1,13,-1
 191 196 l 1,14,-1
 331 303 l 1,15,-1
 344 363 l 1,16,-1
 318 396 l 1,17,-1
 186 396 l 1,18,-1
 146 363 l 1,19,-1
 141 342 l 1,20,-1
 105 342 l 1,21,-1
 113 378 l 1,22,-1
 178 432 l 1,23,-1
 340 432 l 1,8,-1
EndSplineSet
EndChar
StartChar: at
Encoding: 64 64 33
Width: 461
Flags: W
Fore
383 342 m 1,0,-1
 468 234 l 1,1,-1
 441 108 l 1,2,-1
 374 54 l 1,3,-1
 303 54 l 1,4,-1
 311 90 l 1,5,-1
 267 54 l 1,6,-1
 195 54 l 1,7,-1
 153 108 l 1,8,-1
 172 198 l 1,9,-1
 238 252 l 1,10,-1
 328 252 l 1,11,-1
 370 198 l 1,12,-1
 347 90 l 1,13,-1
 367 90 l 1,14,-1
 408 123 l 1,15,-1
 429 219 l 1,16,-1
 360 306 l 1,17,-1
 228 306 l 1,18,-1
 123 219 l 1,19,-1
 94 86 l 1,20,-1
 162 0 l 1,21,-1
 382 0 l 1,22,-1
 374 -36 l 1,23,-1
 140 -36 l 1,24,-1
 55 71 l 1,25,-1
 90 234 l 1,26,-1
 221 342 l 1,27,-1
 383 342 l 1,0,-1
266 90 m 1,28,-1
 320 134 l 1,29,-1
 331 183 l 1,30,-1
 305 216 l 1,31,-1
 245 216 l 1,32,-1
 205 183 l 1,33,-1
 192 123 l 1,34,-1
 218 90 l 1,35,-1
 266 90 l 1,28,-1
EndSplineSet
EndChar
StartChar: A
Encoding: 65 65 34
Width: 371
Flags: W
Fore
293 431 m 1,0,-1
 368 233 l 1,1,-1
 319 0 l 1,2,-1
 283 0 l 1,3,-1
 309 126 l 1,4,-1
 93 126 l 1,5,-1
 67 0 l 1,6,-1
 32 0 l 1,7,-1
 80 233 l 1,8,-1
 239 431 l 1,9,-1
 293 431 l 1,0,-1
317 162 m 1,10,-1
 330 223 l 1,11,-1
 265 395 l 1,12,-1
 252 395 l 1,13,-1
 114 224 l 1,14,-1
 101 162 l 1,15,-1
 317 162 l 1,10,-1
EndSplineSet
EndChar
StartChar: B
Encoding: 66 66 35
Width: 353
Flags: W
Fore
304 225 m 1,0,-1
 339 180 l 1,1,-1
 312 54 l 1,2,-1
 247 0 l 1,3,-1
 32 0 l 1,4,-1
 122 431 l 1,5,-1
 320 431 l 1,6,-1
 363 377 l 1,7,-1
 336 252 l 1,8,-1
 304 225 l 1,0,-1
151 395 m 1,9,-1
 116 234 l 1,10,-1
 263 234 l 1,11,-1
 303 266 l 1,12,-1
 324 363 l 1,13,-1
 298 395 l 1,14,-1
 151 395 l 1,9,-1
279 69 m 1,15,-1
 300 165 l 1,16,-1
 274 197 l 1,17,-1
 109 197 l 1,18,-1
 74 36 l 1,19,-1
 239 36 l 1,20,-1
 279 69 l 1,15,-1
EndSplineSet
EndChar
StartChar: C
Encoding: 67 67 36
Width: 372
Flags: W
Fore
304 90 m 1,0,-1
 340 90 l 1,1,-1
 332 54 l 1,2,-1
 267 0 l 1,3,-1
 87 0 l 1,4,-1
 45 54 l 1,5,-1
 113 377 l 1,6,-1
 178 431 l 1,7,-1
 358 431 l 1,8,-1
 401 377 l 1,9,-1
 393 341 l 1,10,-1
 357 341 l 1,11,-1
 362 363 l 1,12,-1
 336 395 l 1,13,-1
 186 395 l 1,14,-1
 146 362 l 1,15,-1
 83 68 l 1,16,-1
 109 36 l 1,17,-1
 259 36 l 1,18,-1
 299 69 l 1,19,-1
 304 90 l 1,20,-1
 304 90 l 1,0,-1
EndSplineSet
EndChar
StartChar: D
Encoding: 68 68 37
Width: 371
Flags: W
Fore
357 431 m 1,0,-1
 400 377 l 1,1,-1
 331 54 l 1,2,-1
 266 0 l 1,3,-1
 33 0 l 1,4,-1
 123 431 l 1,5,-1
 357 431 l 1,0,-1
298 69 m 1,6,-1
 361 363 l 1,7,-1
 335 395 l 1,8,-1
 152 395 l 1,9,-1
 75 36 l 1,10,-1
 258 36 l 1,11,-1
 298 69 l 1,6,-1
EndSplineSet
EndChar
StartChar: E
Encoding: 69 69 38
Width: 353
Flags: W
Fore
186 395 m 1,0,-1
 146 362 l 1,1,-1
 118 234 l 1,2,-1
 333 234 l 1,3,-1
 326 198 l 1,4,-1
 111 198 l 1,5,-1
 83 68 l 1,6,-1
 108 36 l 1,7,-1
 309 36 l 1,8,-1
 302 0 l 1,9,-1
 87 0 l 1,10,-1
 45 54 l 1,11,-1
 113 377 l 1,12,-1
 178 431 l 1,13,-1
 393 431 l 1,14,-1
 386 395 l 1,15,-1
 186 395 l 1,0,-1
EndSplineSet
EndChar
StartChar: F
Encoding: 70 70 39
Width: 353
Flags: W
Fore
185 395 m 1,0,-1
 145 362 l 1,1,-1
 117 234 l 1,2,-1
 333 234 l 1,3,-1
 326 198 l 1,4,-1
 110 198 l 1,5,-1
 68 0 l 1,6,-1
 33 0 l 1,7,-1
 112 377 l 1,8,-1
 177 431 l 1,9,-1
 393 431 l 1,10,-1
 386 395 l 1,11,-1
 185 395 l 1,0,-1
EndSplineSet
EndChar
StartChar: G
Encoding: 71 71 40
Width: 371
Flags: W
Fore
392 341 m 1,0,-1
 356 341 l 1,1,-1
 361 363 l 1,2,-1
 336 395 l 1,3,-1
 185 395 l 1,4,-1
 146 362 l 1,5,-1
 83 68 l 1,6,-1
 108 36 l 1,7,-1
 258 36 l 1,8,-1
 298 69 l 1,9,-1
 326 198 l 1,10,-1
 218 198 l 1,11,-1
 225 234 l 1,12,-1
 369 234 l 1,13,-1
 331 54 l 1,14,-1
 266 0 l 1,15,-1
 86 0 l 1,16,-1
 45 54 l 1,17,-1
 113 377 l 1,18,-1
 178 431 l 1,19,-1
 357 431 l 1,20,-1
 400 378 l 1,21,-1
 392 341 l 1,0,-1
EndSplineSet
EndChar
StartChar: H
Encoding: 72 72 41
Width: 371
Flags: W
Fore
376 431 m 1,0,-1
 412 431 l 1,1,-1
 321 0 l 1,2,-1
 285 0 l 1,3,-1
 327 198 l 1,4,-1
 111 198 l 1,5,-1
 69 0 l 1,6,-1
 34 0 l 1,7,-1
 124 431 l 1,8,-1
 160 431 l 1,9,-1
 118 234 l 1,10,-1
 334 234 l 1,11,-1
 376 431 l 1,12,-1
 376 431 l 1,0,-1
EndSplineSet
EndChar
StartChar: I
Encoding: 73 73 42
Width: 119
Flags: W
Fore
67 0 m 1,0,-1
 32 0 l 1,1,-1
 122 431 l 1,2,-1
 158 431 l 1,3,-1
 67 0 l 1,4,-1
 67 0 l 1,0,-1
EndSplineSet
EndChar
StartChar: J
Encoding: 74 74 43
Width: 335
Flags: W
Fore
339 431 m 1,0,-1
 375 431 l 1,1,-1
 295 54 l 1,2,-1
 230 0 l 1,3,-1
 86 0 l 1,4,-1
 44 54 l 1,5,-1
 58 126 l 1,6,-1
 94 126 l 1,7,-1
 82 68 l 1,8,-1
 108 36 l 1,9,-1
 222 36 l 1,10,-1
 262 69 l 1,11,-1
 339 431 l 1,12,-1
 339 431 l 1,0,-1
EndSplineSet
EndChar
StartChar: K
Encoding: 75 75 44
Width: 371
Flags: W
Fore
375 431 m 1,0,-1
 411 431 l 1,1,-1
 386 310 l 1,2,-1
 272 216 l 1,3,-1
 345 121 l 1,4,-1
 320 0 l 1,5,-1
 284 0 l 1,6,-1
 308 113 l 1,7,-1
 241 198 l 1,8,-1
 110 198 l 1,9,-1
 68 0 l 1,10,-1
 33 0 l 1,11,-1
 123 431 l 1,12,-1
 159 431 l 1,13,-1
 117 234 l 1,14,-1
 248 234 l 1,15,-1
 351 318 l 1,16,-1
 375 431 l 1,17,-1
 375 431 l 1,0,-1
EndSplineSet
EndChar
StartChar: L
Encoding: 76 76 45
Width: 335
Flags: W
Fore
75 36 m 1,0,-1
 291 36 l 1,1,-1
 284 0 l 1,2,-1
 33 0 l 1,3,-1
 123 431 l 1,4,-1
 159 431 l 1,5,-1
 75 36 l 1,6,-1
 75 36 l 1,0,-1
EndSplineSet
EndChar
StartChar: M
Encoding: 77 77 46
Width: 479
Flags: W
Fore
483 431 m 1,0,-1
 519 431 l 1,1,-1
 428 0 l 1,2,-1
 392 0 l 1,3,-1
 464 340 l 1,4,-1
 248 0 l 1,5,-1
 212 0 l 1,6,-1
 140 339 l 1,7,-1
 68 0 l 1,8,-1
 33 0 l 1,9,-1
 123 431 l 1,10,-1
 159 431 l 1,11,-1
 240 50 l 1,12,-1
 483 431 l 1,13,-1
 483 431 l 1,0,-1
EndSplineSet
EndChar
StartChar: N
Encoding: 78 78 47
Width: 371
Flags: W
Fore
375 431 m 1,0,-1
 411 431 l 1,1,-1
 320 0 l 1,2,-1
 284 0 l 1,3,-1
 144 361 l 1,4,-1
 68 0 l 1,5,-1
 33 0 l 1,6,-1
 123 431 l 1,7,-1
 159 431 l 1,8,-1
 299 70 l 1,9,-1
 375 431 l 1,10,-1
 375 431 l 1,0,-1
EndSplineSet
EndChar
StartChar: O
Encoding: 79 79 48
Width: 388
Flags: W
Fore
374 431 m 1,0,-1
 417 377 l 1,1,-1
 348 54 l 1,2,-1
 283 0 l 1,3,-1
 85 0 l 1,4,-1
 43 54 l 1,5,-1
 111 377 l 1,6,-1
 176 431 l 1,7,-1
 374 431 l 1,0,-1
315 69 m 1,8,-1
 378 363 l 1,9,-1
 352 395 l 1,10,-1
 184 395 l 1,11,-1
 144 362 l 1,12,-1
 81 68 l 1,13,-1
 107 36 l 1,14,-1
 275 36 l 1,15,-1
 315 69 l 1,8,-1
EndSplineSet
EndChar
StartChar: P
Encoding: 80 80 49
Width: 353
Flags: W
Fore
338 431 m 1,0,-1
 381 377 l 1,1,-1
 354 251 l 1,2,-1
 289 197 l 1,3,-1
 109 197 l 1,4,-1
 67 0 l 1,5,-1
 33 0 l 1,6,-1
 123 431 l 1,7,-1
 338 431 l 1,0,-1
321 266 m 1,8,-1
 342 363 l 1,9,-1
 317 395 l 1,10,-1
 151 395 l 1,11,-1
 116 233 l 1,12,-1
 281 233 l 1,13,-1
 321 266 l 1,8,-1
EndSplineSet
EndChar
StartChar: Q
Encoding: 81 81 50
Width: 387
Flags: W
Fore
352 -33 m 1,0,-1
 325 -55 l 1,1,-1
 282 0 l 1,2,-1
 85 0 l 1,3,-1
 42 54 l 1,4,-1
 111 377 l 1,5,-1
 176 431 l 1,6,-1
 374 431 l 1,7,-1
 417 377 l 1,8,-1
 348 54 l 1,9,-1
 309 22 l 1,10,-1
 352 -33 l 1,0,-1
81 68 m 1,11,-1
 107 36 l 1,12,-1
 275 36 l 1,13,-1
 315 69 l 1,14,-1
 378 363 l 1,15,-1
 351 395 l 1,16,-1
 183 395 l 1,17,-1
 143 362 l 1,18,-1
 81 68 l 1,11,-1
EndSplineSet
EndChar
StartChar: R
Encoding: 82 82 51
Width: 351
Flags: W
Fore
381 377 m 1,0,-1
 354 252 l 1,1,-1
 311 216 l 1,2,-1
 339 180 l 1,3,-1
 301 0 l 1,4,-1
 265 0 l 1,5,-1
 300 165 l 1,6,-1
 275 197 l 1,7,-1
 110 197 l 1,8,-1
 68 0 l 1,9,-1
 33 0 l 1,10,-1
 123 431 l 1,11,-1
 339 431 l 1,12,-1
 381 377 l 1,0,-1
317 395 m 1,13,-1
 152 395 l 1,14,-1
 117 234 l 1,15,-1
 282 234 l 1,16,-1
 321 266 l 1,17,-1
 342 363 l 1,18,-1
 317 395 l 1,13,-1
EndSplineSet
EndChar
StartChar: S
Encoding: 83 83 52
Width: 372
Flags: W
Fore
320 251 m 1,0,-1
 363 198 l 1,1,-1
 332 54 l 1,2,-1
 267 0 l 1,3,-1
 96 0 l 1,4,-1
 53 54 l 1,5,-1
 61 90 l 1,6,-1
 97 90 l 1,7,-1
 92 68 l 1,8,-1
 118 36 l 1,9,-1
 259 36 l 1,10,-1
 299 69 l 1,11,-1
 324 183 l 1,12,-1
 298 216 l 1,13,-1
 133 216 l 1,14,-1
 90 269 l 1,15,-1
 113 377 l 1,16,-1
 178 431 l 1,17,-1
 349 431 l 1,18,-1
 392 377 l 1,19,-1
 384 341 l 1,20,-1
 348 341 l 1,21,-1
 353 363 l 1,22,-1
 327 395 l 1,23,-1
 186 395 l 1,24,-1
 146 362 l 1,25,-1
 129 284 l 1,26,-1
 155 251 l 1,27,-1
 320 251 l 1,0,-1
EndSplineSet
EndChar
StartChar: T
Encoding: 84 84 53
Width: 371
Flags: W
Fore
411 431 m 1,0,-1
 404 395 l 1,1,-1
 279 395 l 1,2,-1
 195 0 l 1,3,-1
 159 0 l 1,4,-1
 243 395 l 1,5,-1
 117 395 l 1,6,-1
 124 431 l 1,7,-1
 411 431 l 1,8,-1
 411 431 l 1,0,-1
EndSplineSet
EndChar
StartChar: U
Encoding: 85 85 54
Width: 371
Flags: W
Fore
375 431 m 1,0,-1
 411 431 l 1,1,-1
 331 54 l 1,2,-1
 266 0 l 1,3,-1
 86 0 l 1,4,-1
 44 54 l 1,5,-1
 123 431 l 1,6,-1
 159 431 l 1,7,-1
 82 68 l 1,8,-1
 108 36 l 1,9,-1
 258 36 l 1,10,-1
 298 69 l 1,11,-1
 375 431 l 1,12,-1
 375 431 l 1,0,-1
EndSplineSet
EndChar
StartChar: V
Encoding: 86 86 55
Width: 372
Flags: W
Fore
376 431 m 1,0,-1
 412 431 l 1,1,-1
 363 198 l 1,2,-1
 204 0 l 1,3,-1
 150 0 l 1,4,-1
 75 198 l 1,5,-1
 124 431 l 1,6,-1
 160 431 l 1,7,-1
 113 208 l 1,8,-1
 177 36 l 1,9,-1
 190 36 l 1,10,-1
 329 207 l 1,11,-1
 376 431 l 1,12,-1
 376 431 l 1,0,-1
EndSplineSet
EndChar
StartChar: W
Encoding: 87 87 56
Width: 513
Flags: W
Fore
518 431 m 1,0,-1
 554 431 l 1,1,-1
 505 197 l 1,2,-1
 372 0 l 1,3,-1
 320 0 l 1,4,-1
 280 158 l 1,5,-1
 174 0 l 1,6,-1
 122 0 l 1,7,-1
 73 197 l 1,8,-1
 122 431 l 1,9,-1
 158 431 l 1,10,-1
 110 203 l 1,11,-1
 151 36 l 1,12,-1
 159 36 l 1,13,-1
 272 203 l 1,14,-1
 320 431 l 1,15,-1
 356 431 l 1,16,-1
 308 203 l 1,17,-1
 349 36 l 1,18,-1
 357 36 l 1,19,-1
 470 203 l 1,20,-1
 518 431 l 1,21,-1
 518 431 l 1,0,-1
EndSplineSet
EndChar
StartChar: X
Encoding: 88 88 57
Width: 372
Flags: W
Fore
376 431 m 1,0,-1
 412 431 l 1,1,-1
 387 310 l 1,2,-1
 272 215 l 1,3,-1
 346 121 l 1,4,-1
 321 0 l 1,5,-1
 285 0 l 1,6,-1
 309 113 l 1,7,-1
 243 197 l 1,8,-1
 196 197 l 1,9,-1
 93 113 l 1,10,-1
 69 0 l 1,11,-1
 35 0 l 1,12,-1
 59 121 l 1,13,-1
 173 215 l 1,14,-1
 100 310 l 1,15,-1
 125 431 l 1,16,-1
 160 431 l 1,17,-1
 136 318 l 1,18,-1
 203 233 l 1,19,-1
 250 233 l 1,20,-1
 352 318 l 1,21,-1
 376 431 l 1,22,-1
 376 431 l 1,0,-1
EndSplineSet
EndChar
StartChar: Y
Encoding: 89 89 58
Width: 371
Flags: W
Fore
375 431 m 1,0,-1
 411 431 l 1,1,-1
 385 305 l 1,2,-1
 236 198 l 1,3,-1
 194 0 l 1,4,-1
 158 0 l 1,5,-1
 200 199 l 1,6,-1
 97 306 l 1,7,-1
 123 431 l 1,8,-1
 159 431 l 1,9,-1
 136 323 l 1,10,-1
 226 230 l 1,11,-1
 352 322 l 1,12,-1
 375 431 l 1,13,-1
 375 431 l 1,0,-1
EndSplineSet
EndChar
StartChar: Z
Encoding: 90 90 59
Width: 372
Flags: W
Fore
124 431 m 1,0,-1
 412 431 l 1,1,-1
 393 341 l 1,2,-1
 85 75 l 1,3,-1
 76 36 l 1,4,-1
 328 36 l 1,5,-1
 321 0 l 1,6,-1
 34 0 l 1,7,-1
 52 90 l 1,8,-1
 360 356 l 1,9,-1
 369 395 l 1,10,-1
 117 395 l 1,11,-1
 124 431 l 1,12,-1
 124 431 l 1,0,-1
EndSplineSet
EndChar
StartChar: bracketleft
Encoding: 91 91 60
Width: 174
Flags: W
Fore
223 467 m 1,0,-1
 169 467 l 1,1,-1
 62 -36 l 1,2,-1
 116 -36 l 1,3,-1
 108 -72 l 1,4,-1
 19 -72 l 1,5,-1
 141 503 l 1,6,-1
 231 503 l 1,7,-1
 223 467 l 1,0,-1
EndSplineSet
EndChar
StartChar: backslash
Encoding: 92 92 61
Width: 290
Flags: W
Fore
289 0 m 1,0,-1
 248 0 l 1,1,-1
 91 432 l 1,2,-1
 132 432 l 1,3,-1
 289 0 l 1,0,-1
EndSplineSet
EndChar
StartChar: bracketright
Encoding: 93 93 62
Width: 141
Flags: W
Fore
107 503 m 1,0,-1
 197 503 l 1,1,-1
 74 -72 l 1,2,-1
 -15 -72 l 1,3,-1
 -7 -36 l 1,4,-1
 46 -36 l 1,5,-1
 153 467 l 1,6,-1
 99 467 l 1,7,-1
 107 503 l 1,0,-1
EndSplineSet
EndChar
StartChar: asciicircum
Encoding: 94 94 63
Width: 422
Flags: W
Fore
288 432 m 1,0,-1
 371 144 l 1,1,-1
 331 144 l 1,2,-1
 258 396 l 1,3,-1
 248 396 l 1,4,-1
 69 144 l 1,5,-1
 30 144 l 1,6,-1
 234 432 l 1,7,-1
 288 432 l 1,0,-1
EndSplineSet
EndChar
StartChar: underscore
Encoding: 95 95 64
Width: 371
Flags: W
Fore
33 -65 m 1,0,-1
 40 -29 l 1,1,-1
 327 -29 l 1,2,-1
 320 -65 l 1,3,-1
 33 -65 l 1,0,-1
EndSplineSet
EndChar
StartChar: grave
Encoding: 96 96 65
Width: 148
Flags: W
Fore
152 342 m 1,0,-1
 117 432 l 1,1,-1
 162 432 l 1,2,-1
 170 342 l 1,3,-1
 152 342 l 1,0,-1
EndSplineSet
EndChar
StartChar: a
Encoding: 97 97 66
Width: 371
Flags: W
Fore
212 0 m 1,0,-1
 86 0 l 1,1,-1
 43 54 l 1,2,-1
 85 252 l 1,3,-1
 151 306 l 1,4,-1
 331 306 l 1,5,-1
 373 252 l 1,6,-1
 320 0 l 1,7,-1
 284 0 l 1,8,-1
 299 72 l 1,9,-1
 212 0 l 1,10,-1
 212 0 l 1,0,-1
108 36 m 1,11,-1
 211 36 l 1,12,-1
 308 116 l 1,13,-1
 334 237 l 1,14,-1
 308 270 l 1,15,-1
 158 270 l 1,16,-1
 118 237 l 1,17,-1
 82 68 l 1,18,-1
 108 36 l 1,11,-1
EndSplineSet
Substitution: 0 65534 'L026' uni0E38
Substitution: 0 65534 'L026' uni0E38
EndChar
StartChar: b
Encoding: 98 98 67
Width: 371
Flags: W
Fore
374 252 m 1,0,-1
 332 54 l 1,1,-1
 267 0 l 1,2,-1
 87 0 l 1,3,-1
 45 54 l 1,4,-1
 124 432 l 1,5,-1
 160 432 l 1,6,-1
 118 234 l 1,7,-1
 206 306 l 1,8,-1
 332 306 l 1,9,-1
 374 252 l 1,0,-1
259 36 m 1,10,-1
 299 69 l 1,11,-1
 335 237 l 1,12,-1
 309 270 l 1,13,-1
 207 270 l 1,14,-1
 109 189 l 1,15,-1
 83 69 l 1,16,-1
 109 36 l 1,17,-1
 259 36 l 1,10,-1
EndSplineSet
Substitution: 0 65534 'L026' uni0E39
Substitution: 0 65534 'L026' uni0E39
EndChar
StartChar: c
Encoding: 99 99 68
Width: 372
Flags: W
Fore
304 90 m 1,0,-1
 340 90 l 1,1,-1
 332 54 l 1,2,-1
 267 0 l 1,3,-1
 87 0 l 1,4,-1
 44 54 l 1,5,-1
 87 252 l 1,6,-1
 152 306 l 1,7,-1
 332 306 l 1,8,-1
 375 252 l 1,9,-1
 367 216 l 1,10,-1
 331 216 l 1,11,-1
 335 237 l 1,12,-1
 309 270 l 1,13,-1
 159 270 l 1,14,-1
 119 237 l 1,15,-1
 84 69 l 1,16,-1
 110 36 l 1,17,-1
 260 36 l 1,18,-1
 300 69 l 1,19,-1
 304 90 l 1,0,-1
EndSplineSet
Substitution: 0 65534 'L026' uni0E3A
Substitution: 0 65534 'L026' uni0E3A
EndChar
StartChar: d
Encoding: 100 100 69
Width: 372
Flags: W
Fore
376 432 m 1,0,-1
 412 432 l 1,1,-1
 332 54 l 1,2,-1
 267 0 l 1,3,-1
 87 0 l 1,4,-1
 45 54 l 1,5,-1
 86 252 l 1,6,-1
 152 306 l 1,7,-1
 278 306 l 1,8,-1
 334 234 l 1,9,-1
 376 432 l 1,0,-1
259 36 m 1,10,-1
 299 69 l 1,11,-1
 325 189 l 1,12,-1
 261 270 l 1,13,-1
 159 270 l 1,14,-1
 119 237 l 1,15,-1
 83 69 l 1,16,-1
 109 36 l 1,17,-1
 259 36 l 1,10,-1
EndSplineSet
EndChar
StartChar: e
Encoding: 101 101 70
Width: 372
Flags: W
Fore
352 144 m 1,0,-1
 100 144 l 1,1,-1
 84 69 l 1,2,-1
 110 36 l 1,3,-1
 260 36 l 1,4,-1
 300 69 l 1,5,-1
 304 90 l 1,6,-1
 340 90 l 1,7,-1
 332 54 l 1,8,-1
 267 0 l 1,9,-1
 87 0 l 1,10,-1
 44 54 l 1,11,-1
 87 252 l 1,12,-1
 152 306 l 1,13,-1
 332 306 l 1,14,-1
 375 252 l 1,15,-1
 352 144 l 1,0,-1
107 180 m 1,16,-1
 323 180 l 1,17,-1
 335 237 l 1,18,-1
 309 270 l 1,19,-1
 159 270 l 1,20,-1
 119 237 l 1,21,-1
 107 180 l 1,16,-1
EndSplineSet
EndChar
StartChar: f
Encoding: 102 102 71
Width: 209
Flags: W
Fore
184 395 m 1,0,-1
 144 362 l 1,1,-1
 124 270 l 1,2,-1
 214 270 l 1,3,-1
 206 234 l 1,4,-1
 116 234 l 1,5,-1
 39 -126 l 1,6,-1
 2 -126 l 1,7,-1
 111 377 l 1,8,-1
 176 431 l 1,9,-1
 248 431 l 1,10,-1
 241 395 l 1,11,-1
 184 395 l 1,12,-1
 184 395 l 1,0,-1
EndSplineSet
EndChar
StartChar: g
Encoding: 103 103 72
Width: 371
Flags: W
Fore
374 252 m 1,0,-1
 305 -72 l 1,1,-1
 240 -126 l 1,2,-1
 150 -126 l 1,3,-1
 157 -90 l 1,4,-1
 232 -90 l 1,5,-1
 272 -57 l 1,6,-1
 300 72 l 1,7,-1
 212 0 l 1,8,-1
 86 0 l 1,9,-1
 44 54 l 1,10,-1
 86 252 l 1,11,-1
 151 306 l 1,12,-1
 331 306 l 1,13,-1
 374 252 l 1,0,-1
211 36 m 1,14,-1
 309 117 l 1,15,-1
 335 237 l 1,16,-1
 309 270 l 1,17,-1
 159 270 l 1,18,-1
 119 237 l 1,19,-1
 83 69 l 1,20,-1
 109 36 l 1,21,-1
 211 36 l 1,14,-1
EndSplineSet
EndChar
StartChar: h
Encoding: 104 104 73
Width: 353
Flags: W
Fore
356 252 m 1,0,-1
 303 0 l 1,1,-1
 267 0 l 1,2,-1
 317 237 l 1,3,-1
 291 270 l 1,4,-1
 207 270 l 1,5,-1
 109 189 l 1,6,-1
 69 0 l 1,7,-1
 34 0 l 1,8,-1
 124 432 l 1,9,-1
 160 432 l 1,10,-1
 118 234 l 1,11,-1
 206 306 l 1,12,-1
 314 306 l 1,13,-1
 356 252 l 1,0,-1
EndSplineSet
EndChar
StartChar: i
Encoding: 105 105 74
Width: 120
Flags: W
Fore
33 0 m 1,0,-1
 97 306 l 1,1,-1
 133 306 l 1,2,-1
 68 0 l 1,3,-1
 33 0 l 1,0,-1
141 376 m 1,4,-1
 151 363 l 1,5,-1
 147 344 l 1,6,-1
 131 331 l 1,7,-1
 112 331 l 1,8,-1
 102 344 l 1,9,-1
 106 363 l 1,10,-1
 122 376 l 1,11,-1
 141 376 l 1,4,-1
EndSplineSet
EndChar
StartChar: j
Encoding: 106 106 75
Width: 129
Flags: W
Fore
31 -58 m 1,0,-1
 108 305 l 1,1,-1
 144 305 l 1,2,-1
 63 -73 l 1,3,-1
 -1 -127 l 1,4,-1
 -51 -127 l 1,5,-1
 -43 -91 l 1,6,-1
 -8 -91 l 1,7,-1
 31 -58 l 1,0,-1
152 376 m 1,8,-1
 162 363 l 1,9,-1
 158 344 l 1,10,-1
 142 331 l 1,11,-1
 123 331 l 1,12,-1
 113 344 l 1,13,-1
 117 363 l 1,14,-1
 133 376 l 1,15,-1
 152 376 l 1,8,-1
EndSplineSet
EndChar
StartChar: k
Encoding: 107 107 76
Width: 353
Flags: W
Fore
331 306 m 1,0,-1
 367 306 l 1,1,-1
 354 248 l 1,2,-1
 240 153 l 1,3,-1
 314 59 l 1,4,-1
 302 0 l 1,5,-1
 266 0 l 1,6,-1
 276 51 l 1,7,-1
 209 135 l 1,8,-1
 96 135 l 1,9,-1
 68 0 l 1,10,-1
 33 0 l 1,11,-1
 123 432 l 1,12,-1
 159 432 l 1,13,-1
 104 171 l 1,14,-1
 217 171 l 1,15,-1
 320 256 l 1,16,-1
 331 306 l 1,0,-1
EndSplineSet
EndChar
StartChar: l
Encoding: 108 108 77
Width: 119
Flags: W
Fore
34 0 m 1,0,-1
 124 432 l 1,1,-1
 160 432 l 1,2,-1
 69 0 l 1,3,-1
 34 0 l 1,0,-1
EndSplineSet
EndChar
StartChar: m
Encoding: 109 109 78
Width: 478
Flags: W
Fore
481 252 m 1,0,-1
 427 0 l 1,1,-1
 391 0 l 1,2,-1
 442 238 l 1,3,-1
 415 270 l 1,4,-1
 337 270 l 1,5,-1
 298 238 l 1,6,-1
 247 0 l 1,7,-1
 211 0 l 1,8,-1
 262 238 l 1,9,-1
 235 270 l 1,10,-1
 205 270 l 1,11,-1
 107 190 l 1,12,-1
 67 0 l 1,13,-1
 32 0 l 1,14,-1
 96 306 l 1,15,-1
 132 306 l 1,16,-1
 117 234 l 1,17,-1
 204 306 l 1,18,-1
 258 306 l 1,19,-1
 286 270 l 1,20,-1
 330 306 l 1,21,-1
 438 306 l 1,22,-1
 481 252 l 1,0,-1
EndSplineSet
EndChar
StartChar: n
Encoding: 110 110 79
Width: 353
Flags: W
Fore
355 252 m 1,0,-1
 301 0 l 1,1,-1
 265 0 l 1,2,-1
 316 238 l 1,3,-1
 290 270 l 1,4,-1
 205 270 l 1,5,-1
 108 190 l 1,6,-1
 68 0 l 1,7,-1
 33 0 l 1,8,-1
 97 306 l 1,9,-1
 133 306 l 1,10,-1
 118 234 l 1,11,-1
 205 306 l 1,12,-1
 313 306 l 1,13,-1
 355 252 l 1,0,-1
EndSplineSet
EndChar
StartChar: o
Encoding: 111 111 80
Width: 372
Flags: W
Fore
332 54 m 1,0,-1
 267 0 l 1,1,-1
 87 0 l 1,2,-1
 44 54 l 1,3,-1
 87 252 l 1,4,-1
 152 306 l 1,5,-1
 332 306 l 1,6,-1
 375 252 l 1,7,-1
 332 54 l 1,0,-1
110 36 m 1,8,-1
 260 36 l 1,9,-1
 300 69 l 1,10,-1
 335 237 l 1,11,-1
 309 270 l 1,12,-1
 159 270 l 1,13,-1
 119 237 l 1,14,-1
 84 69 l 1,15,-1
 110 36 l 1,8,-1
EndSplineSet
EndChar
StartChar: p
Encoding: 112 112 81
Width: 372
Flags: W
Fore
331 306 m 1,0,-1
 374 252 l 1,1,-1
 332 54 l 1,2,-1
 266 0 l 1,3,-1
 68 0 l 1,4,-1
 42 -125 l 1,5,-1
 7 -125 l 1,6,-1
 86 252 l 1,7,-1
 151 306 l 1,8,-1
 331 306 l 1,0,-1
299 69 m 1,9,-1
 335 237 l 1,10,-1
 309 270 l 1,11,-1
 159 270 l 1,12,-1
 119 237 l 1,13,-1
 76 36 l 1,14,-1
 259 36 l 1,15,-1
 299 69 l 1,9,-1
EndSplineSet
EndChar
StartChar: q
Encoding: 113 113 82
Width: 371
Flags: W
Fore
87 252 m 1,0,-1
 152 306 l 1,1,-1
 332 306 l 1,2,-1
 375 252 l 1,3,-1
 295 -125 l 1,4,-1
 259 -125 l 1,5,-1
 285 0 l 1,6,-1
 87 0 l 1,7,-1
 45 54 l 1,8,-1
 87 252 l 1,0,-1
120 237 m 1,9,-1
 84 69 l 1,10,-1
 110 36 l 1,11,-1
 293 36 l 1,12,-1
 336 237 l 1,13,-1
 310 270 l 1,14,-1
 160 270 l 1,15,-1
 120 237 l 1,9,-1
EndSplineSet
EndChar
StartChar: r
Encoding: 114 114 83
Width: 280
Flags: W
Fore
286 270 m 1,0,-1
 204 270 l 1,1,-1
 107 190 l 1,2,-1
 67 0 l 1,3,-1
 32 0 l 1,4,-1
 96 306 l 1,5,-1
 132 306 l 1,6,-1
 117 234 l 1,7,-1
 204 306 l 1,8,-1
 294 306 l 1,9,-1
 286 270 l 1,0,-1
EndSplineSet
EndChar
StartChar: s
Encoding: 115 115 84
Width: 372
Flags: W
Fore
346 118 m 1,0,-1
 332 54 l 1,1,-1
 267 0 l 1,2,-1
 96 0 l 1,3,-1
 53 54 l 1,4,-1
 61 90 l 1,5,-1
 97 90 l 1,6,-1
 93 69 l 1,7,-1
 119 36 l 1,8,-1
 260 36 l 1,9,-1
 300 69 l 1,10,-1
 307 103 l 1,11,-1
 281 135 l 1,12,-1
 116 135 l 1,13,-1
 73 189 l 1,14,-1
 87 252 l 1,15,-1
 152 306 l 1,16,-1
 323 306 l 1,17,-1
 366 252 l 1,18,-1
 358 216 l 1,19,-1
 322 216 l 1,20,-1
 326 237 l 1,21,-1
 300 270 l 1,22,-1
 159 270 l 1,23,-1
 119 237 l 1,24,-1
 112 204 l 1,25,-1
 138 171 l 1,26,-1
 303 171 l 1,27,-1
 346 118 l 1,0,-1
EndSplineSet
EndChar
StartChar: t
Encoding: 116 116 85
Width: 208
Flags: W
Fore
215 269 m 1,0,-1
 125 269 l 1,1,-1
 82 68 l 1,2,-1
 108 35 l 1,3,-1
 165 35 l 1,4,-1
 158 0 l 1,5,-1
 86 0 l 1,6,-1
 44 54 l 1,7,-1
 123 431 l 1,8,-1
 159 431 l 1,9,-1
 133 305 l 1,10,-1
 223 305 l 1,11,-1
 215 269 l 1,0,-1
EndSplineSet
EndChar
StartChar: u
Encoding: 117 117 86
Width: 354
Flags: W
Fore
332 305 m 1,0,-1
 368 305 l 1,1,-1
 303 0 l 1,2,-1
 267 0 l 1,3,-1
 282 72 l 1,4,-1
 195 0 l 1,5,-1
 87 0 l 1,6,-1
 44 53 l 1,7,-1
 98 305 l 1,8,-1
 134 305 l 1,9,-1
 84 68 l 1,10,-1
 110 35 l 1,11,-1
 194 35 l 1,12,-1
 292 116 l 1,13,-1
 332 305 l 1,0,-1
EndSplineSet
EndChar
StartChar: v
Encoding: 118 118 87
Width: 334
Flags: W
Fore
313 306 m 1,0,-1
 349 306 l 1,1,-1
 313 135 l 1,2,-1
 185 0 l 1,3,-1
 131 0 l 1,4,-1
 61 135 l 1,5,-1
 97 306 l 1,6,-1
 133 306 l 1,7,-1
 98 139 l 1,8,-1
 152 36 l 1,9,-1
 180 36 l 1,10,-1
 278 139 l 1,11,-1
 313 306 l 1,0,-1
EndSplineSet
EndChar
StartChar: w
Encoding: 119 119 88
Width: 479
Flags: W
Fore
457 306 m 1,0,-1
 493 306 l 1,1,-1
 457 135 l 1,2,-1
 347 0 l 1,3,-1
 294 0 l 1,4,-1
 253 105 l 1,5,-1
 167 0 l 1,6,-1
 114 0 l 1,7,-1
 62 135 l 1,8,-1
 98 306 l 1,9,-1
 134 306 l 1,10,-1
 98 137 l 1,11,-1
 137 36 l 1,12,-1
 160 36 l 1,13,-1
 242 137 l 1,14,-1
 278 306 l 1,15,-1
 314 306 l 1,16,-1
 278 137 l 1,17,-1
 317 36 l 1,18,-1
 340 36 l 1,19,-1
 421 137 l 1,20,-1
 457 306 l 1,0,-1
EndSplineSet
EndChar
StartChar: x
Encoding: 120 120 89
Width: 371
Flags: W
Fore
349 306 m 1,0,-1
 385 306 l 1,1,-1
 373 248 l 1,2,-1
 259 153 l 1,3,-1
 333 59 l 1,4,-1
 320 0 l 1,5,-1
 284 0 l 1,6,-1
 295 51 l 1,7,-1
 228 135 l 1,8,-1
 182 135 l 1,9,-1
 79 51 l 1,10,-1
 68 0 l 1,11,-1
 33 0 l 1,12,-1
 45 59 l 1,13,-1
 160 153 l 1,14,-1
 85 248 l 1,15,-1
 97 306 l 1,16,-1
 133 306 l 1,17,-1
 122 256 l 1,18,-1
 189 171 l 1,19,-1
 235 171 l 1,20,-1
 338 256 l 1,21,-1
 349 306 l 1,0,-1
EndSplineSet
EndChar
StartChar: y
Encoding: 121 121 90
Width: 372
Flags: W
Fore
387 306 m 1,0,-1
 307 -72 l 1,1,-1
 242 -126 l 1,2,-1
 152 -126 l 1,3,-1
 159 -90 l 1,4,-1
 234 -90 l 1,5,-1
 274 -57 l 1,6,-1
 302 72 l 1,7,-1
 214 0 l 1,8,-1
 88 0 l 1,9,-1
 46 54 l 1,10,-1
 99 306 l 1,11,-1
 135 306 l 1,12,-1
 85 69 l 1,13,-1
 111 36 l 1,14,-1
 213 36 l 1,15,-1
 311 117 l 1,16,-1
 351 306 l 1,17,-1
 387 306 l 1,0,-1
EndSplineSet
EndChar
StartChar: z
Encoding: 122 122 91
Width: 371
Flags: W
Fore
98 306 m 1,0,-1
 386 306 l 1,1,-1
 371 234 l 1,2,-1
 82 59 l 1,3,-1
 77 36 l 1,4,-1
 329 36 l 1,5,-1
 321 0 l 1,6,-1
 33 0 l 1,7,-1
 48 72 l 1,8,-1
 337 247 l 1,9,-1
 342 270 l 1,10,-1
 90 270 l 1,11,-1
 98 306 l 1,0,-1
EndSplineSet
EndChar
StartChar: braceleft
Encoding: 123 123 92
Width: 226
Flags: W
Fore
175 255 m 1,0,-1
 128 216 l 1,1,-1
 158 177 l 1,2,-1
 120 -4 l 1,3,-1
 146 -36 l 1,4,-1
 167 -36 l 1,5,-1
 159 -72 l 1,6,-1
 123 -72 l 1,7,-1
 81 -19 l 1,8,-1
 119 162 l 1,9,-1
 77 216 l 1,10,-1
 142 270 l 1,11,-1
 180 449 l 1,12,-1
 246 503 l 1,13,-1
 282 503 l 1,14,-1
 274 467 l 1,15,-1
 253 467 l 1,16,-1
 213 434 l 1,17,-1
 175 255 l 1,0,-1
EndSplineSet
EndChar
StartChar: bar
Encoding: 124 124 93
Width: 119
Flags: W
Fore
177 521 m 1,0,-1
 41 -126 l 1,1,-1
 5 -126 l 1,2,-1
 141 521 l 1,3,-1
 177 521 l 1,0,-1
EndSplineSet
EndChar
StartChar: braceright
Encoding: 125 125 94
Width: 194
Flags: W
Fore
148 269 m 1,0,-1
 190 215 l 1,1,-1
 125 161 l 1,2,-1
 87 -18 l 1,3,-1
 22 -72 l 1,4,-1
 -14 -72 l 1,5,-1
 -6 -36 l 1,6,-1
 15 -36 l 1,7,-1
 54 -3 l 1,8,-1
 92 176 l 1,9,-1
 139 215 l 1,10,-1
 109 254 l 1,11,-1
 147 434 l 1,12,-1
 121 467 l 1,13,-1
 100 467 l 1,14,-1
 108 503 l 1,15,-1
 144 503 l 1,16,-1
 186 449 l 1,17,-1
 148 269 l 1,0,-1
EndSplineSet
EndChar
StartChar: asciitilde
Encoding: 126 126 95
Width: 370
Flags: W
Fore
302 305 m 1,0,-1
 338 305 l 1,1,-1
 330 269 l 1,2,-1
 265 215 l 1,3,-1
 229 215 l 1,4,-1
 125 269 l 1,5,-1
 111 269 l 1,6,-1
 72 236 l 1,7,-1
 68 215 l 1,8,-1
 32 215 l 1,9,-1
 40 251 l 1,10,-1
 105 305 l 1,11,-1
 141 305 l 1,12,-1
 245 251 l 1,13,-1
 258 251 l 1,14,-1
 298 284 l 1,15,-1
 302 305 l 1,0,-1
EndSplineSet
EndChar
StartChar: uni0E33.alt1
Encoding: 65539 -1 96
Width: 353
Flags: W
Fore
332 396 m 1,0,-1
 373 342 l 1,1,-1
 301 0 l 1,2,-1
 265 0 l 1,3,-1
 334 327 l 1,4,-1
 309 360 l 1,5,-1
 176 360 l 1,6,-1
 137 327 l 1,7,-1
 133 306 l 1,8,-1
 97 306 l 1,9,-1
 104 342 l 1,10,-1
 170 396 l 1,11,-1
 332 396 l 1,0,-1
-103 580 m 1,12,-1
 -51 580 l 1,13,-1
 -22 543 l 1,14,-1
 -33 491 l 1,15,-1
 -78 454 l 1,16,-1
 -130 454 l 1,17,-1
 -159 491 l 1,18,-1
 -148 543 l 1,19,-1
 -103 580 l 1,12,-1
-62 504 m 1,20,-1
 -56 530 l 1,21,-1
 -71 549 l 1,22,-1
 -97 549 l 1,23,-1
 -119 530 l 1,24,-1
 -124 504 l 1,25,-1
 -110 486 l 1,26,-1
 -84 486 l 1,27,-1
 -62 504 l 1,20,-1
EndSplineSet
EndChar
StartChar: quotedbl
Encoding: 34 34 97
Width: 173
Flags: W
Fore
115 342 m 1,0,-1
 125 432 l 1,1,-1
 161 432 l 1,2,-1
 133 342 l 1,3,-1
 115 342 l 1,0,-1
179 432 m 1,4,-1
 215 432 l 1,5,-1
 187 342 l 1,6,-1
 169 342 l 1,7,-1
 179 432 l 1,4,-1
EndSplineSet
EndChar
StartChar: exclam
Encoding: 33 33 98
Width: 124
Flags: W
Fore
49 45 m 1,0,-1
 67 45 l 1,1,-1
 78 32 l 1,2,-1
 74 13 l 1,3,-1
 58 0 l 1,4,-1
 41 0 l 1,5,-1
 30 13 l 1,6,-1
 34 32 l 1,7,-1
 49 45 l 1,0,-1
82 90 m 1,8,-1
 55 90 l 1,9,-1
 118 432 l 1,10,-1
 163 432 l 1,11,-1
 82 90 l 1,8,-1
EndSplineSet
EndChar
StartChar: uni0E4E.alt1
Encoding: 65540 -1 99
Width: 0
Flags: W
Fore
73 617 m 1,0,-1
 65 581 l 1,1,-1
 8 581 l 1,2,-1
 1 574 l 1,3,-1
 -11 518 l 1,4,-1
 -67 518 l 1,5,-1
 -75 511 l 1,6,-1
 -87 455 l 1,7,-1
 -123 455 l 1,8,-1
 -108 526 l 1,9,-1
 -74 554 l 1,10,-1
 -39 554 l 1,11,-1
 -31 589 l 1,12,-1
 1 617 l 1,13,-1
 73 617 l 1,0,-1
EndSplineSet
EndChar
StartChar: exclamdown
Encoding: 161 161 100
Width: 124
Flags: W
Fore
123 305 m 1,0,-1
 134 292 l 1,1,-1
 130 274 l 1,2,-1
 114 260 l 1,3,-1
 95 260 l 1,4,-1
 85 274 l 1,5,-1
 89 292 l 1,6,-1
 104 305 l 1,7,-1
 123 305 l 1,0,-1
81 216 m 1,8,-1
 108 216 l 1,9,-1
 45 -126 l 1,10,-1
 1 -126 l 1,11,-1
 81 216 l 1,8,-1
EndSplineSet
EndChar
StartChar: cent
Encoding: 162 162 101
Width: 334
Flags: W
Fore
348 305 m 1,0,-1
 312 305 l 1,1,-1
 317 326 l 1,2,-1
 291 359 l 1,3,-1
 177 359 l 1,4,-1
 137 326 l 1,5,-1
 82 69 l 1,6,-1
 108 36 l 1,7,-1
 222 36 l 1,8,-1
 262 69 l 1,9,-1
 267 90 l 1,10,-1
 303 90 l 1,11,-1
 295 54 l 1,12,-1
 230 0 l 1,13,-1
 176 0 l 1,14,-1
 168 -36 l 1,15,-1
 132 -36 l 1,16,-1
 140 0 l 1,17,-1
 86 0 l 1,18,-1
 43 54 l 1,19,-1
 104 341 l 1,20,-1
 169 395 l 1,21,-1
 223 395 l 1,22,-1
 231 431 l 1,23,-1
 267 431 l 1,24,-1
 259 395 l 1,25,-1
 313 395 l 1,26,-1
 356 341 l 1,27,-1
 348 305 l 1,0,-1
EndSplineSet
EndChar
StartChar: sterling
Encoding: 163 163 102
Width: 386
Flags: W
Fore
88 36 m 1,0,-1
 342 36 l 1,1,-1
 335 0 l 1,2,-1
 31 0 l 1,3,-1
 38 36 l 1,4,-1
 125 108 l 1,5,-1
 144 198 l 1,6,-1
 72 198 l 1,7,-1
 79 234 l 1,8,-1
 151 234 l 1,9,-1
 182 378 l 1,10,-1
 247 432 l 1,11,-1
 355 432 l 1,12,-1
 397 378 l 1,13,-1
 389 342 l 1,14,-1
 354 342 l 1,15,-1
 359 363 l 1,16,-1
 333 396 l 1,17,-1
 255 396 l 1,18,-1
 215 363 l 1,19,-1
 187 234 l 1,20,-1
 259 234 l 1,21,-1
 252 198 l 1,22,-1
 180 198 l 1,23,-1
 157 93 l 1,24,-1
 88 36 l 1,0,-1
EndSplineSet
EndChar
StartChar: currency
Encoding: 164 164 103
Width: 399
Flags: W
Fore
342 126 m 1,0,-1
 325 111 l 1,1,-1
 350 79 l 1,2,-1
 319 54 l 1,3,-1
 294 86 l 1,4,-1
 277 72 l 1,5,-1
 97 72 l 1,6,-1
 86 86 l 1,7,-1
 47 54 l 1,8,-1
 27 79 l 1,9,-1
 65 111 l 1,10,-1
 54 126 l 1,11,-1
 93 306 l 1,12,-1
 110 320 l 1,13,-1
 84 352 l 1,14,-1
 116 378 l 1,15,-1
 141 345 l 1,16,-1
 158 360 l 1,17,-1
 338 360 l 1,18,-1
 349 345 l 1,19,-1
 388 378 l 1,20,-1
 408 352 l 1,21,-1
 370 320 l 1,22,-1
 381 306 l 1,23,-1
 342 126 l 1,0,-1
120 108 m 1,24,-1
 270 108 l 1,25,-1
 310 141 l 1,26,-1
 341 291 l 1,27,-1
 315 324 l 1,28,-1
 165 324 l 1,29,-1
 125 291 l 1,30,-1
 94 141 l 1,31,-1
 120 108 l 1,24,-1
EndSplineSet
EndChar
StartChar: yen
Encoding: 165 165 104
Width: 372
Flags: W
Fore
376 431 m 1,0,-1
 412 431 l 1,1,-1
 386 305 l 1,2,-1
 274 225 l 1,3,-1
 333 225 l 1,4,-1
 325 189 l 1,5,-1
 235 189 l 1,6,-1
 227 153 l 1,7,-1
 317 153 l 1,8,-1
 310 117 l 1,9,-1
 220 117 l 1,10,-1
 195 0 l 1,11,-1
 159 0 l 1,12,-1
 184 117 l 1,13,-1
 94 117 l 1,14,-1
 101 153 l 1,15,-1
 191 153 l 1,16,-1
 199 189 l 1,17,-1
 109 189 l 1,18,-1
 117 225 l 1,19,-1
 177 225 l 1,20,-1
 98 307 l 1,21,-1
 124 431 l 1,22,-1
 160 431 l 1,23,-1
 137 323 l 1,24,-1
 226 230 l 1,25,-1
 353 322 l 1,26,-1
 376 431 l 1,0,-1
EndSplineSet
EndChar
StartChar: brokenbar
Encoding: 166 166 105
Width: 120
Flags: W
Fore
140 503 m 1,0,-1
 175 503 l 1,1,-1
 114 216 l 1,2,-1
 79 216 l 1,3,-1
 140 503 l 1,0,-1
8 -126 m 1,4,-1
 72 180 l 1,5,-1
 107 180 l 1,6,-1
 42 -126 l 1,7,-1
 8 -126 l 1,4,-1
EndSplineSet
EndChar
StartChar: section
Encoding: 167 167 106
Width: 335
Flags: W
Fore
283 126 m 1,0,-1
 312 90 l 1,1,-1
 296 18 l 1,2,-1
 231 -36 l 1,3,-1
 105 -36 l 1,4,-1
 62 18 l 1,5,-1
 70 54 l 1,6,-1
 106 54 l 1,7,-1
 101 33 l 1,8,-1
 127 0 l 1,9,-1
 223 0 l 1,10,-1
 263 33 l 1,11,-1
 273 76 l 1,12,-1
 246 108 l 1,13,-1
 135 108 l 1,14,-1
 79 180 l 1,15,-1
 90 234 l 1,16,-1
 134 270 l 1,17,-1
 105 306 l 1,18,-1
 121 378 l 1,19,-1
 186 432 l 1,20,-1
 312 432 l 1,21,-1
 355 378 l 1,22,-1
 347 342 l 1,23,-1
 311 342 l 1,24,-1
 316 363 l 1,25,-1
 290 396 l 1,26,-1
 194 396 l 1,27,-1
 154 363 l 1,28,-1
 145 321 l 1,29,-1
 171 288 l 1,30,-1
 281 288 l 1,31,-1
 338 216 l 1,32,-1
 327 162 l 1,33,-1
 283 126 l 1,0,-1
158 144 m 1,34,-1
 254 144 l 1,35,-1
 294 177 l 1,36,-1
 299 201 l 1,37,-1
 259 252 l 1,38,-1
 163 252 l 1,39,-1
 123 219 l 1,40,-1
 118 195 l 1,41,-1
 158 144 l 1,34,-1
EndSplineSet
EndChar
StartChar: dieresis
Encoding: 168 168 107
Width: 246
Flags: W
Fore
89 533 m 1,0,-1
 104 514 l 1,1,-1
 99 487 l 1,2,-1
 76 468 l 1,3,-1
 49 468 l 1,4,-1
 34 487 l 1,5,-1
 39 514 l 1,6,-1
 62 533 l 1,7,-1
 89 533 l 1,0,-1
205 514 m 1,8,-1
 200 487 l 1,9,-1
 177 468 l 1,10,-1
 150 468 l 1,11,-1
 135 487 l 1,12,-1
 140 514 l 1,13,-1
 163 533 l 1,14,-1
 190 533 l 1,15,-1
 205 514 l 1,8,-1
EndSplineSet
EndChar
StartChar: copyright
Encoding: 169 169 108
Width: 442
Flags: W
Fore
379 395 m 1,0,-1
 450 306 l 1,1,-1
 411 126 l 1,2,-1
 302 36 l 1,3,-1
 122 36 l 1,4,-1
 51 126 l 1,5,-1
 90 305 l 1,6,-1
 199 395 l 1,7,-1
 379 395 l 1,0,-1
379 141 m 1,8,-1
 411 291 l 1,9,-1
 356 359 l 1,10,-1
 206 359 l 1,11,-1
 122 290 l 1,12,-1
 91 141 l 1,13,-1
 145 72 l 1,14,-1
 295 72 l 1,15,-1
 379 141 l 1,8,-1
326 323 m 1,16,-1
 370 269 l 1,17,-1
 362 234 l 1,18,-1
 326 234 l 1,19,-1
 331 254 l 1,20,-1
 304 288 l 1,21,-1
 227 288 l 1,22,-1
 187 254 l 1,23,-1
 170 177 l 1,24,-1
 196 144 l 1,25,-1
 274 144 l 1,26,-1
 314 177 l 1,27,-1
 319 198 l 1,28,-1
 355 198 l 1,29,-1
 347 162 l 1,30,-1
 282 108 l 1,31,-1
 174 108 l 1,32,-1
 131 162 l 1,33,-1
 154 269 l 1,34,-1
 219 323 l 1,35,-1
 326 323 l 1,16,-1
EndSplineSet
EndChar
StartChar: ordfeminine
Encoding: 170 170 109
Width: 304
Flags: W
Fore
260 400 m 1,0,-1
 293 358 l 1,1,-1
 253 166 l 1,2,-1
 220 166 l 1,3,4
 224 186 l 0,5,6
 226 194 226 194 227 202 c 128,-1,7
 228 210 228 210 230 215 c 1,8,9
 226 212 226 212 216.5 204 c 128,-1,10
 207 196 207 196 197 187.5 c 128,-1,11
 187 179 187 179 179 172.5 c 128,-1,12
 172 167 172 167 171 166 c 1,13,-1
 75 166 l 1,14,-1
 42 208 l 1,15,-1
 55 271 l 1,16,-1
 106 313 l 1,17,-1
 251 313 l 1,18,19
 252 317 252 317 254.5 329.5 c 128,-1,20
 257 342 257 342 257 344 c 1,21,22
 256 346 256 346 248.5 355 c 128,-1,23
 241 364 241 364 240 366 c 1,24,-1
 131 366 l 1,25,26
 130 365 130 365 126 362 c 128,-1,27
 122 359 122 359 117.5 355 c 128,-1,28
 113 351 113 351 108.5 348 c 128,-1,29
 104 345 104 345 103 344 c 1,30,31
 103 342 103 342 101 334 c 0,32,33
 100 330 100 330 100 326 c 1,34,-1
 67 326 l 1,35,-1
 73 358 l 1,36,-1
 124 400 l 1,37,-1
 260 400 l 1,0,-1
113 279 m 2,38,39
 112 279 112 279 107.5 275.5 c 128,-1,40
 98.5 268.5 l 128,-1,41
 94 265 94 265 90 261.5 c 128,-1,42
 86 258 86 258 85 257 c 1,43,44
 85 256 85 256 83.5 250.5 c 128,-1,45
 82 245 82 245 81 239 c 128,-1,46
 80 233 80 233 79 228 c 128,-1,47
 78 223 78 223 78 222 c 1,48,49
 79 220 79 220 86.5 210.5 c 128,-1,50
 94 201 94 201 96 199 c 1,51,-1
 169 199 l 1,52,53
 170 200 170 200 180.5 209 c 128,-1,54
 191 218 191 218 204 228.5 c 128,-1,55
 217 239 217 239 227.5 248 c 128,-1,56
 238 257 238 257 239 258 c 1,57,58
 240 260 240 260 241.5 268 c 128,-1,59
 243 276 243 276 244 279 c 1,60,-1
 113 279 l 2,38,39
EndSplineSet
EndChar
StartChar: guillemotleft
Encoding: 171 171 110
Width: 302
Flags: W
Fore
96 168 m 1,0,-1
 95 164 l 1,1,-1
 153 98 l 1,2,-1
 143 49 l 1,3,-1
 56 148 l 1,4,-1
 63 184 l 1,5,-1
 192 283 l 1,6,-1
 182 234 l 1,7,-1
 96 168 l 1,0,-1
290 234 m 1,8,-1
 204 168 l 1,9,-1
 203 164 l 1,10,-1
 261 98 l 1,11,-1
 251 49 l 1,12,-1
 164 148 l 1,13,-1
 171 184 l 1,14,-1
 300 283 l 1,15,-1
 290 234 l 1,8,-1
EndSplineSet
EndChar
StartChar: logicalnot
Encoding: 172 172 111
Width: 391
Flags: W
Fore
65 234 m 1,0,-1
 371 234 l 1,1,-1
 340 90 l 1,2,-1
 304 90 l 1,3,-1
 327 198 l 1,4,-1
 57 198 l 1,5,-1
 65 234 l 1,0,-1
EndSplineSet
EndChar
StartChar: registered
Encoding: 174 174 112
Width: 331
Flags: W
Fore
259 432 m 1,0,1
 259 431 259 431 268.5 419.5 c 128,-1,2
 278 408 278 408 288.5 394 c 128,-1,3
 299 380 299 380 308.5 368.5 c 128,-1,4
 317 358 317 358 318 357 c 1,5,-1
 297 259 l 2,6,7
 297 258 297 258 283 246.5 c 128,-1,8
 269 235 269 235 252 221 c 128,-1,9
 235 207 235 207 221 195.5 c 128,-1,10
 207 184 207 184 206 184 c 2,11,-1
 107 184 l 1,12,13
 98 195.5 l 130,-1,14
 89 207 89 207 78.5 221 c 128,-1,15
 68 235 68 235 59 246.5 c 128,-1,16
 50 258 50 258 49 258 c 1,17,-1
 70 357 l 1,18,19
 71 358 71 358 85 369.5 c 128,-1,20
 99 381 99 381 115.5 394.5 c 128,-1,21
 132 408 132 408 146 419.5 c 128,-1,22
 160 431 160 431 161 432 c 1,23,-1
 259 432 l 1,0,1
274 269 m 1,24,-1
 291 346 l 1,25,-1
 244 407 l 1,26,-1
 166 407 l 1,27,-1
 93 347 l 1,28,-1
 76 268 l 1,29,-1
 122 209 l 1,30,-1
 201 209 l 1,31,-1
 274 269 l 1,24,-1
151 368 m 1,32,-1
 220 368 l 1,33,-1
 244 338 l 1,34,-1
 239 317 l 1,35,-1
 229 309 l 2,36,37
 225 306 225 306 222 303 c 128,-1,38
 219 300 219 300 218 299 c 1,39,40
 218 297 218 297 220.5 294 c 128,-1,41
 223 291 223 291 225 288 c 0,42,43
 228 284 228 284 232 280 c 1,44,-1
 225 248 l 1,45,-1
 201 248 l 1,46,47
 202 254 202 254 203 259 c 0,48,49
 204 263 204 263 204.5 266.5 c 128,-1,50
 205 270 205 270 206 271 c 1,51,-1
 193 287 l 1,52,-1
 158 287 l 1,53,54
 157 285 157 285 156.5 279 c 128,-1,55
 156 273 156 273 154 266 c 0,56,57
 152 258 152 258 150 249 c 1,58,-1
 126 249 l 1,59,-1
 151 368 l 1,32,-1
218 327 m 1,60,-1
 218 328 l 1,61,62
 217 329 217 329 211.5 336 c 128,-1,63
 206 343 206 343 205 344 c 1,64,-1
 170 344 l 1,65,-1
 163 310 l 1,66,-1
 198 310 l 1,67,-1
 218 327 l 1,60,-1
EndSplineSet
EndChar
StartChar: macron
Encoding: 175 175 113
Width: 211
Flags: W
Fore
34 483 m 1,0,-1
 41 519 l 1,1,-1
 167 519 l 1,2,-1
 160 483 l 1,3,-1
 34 483 l 1,0,-1
EndSplineSet
EndChar
StartChar: degree
Encoding: 176 176 114
Width: 177
Flags: W
Fore
181 431 m 1,0,-1
 210 394 l 1,1,-1
 199 342 l 1,2,-1
 154 305 l 1,3,-1
 102 305 l 1,4,-1
 73 342 l 1,5,-1
 84 394 l 1,6,-1
 129 431 l 1,7,-1
 181 431 l 1,0,-1
170 355 m 1,8,-1
 175 381 l 1,9,-1
 161 400 l 1,10,-1
 135 400 l 1,11,-1
 112 381 l 1,12,-1
 107 355 l 1,13,-1
 122 337 l 1,14,-1
 148 337 l 1,15,-1
 170 355 l 1,8,-1
EndSplineSet
EndChar
StartChar: plusminus
Encoding: 177 177 115
Width: 405
Flags: W
Fore
248 180 m 1,0,-1
 217 36 l 1,1,-1
 361 36 l 1,2,-1
 353 0 l 1,3,-1
 31 0 l 1,4,-1
 38 36 l 1,5,-1
 181 36 l 1,6,-1
 212 180 l 1,7,-1
 69 180 l 1,8,-1
 76 216 l 1,9,-1
 219 216 l 1,10,-1
 250 360 l 1,11,-1
 286 360 l 1,12,-1
 255 216 l 1,13,-1
 399 216 l 1,14,-1
 392 180 l 1,15,-1
 248 180 l 1,0,-1
EndSplineSet
EndChar
StartChar: twosuperior
Encoding: 178 178 116
Width: 248
Flags: W
Fore
126 430 m 1,0,-1
 216 430 l 1,1,-1
 243 397 l 1,2,-1
 231 341 l 1,3,-1
 155 283 l 2,4,5
 141 272 141 272 127 261.5 c 128,-1,6
 113 251 113 251 101.5 242.5 c 128,-1,7
 90 234 90 234 83 228.5 c 128,-1,8
 77 224 77 224 76 223 c 1,9,10
 76 219 76 219 74 211 c 1,11,-1
 204 211 l 1,12,-1
 197 178 l 1,13,-1
 34 178 l 1,14,-1
 46 237 l 1,15,16
 89 270 89 270 122 296 c 0,17,18
 151 318 151 318 175 336.5 c 128,-1,19
 199 355 199 355 201 356 c 1,20,21
 201 357 201 357 202 361 c 128,-1,22
 203 365 203 365 203.5 369.5 c 128,-1,23
 204 374 204 374 205 378 c 128,-1,24
 206 382 206 382 206 383 c 256,25,26
 206 384 206 384 201.5 389.5 c 128,-1,27
 197 395 197 395 195 397 c 1,28,-1
 132 397 l 1,29,30
 131 396 131 396 124 390 c 128,-1,31
 117 384 117 384 115 383 c 1,32,33
 115 382 115 382 113 374 c 0,34,35
 112 370 112 370 112 367 c 1,36,-1
 79 367 l 1,37,-1
 85 396 l 1,38,-1
 126 430 l 1,0,-1
EndSplineSet
EndChar
StartChar: threesuperior
Encoding: 179 179 117
Width: 248
Flags: W
Fore
126 430 m 1,0,-1
 216 430 l 1,1,-1
 243 397 l 1,2,-1
 229 331 l 1,3,4
 224 328 224 328 220 324 c 2,5,6
 216 321 216 321 213 318.5 c 128,-1,7
 210 316 210 316 209 314 c 1,8,9
 210 312 210 312 216 304 c 0,10,11
 219 300 219 300 222 297 c 1,12,-1
 204 212 l 1,13,-1
 163 178 l 1,14,-1
 68 178 l 1,15,-1
 41 212 l 1,16,-1
 47 241 l 1,17,-1
 80 241 l 1,18,19
 79 238 79 238 78 234 c 0,20,21
 77 231 77 231 77 228.5 c 128,-1,22
 77 226 77 226 77 225 c 1,23,24
 78 224 78 224 82.5 218.5 c 128,-1,25
 87 213 87 213 89 211 c 1,26,-1
 156 211 l 2,27,28
 157 211 157 211 164.5 217.5 c 128,-1,29
 172 224 172 224 174 225 c 1,30,31
 174 226 174 226 176 235 c 128,-1,32
 178 244 178 244 180 254.5 c 128,-1,33
 182 265 182 265 184 273.5 c 128,-1,34
 186 282 186 282 186 283 c 1,35,36
 184 285 184 285 180 290.5 c 128,-1,37
 176 296 176 296 174 297 c 1,38,-1
 109 297 l 1,39,-1
 116 331 l 1,40,-1
 181 331 l 1,41,42
 183 332 183 332 190 337.5 c 128,-1,43
 197 343 197 343 199 345 c 1,44,45
 199 346 199 346 200.5 351.5 c 128,-1,46
 202 357 202 357 203.5 363.5 c 128,-1,47
 205 370 205 370 206 376 c 128,-1,48
 207 382 207 382 207 383 c 1,49,50
 206 384 206 384 201.5 389.5 c 128,-1,51
 197 395 197 395 195 397 c 1,52,-1
 133 397 l 1,53,54
 131 395 131 395 124 389.5 c 128,-1,55
 117 384 117 384 115 383 c 1,56,57
 115 382 115 382 113 374 c 0,58,59
 112 370 112 370 112 367 c 1,60,-1
 79 367 l 1,61,-1
 85 396 l 1,62,-1
 126 430 l 1,0,-1
EndSplineSet
EndChar
StartChar: acute
Encoding: 180 180 118
Width: 156
Flags: W
Fore
130 455 m 1,0,-1
 172 527 l 1,1,-1
 217 527 l 1,2,-1
 148 455 l 1,3,-1
 130 455 l 1,0,-1
EndSplineSet
EndChar
StartChar: mu
Encoding: 181 181 119
Width: 353
Flags: W
Fore
332 305 m 1,0,-1
 368 305 l 1,1,-1
 303 0 l 1,2,-1
 267 0 l 1,3,-1
 283 72 l 1,4,-1
 195 0 l 1,5,-1
 87 0 l 1,6,-1
 73 18 l 1,7,-1
 43 -126 l 1,8,-1
 8 -126 l 1,9,-1
 98 305 l 1,10,-1
 134 305 l 1,11,-1
 84 68 l 1,12,-1
 110 36 l 1,13,-1
 194 36 l 1,14,-1
 292 116 l 1,15,-1
 332 305 l 1,0,-1
EndSplineSet
EndChar
StartChar: paragraph
Encoding: 182 182 120
Width: 279
Flags: W
Fore
285 432 m 1,0,-1
 321 432 l 1,1,-1
 202 -126 l 1,2,-1
 166 -126 l 1,3,-1
 285 432 l 1,0,-1
181 432 m 1,4,-1
 249 432 l 1,5,-1
 130 -126 l 1,6,-1
 94 -126 l 1,7,-1
 171 234 l 1,8,-1
 139 234 l 1,9,-1
 93 292 l 1,10,-1
 110 374 l 1,11,-1
 181 432 l 1,4,-1
EndSplineSet
EndChar
StartChar: periodcentered
Encoding: 183 183 121
Width: 159
Flags: W
Fore
119 230 m 1,0,-1
 112 201 l 1,1,-1
 87 180 l 1,2,-1
 57 180 l 1,3,-1
 40 201 l 1,4,-1
 47 230 l 1,5,-1
 72 251 l 1,6,-1
 102 251 l 1,7,-1
 119 230 l 1,0,-1
EndSplineSet
EndChar
StartChar: cedilla
Encoding: 184 184 122
Width: 172
Flags: W
Fore
140 -66 m 1,0,-1
 130 -114 l 1,1,-1
 85 -151 l 1,2,-1
 31 -151 l 1,3,-1
 38 -120 l 1,4,-1
 79 -120 l 1,5,-1
 101 -101 l 1,6,-1
 105 -80 l 1,7,-1
 91 -61 l 1,8,-1
 50 -61 l 1,9,-1
 54 -43 l 1,10,-1
 119 20 l 1,11,-1
 133 9 l 1,12,-1
 103 -30 l 1,13,-1
 111 -30 l 1,14,-1
 140 -66 l 1,0,-1
EndSplineSet
EndChar
StartChar: onesuperior
Encoding: 185 185 123
Width: 155
Flags: W
Fore
157 431 m 1,0,-1
 104 178 l 1,1,-1
 71 178 l 1,2,3
 82 230 82 230 91 273 c 0,4,5
 99 310 99 310 105.5 342 c 128,-1,6
 112 374 112 374 114 380 c 1,7,8
 110 378 110 378 106.5 374.5 c 128,-1,9
 103 371 103 371 99 368 c 2,10,11
 95 364 95 364 91 361 c 1,12,-1
 72 385 l 1,13,-1
 127 431 l 1,14,-1
 157 431 l 1,0,-1
EndSplineSet
EndChar
StartChar: ordmasculine
Encoding: 186 186 124
Width: 248
Flags: W
Fore
195 395 m 1,0,-1
 224 359 l 1,1,-1
 205 270 l 1,2,-1
 160 234 l 1,3,-1
 72 234 l 1,4,-1
 43 270 l 1,5,-1
 62 359 l 1,6,-1
 107 395 l 1,7,-1
 195 395 l 1,0,-1
176 283 m 1,8,-1
 189 345 l 1,9,-1
 175 364 l 1,10,-1
 113 364 l 1,11,-1
 90 345 l 1,12,-1
 77 283 l 1,13,-1
 92 265 l 1,14,-1
 154 265 l 1,15,-1
 176 283 l 1,8,-1
EndSplineSet
EndChar
StartChar: guillemotright
Encoding: 187 187 125
Width: 302
Flags: W
Fore
193 283 m 1,0,-1
 280 184 l 1,1,-1
 273 148 l 1,2,-1
 144 49 l 1,3,-1
 154 97 l 1,4,-1
 240 163 l 1,5,-1
 241 168 l 1,6,-1
 183 234 l 1,7,-1
 193 283 l 1,0,-1
172 184 m 1,8,-1
 165 148 l 1,9,-1
 36 49 l 1,10,-1
 46 97 l 1,11,-1
 132 163 l 1,12,-1
 133 168 l 1,13,-1
 75 234 l 1,14,-1
 85 283 l 1,15,-1
 172 184 l 1,8,-1
EndSplineSet
EndChar
StartChar: onequarter
Encoding: 188 188 126
Width: 460
Flags: W
Fore
424 73 m 1,0,-1
 417 40 l 1,1,-1
 397 40 l 1,2,3
 396 38 396 38 395.5 31.5 c 128,-1,4
 395 25 395 25 393 18 c 2,5,-1
 389 0 l 1,6,-1
 356 0 l 1,7,-1
 360 18 l 2,8,9
 362 25 362 25 362.5 31.5 c 128,-1,10
 363 38 363 38 364 40 c 1,11,-1
 255 40 l 1,12,-1
 265 87 l 1,13,-1
 265 88 l 1,14,-1
 390 249 l 1,15,-1
 392 252 l 1,16,-1
 442 252 l 1,17,18
 432 204 432 204 424 165 c 0,19,20
 421 148 421 148 417.5 132 c 128,-1,21
 414 116 414 116 411 103.5 c 128,-1,22
 408 91 408 91 406 82.5 c 128,-1,23
 404 74 404 74 404 73 c 1,24,-1
 424 73 l 1,0,-1
402 216 m 1,25,26
 399 212 399 212 382.5 190.5 c 128,-1,27
 366 169 366 169 347 144.5 c 128,-1,28
 328 120 328 120 312.5 100 c 128,-1,29
 297 80 297 80 296 79 c 1,30,-1
 295 73 l 1,31,-1
 371 73 l 1,32,-1
 402 216 l 1,25,26
447 432 m 1,33,-1
 108 0 l 1,34,-1
 67 0 l 1,35,-1
 405 432 l 1,36,-1
 447 432 l 1,33,-1
111 179 m 1,37,38
 122 231 122 231 131 274 c 0,39,40
 139 311 139 311 145.5 343 c 128,-1,41
 152 375 152 375 154 381 c 1,42,43
 151 379 151 379 147 375.5 c 128,-1,44
 143 372 143 372 139 369 c 2,45,46
 135 365 135 365 131 362 c 1,47,-1
 113 386 l 1,48,-1
 168 432 l 1,49,-1
 197 432 l 1,50,-1
 144 179 l 1,51,-1
 111 179 l 1,37,38
EndSplineSet
Ligature: 0 0 'frac' one fraction four
Ligature: 0 0 'frac' one slash four
EndChar
StartChar: onehalf
Encoding: 189 189 127
Width: 512
Flags: W
Fore
339 33 m 1,0,-1
 468 33 l 1,1,-1
 461 0 l 1,2,-1
 299 0 l 1,3,-1
 311 59 l 1,4,5
 354 92 354 92 387 118 c 0,6,7
 416 140 416 140 440 158.5 c 128,-1,8
 464 177 464 177 465 178 c 1,9,-1
 471 205 l 1,10,11
 469 206 469 206 465 211.5 c 128,-1,12
 461 217 461 217 460 219 c 1,13,-1
 397 219 l 1,14,15
 396 217 396 217 388.5 211.5 c 128,-1,16
 381 206 381 206 380 205 c 1,17,18
 380 203 380 203 378 195 c 0,19,20
 377 191 377 191 377 188 c 1,21,-1
 344 188 l 1,22,-1
 350 218 l 1,23,-1
 390 252 l 1,24,-1
 481 252 l 1,25,-1
 507 218 l 1,26,-1
 495 163 l 1,27,-1
 419 105 l 2,28,29
 390 83 390 83 366 64.5 c 128,-1,30
 342 46 342 46 341 45 c 1,31,-1
 339 33 l 1,0,-1
110 180 m 1,32,33
 121 232 121 232 130 275 c 0,34,35
 134 293 134 293 137.5 311 c 128,-1,36
 141 329 141 329 144.5 343.5 c 128,-1,37
 148 358 148 358 150 368 c 128,-1,38
 152 378 152 378 153 381 c 1,39,40
 150 379 150 379 146 376 c 128,-1,41
 138 370 l 1,42,43
 134 366 134 366 130 363 c 1,44,-1
 112 386 l 1,45,-1
 167 432 l 1,46,-1
 196 432 l 1,47,-1
 143 180 l 1,48,-1
 110 180 l 1,32,33
446 432 m 1,49,-1
 108 0 l 1,50,-1
 66 0 l 1,51,-1
 405 432 l 1,52,-1
 446 432 l 1,49,-1
EndSplineSet
Ligature: 0 0 'frac' one fraction two
Ligature: 0 0 'frac' one slash two
EndChar
StartChar: threequarters
Encoding: 190 190 128
Width: 549
Flags: W
Fore
197 179 m 1,0,-1
 102 179 l 1,1,-1
 75 213 l 1,2,-1
 81 243 l 1,3,-1
 114 243 l 1,4,5
 113 240 113 240 112 236 c 0,6,7
 111 233 111 233 111 230.5 c 128,-1,8
 111 228 111 228 111 227 c 1,9,-1
 122 213 l 1,10,-1
 190 213 l 1,11,-1
 198 219 l 2,12,13
 201 221 201 221 203.5 223.5 c 128,-1,14
 206 226 206 226 207 227 c 1,15,16
 207 228 207 228 209 236.5 c 128,-1,17
 211 245 211 245 213 255.5 c 128,-1,18
 215 266 215 266 217 275 c 128,-1,19
 219 284 219 284 219 285 c 1,20,21
 218 286 218 286 213.5 291.5 c 128,-1,22
 209 297 209 297 208 299 c 1,23,-1
 143 299 l 1,24,-1
 150 332 l 1,25,-1
 215 332 l 1,26,27
 217 334 217 334 224 339.5 c 128,-1,28
 231 345 231 345 232 346 c 1,29,-1
 240 384 l 1,30,31
 240 386 240 386 235.5 391.5 c 128,-1,32
 231 397 231 397 229 399 c 1,33,-1
 166 399 l 1,34,35
 165 397 165 397 158 391.5 c 128,-1,36
 151 386 151 386 149 384 c 1,37,38
 149 382 149 382 147 376 c 0,39,40
 146 372 146 372 146 369 c 1,41,-1
 113 369 l 1,42,-1
 119 398 l 1,43,-1
 160 432 l 1,44,-1
 250 432 l 1,45,-1
 276 398 l 1,46,-1
 262 333 l 1,47,48
 257 330 257 330 253 326 c 2,49,50
 249 323 249 323 246.5 320 c 128,-1,51
 244 317 244 317 242 316 c 1,52,53
 243 314 243 314 245.5 311 c 128,-1,54
 248 308 248 308 250 305 c 0,55,56
 253 301 253 301 255 298 c 1,57,-1
 237 213 l 1,58,-1
 197 179 l 1,0,-1
513 73 m 1,59,-1
 506 40 l 1,60,-1
 486 40 l 1,61,62
 485 38 485 38 484.5 31.5 c 128,-1,63
 484 25 484 25 482 18 c 2,64,-1
 478 0 l 1,65,-1
 445 0 l 1,66,-1
 449 18 l 2,67,68
 451 25 451 25 451.5 31.5 c 128,-1,69
 452 38 452 38 453 40 c 1,70,-1
 344 40 l 1,71,-1
 354 87 l 1,72,-1
 354 88 l 1,73,-1
 481 252 l 1,74,-1
 531 252 l 1,75,76
 521 204 521 204 513 165 c 0,77,78
 510 148 510 148 506.5 132 c 128,-1,79
 503 116 503 116 500 103.5 c 128,-1,80
 497 91 497 91 495 82.5 c 128,-1,81
 493 74 493 74 493 73 c 1,82,-1
 513 73 l 1,59,-1
491 216 m 1,83,84
 488 212 488 212 471.5 190.5 c 128,-1,85
 455 169 455 169 436 144.5 c 128,-1,86
 417 120 417 120 401.5 100 c 128,-1,87
 386 80 386 80 385 79 c 1,88,-1
 384 73 l 1,89,-1
 460 73 l 1,90,-1
 491 216 l 1,83,84
534 432 m 1,91,-1
 196 0 l 1,92,-1
 154 0 l 1,93,-1
 493 432 l 1,94,-1
 534 432 l 1,91,-1
EndSplineSet
Ligature: 0 0 'frac' three fraction four
Ligature: 0 0 'frac' three slash four
EndChar
StartChar: questiondown
Encoding: 191 191 129
Width: 352
Flags: W
Fore
232 260 m 1,0,-1
 213 260 l 1,1,-1
 203 274 l 1,2,-1
 207 292 l 1,3,-1
 222 305 l 1,4,-1
 241 305 l 1,5,-1
 252 292 l 1,6,-1
 248 274 l 1,7,-1
 232 260 l 1,0,-1
258 -36 m 1,8,-1
 294 -36 l 1,9,-1
 286 -72 l 1,10,-1
 221 -126 l 1,11,-1
 59 -126 l 1,12,-1
 18 -72 l 1,13,-1
 37 19 l 1,14,-1
 175 125 l 1,15,-1
 194 216 l 1,16,-1
 230 216 l 1,17,-1
 208 109 l 1,18,-1
 69 3 l 1,19,-1
 56 -57 l 1,20,-1
 81 -90 l 1,21,-1
 213 -90 l 1,22,-1
 253 -57 l 1,23,-1
 258 -36 l 1,8,-1
EndSplineSet
EndChar
StartChar: AE
Encoding: 198 198 134
Width: 604
Flags: W
Fore
396 363 m 1,0,-1
 368 234 l 1,1,-1
 584 234 l 1,2,-1
 577 198 l 1,3,-1
 361 198 l 1,4,-1
 333 69 l 1,5,-1
 359 36 l 1,6,-1
 560 36 l 1,7,-1
 553 0 l 1,8,-1
 337 0 l 1,9,-1
 294 54 l 1,10,-1
 309 126 l 1,11,-1
 93 126 l 1,12,-1
 67 0 l 1,13,-1
 32 0 l 1,14,-1
 80 234 l 1,15,-1
 356 432 l 1,16,-1
 410 432 l 1,17,-1
 407 414 l 1,18,-1
 428 432 l 1,19,-1
 644 432 l 1,20,-1
 637 396 l 1,21,-1
 436 396 l 1,22,-1
 396 363 l 1,0,-1
317 162 m 1,23,-1
 367 396 l 1,24,-1
 354 396 l 1,25,-1
 114 224 l 1,26,-1
 101 162 l 1,27,-1
 317 162 l 1,23,-1
EndSplineSet
EndChar
StartChar: Ccedilla
Encoding: 199 199 135
Width: 371
Flags: W
Fore
217 -65 m 1,0,-1
 207 -113 l 1,1,-1
 162 -150 l 1,2,-1
 108 -150 l 1,3,-1
 115 -119 l 1,4,-1
 156 -119 l 1,5,-1
 178 -100 l 1,6,-1
 182 -79 l 1,7,-1
 168 -60 l 1,8,-1
 127 -60 l 1,9,-1
 131 -42 l 1,10,-1
 174 0 l 1,11,-1
 87 0 l 1,12,-1
 45 54 l 1,13,-1
 113 377 l 1,14,-1
 178 431 l 1,15,-1
 358 431 l 1,16,-1
 401 377 l 1,17,-1
 393 341 l 1,18,-1
 357 341 l 1,19,-1
 362 363 l 1,20,-1
 336 395 l 1,21,-1
 186 395 l 1,22,-1
 146 362 l 1,23,-1
 83 68 l 1,24,-1
 109 36 l 1,25,-1
 259 36 l 1,26,-1
 299 69 l 1,27,-1
 304 90 l 1,28,-1
 340 90 l 1,29,-1
 332 54 l 1,30,-1
 267 0 l 1,31,-1
 202 0 l 1,32,-1
 180 -29 l 1,33,-1
 188 -29 l 1,34,-1
 217 -65 l 1,0,-1
EndSplineSet
EndChar
StartChar: Eth
Encoding: 208 208 144
Width: 407
Flags: W
Fore
393 431 m 1,0,-1
 436 377 l 1,1,-1
 367 54 l 1,2,-1
 302 0 l 1,3,-1
 68 0 l 1,4,-1
 110 198 l 1,5,-1
 74 198 l 1,6,-1
 81 234 l 1,7,-1
 117 234 l 1,8,-1
 159 431 l 1,9,-1
 393 431 l 1,0,-1
334 69 m 1,10,-1
 397 363 l 1,11,-1
 371 395 l 1,12,-1
 188 395 l 1,13,-1
 153 234 l 1,14,-1
 261 234 l 1,15,-1
 254 198 l 1,16,-1
 146 198 l 1,17,-1
 111 36 l 1,18,-1
 294 36 l 1,19,-1
 334 69 l 1,10,-1
EndSplineSet
EndChar
StartChar: multiply
Encoding: 215 215 151
Width: 356
Flags: W
Fore
202 236 m 1,0,1
 203 236 203 236 213 245 c 128,-1,2
 223 254 223 254 238.5 266.5 c 128,-1,3
 254 279 254 279 271.5 293.5 c 128,-1,4
 289 308 289 308 304 320.5 c 128,-1,5
 319 333 319 333 329.5 341.5 c 128,-1,6
 340 350 340 350 341 351 c 1,7,8
 343 349 343 349 350 340 c 128,-1,9
 357 331 357 331 359 329 c 1,10,11
 357 327 357 327 335.5 309 c 128,-1,12
 314 291 314 291 288 270 c 2,13,-1
 220 214 l 1,14,-1
 264 158 l 2,15,16
 281 137 281 137 295 119 c 128,-1,17
 309 101 309 101 310 100 c 1,18,19
 309 99 309 99 305 95.5 c 128,-1,20
 301 92 301 92 296.5 88.5 c 128,-1,21
 287.5 81.5 l 128,-1,22
 283 78 283 78 282 77 c 1,23,24
 281 79 281 79 267.5 97 c 128,-1,25
 254 115 254 115 237 136 c 2,26,-1
 193 192 l 1,27,-1
 125 136 l 2,28,29
 99 115 99 115 77.5 97 c 128,-1,30
 56 79 56 79 54 77 c 1,31,32
 52 79 52 79 45 88.5 c 128,-1,33
 38 98 38 98 36 100 c 1,34,35
 37 100 37 100 43 105.5 c 128,-1,36
 49 111 49 111 59 119 c 128,-1,37
 69 127 69 127 81.5 137 c 128,-1,38
 94 147 94 147 107 158 c 0,39,40
 137 183 137 183 176 214 c 1,41,42
 150 245 150 245 131 270 c 0,43,44
 114 291 114 291 100 309 c 128,-1,45
 86 327 86 327 85 329 c 1,46,47
 86 330 86 330 90 333 c 128,-1,48
 94 336 94 336 98.5 339.5 c 128,-1,49
 103 343 103 343 107 346.5 c 128,-1,50
 111 350 111 350 113 351 c 1,51,52
 114 349 114 349 127.5 331 c 128,-1,53
 141 313 141 313 158 292 c 2,54,-1
 202 236 l 1,55,-1
 202 236 l 1,0,1
EndSplineSet
EndChar
StartChar: Oslash
Encoding: 216 216 152
Width: 388
Flags: W
Fore
428 431 m 1,0,-1
 400 398 l 1,1,-1
 417 378 l 1,2,-1
 348 54 l 1,3,-1
 283 0 l 1,4,-1
 85 0 l 1,5,-1
 78 7 l 1,6,-1
 58 -19 l 1,7,-1
 32 0 l 1,8,-1
 58 33 l 1,9,-1
 43 54 l 1,10,-1
 111 377 l 1,11,-1
 176 431 l 1,12,-1
 374 431 l 1,13,-1
 380 424 l 1,14,-1
 401 450 l 1,15,-1
 428 431 l 1,0,-1
81 68 m 1,16,-1
 85 65 l 1,17,-1
 354 392 l 1,18,-1
 352 395 l 1,19,-1
 184 395 l 1,20,-1
 144 362 l 1,21,-1
 81 68 l 1,16,-1
378 363 m 1,22,-1
 374 366 l 1,23,-1
 105 39 l 1,24,-1
 107 36 l 1,25,-1
 275 36 l 1,26,-1
 315 69 l 1,27,-1
 378 363 l 1,22,-1
EndSplineSet
EndChar
StartChar: Thorn
Encoding: 222 222 158
Width: 354
Flags: W
Fore
317 332 m 1,0,-1
 360 279 l 1,1,-1
 333 153 l 1,2,-1
 268 99 l 1,3,-1
 88 99 l 1,4,-1
 67 0 l 1,5,-1
 32 0 l 1,6,-1
 122 431 l 1,7,-1
 158 431 l 1,8,-1
 137 332 l 1,9,-1
 317 332 l 1,0,-1
300 168 m 1,10,-1
 321 264 l 1,11,-1
 295 296 l 1,12,-1
 130 296 l 1,13,-1
 95 135 l 1,14,-1
 260 135 l 1,15,-1
 300 168 l 1,10,-1
EndSplineSet
EndChar
StartChar: uni00DF
Encoding: 223 223 159
Width: 335
Flags: W
Fore
254 213 m 1,0,-1
 313 138 l 1,1,-1
 296 54 l 1,2,-1
 230 0 l 1,3,-1
 104 0 l 1,4,-1
 112 36 l 1,5,-1
 223 36 l 1,6,-1
 263 69 l 1,7,-1
 274 123 l 1,8,-1
 203 213 l 1,9,-1
 290 284 l 1,10,-1
 307 362 l 1,11,-1
 281 395 l 1,12,-1
 185 395 l 1,13,-1
 145 363 l 1,14,-1
 41 -126 l 1,15,-1
 6 -126 l 1,16,-1
 112 377 l 1,17,-1
 178 431 l 1,18,-1
 304 431 l 1,19,-1
 346 377 l 1,20,-1
 323 270 l 1,21,-1
 254 213 l 1,0,-1
EndSplineSet
EndChar
StartChar: ae
Encoding: 230 230 166
Width: 623
Flags: W
Fore
600 135 m 1,0,-1
 349 135 l 1,1,-1
 335 69 l 1,2,-1
 360 36 l 1,3,-1
 508 36 l 1,4,-1
 500 0 l 1,5,-1
 338 0 l 1,6,-1
 295 54 l 1,7,-1
 299 73 l 1,8,-1
 212 0 l 1,9,-1
 86 0 l 1,10,-1
 43 54 l 1,11,-1
 61 135 l 1,12,-1
 126 189 l 1,13,-1
 324 189 l 1,14,-1
 334 237 l 1,15,-1
 308 270 l 1,16,-1
 158 270 l 1,17,-1
 118 237 l 1,18,-1
 114 216 l 1,19,-1
 78 216 l 1,20,-1
 86 252 l 1,21,-1
 151 306 l 1,22,-1
 331 306 l 1,23,-1
 359 270 l 1,24,-1
 403 306 l 1,25,-1
 583 306 l 1,26,-1
 625 252 l 1,27,-1
 600 135 l 1,0,-1
410 270 m 1,28,-1
 370 237 l 1,29,-1
 356 171 l 1,30,-1
 571 171 l 1,31,-1
 585 237 l 1,32,-1
 560 270 l 1,33,-1
 410 270 l 1,28,-1
83 69 m 1,34,-1
 109 36 l 1,35,-1
 211 36 l 1,36,-1
 309 117 l 1,37,-1
 317 153 l 1,38,-1
 134 153 l 1,39,-1
 93 120 l 1,40,-1
 83 69 l 1,34,-1
EndSplineSet
EndChar
StartChar: ccedilla
Encoding: 231 231 167
Width: 373
Flags: W
Fore
218 -65 m 1,0,-1
 208 -113 l 1,1,-1
 163 -150 l 1,2,-1
 109 -150 l 1,3,-1
 116 -119 l 1,4,-1
 157 -119 l 1,5,-1
 179 -100 l 1,6,-1
 183 -79 l 1,7,-1
 169 -60 l 1,8,-1
 128 -60 l 1,9,-1
 132 -42 l 1,10,-1
 175 0 l 1,11,-1
 87 0 l 1,12,-1
 44 54 l 1,13,-1
 87 252 l 1,14,-1
 152 306 l 1,15,-1
 332 306 l 1,16,-1
 375 252 l 1,17,-1
 367 216 l 1,18,-1
 331 216 l 1,19,-1
 335 237 l 1,20,-1
 309 270 l 1,21,-1
 159 270 l 1,22,-1
 119 237 l 1,23,-1
 84 69 l 1,24,-1
 110 36 l 1,25,-1
 260 36 l 1,26,-1
 300 69 l 1,27,-1
 304 90 l 1,28,-1
 340 90 l 1,29,-1
 332 54 l 1,30,-1
 267 0 l 1,31,-1
 203 0 l 1,32,-1
 181 -29 l 1,33,-1
 189 -29 l 1,34,-1
 218 -65 l 1,0,-1
EndSplineSet
EndChar
StartChar: eth
Encoding: 240 240 176
Width: 372
Flags: W
Fore
466 390 m 1,0,-1
 395 353 l 1,1,-1
 331 54 l 1,2,-1
 266 0 l 1,3,-1
 86 0 l 1,4,-1
 44 54 l 1,5,-1
 85 252 l 1,6,-1
 151 306 l 1,7,-1
 277 306 l 1,8,-1
 333 234 l 1,9,-1
 354 333 l 1,10,-1
 301 305 l 1,11,-1
 291 332 l 1,12,-1
 362 369 l 1,13,-1
 375 432 l 1,14,-1
 411 432 l 1,15,-1
 402 390 l 1,16,-1
 456 417 l 1,17,-1
 466 390 l 1,0,-1
298 69 m 1,18,-1
 324 189 l 1,19,-1
 261 270 l 1,20,-1
 158 270 l 1,21,-1
 118 237 l 1,22,-1
 82 69 l 1,23,-1
 108 36 l 1,24,-1
 258 36 l 1,25,-1
 298 69 l 1,18,-1
EndSplineSet
EndChar
StartChar: divide
Encoding: 247 247 183
Width: 405
Flags: W
Fore
380 232 m 1,0,-1
 373 196 l 1,1,-1
 49 196 l 1,2,-1
 56 232 l 1,3,-1
 380 232 l 1,0,-1
215 268 m 1,4,-1
 202 284 l 1,5,-1
 207 306 l 1,6,-1
 226 322 l 1,7,-1
 249 322 l 1,8,-1
 261 306 l 1,9,-1
 256 284 l 1,10,-1
 238 268 l 1,11,-1
 215 268 l 1,4,-1
215 160 m 1,12,-1
 227 144 l 1,13,-1
 222 122 l 1,14,-1
 204 106 l 1,15,-1
 181 106 l 1,16,-1
 168 122 l 1,17,-1
 173 144 l 1,18,-1
 192 160 l 1,19,-1
 215 160 l 1,12,-1
EndSplineSet
EndChar
StartChar: oslash
Encoding: 248 248 184
Width: 371
Flags: W
Fore
372 252 m 1,0,-1
 330 54 l 1,1,-1
 265 0 l 1,2,-1
 85 0 l 1,3,-1
 80 7 l 1,4,-1
 55 -18 l 1,5,-1
 32 5 l 1,6,-1
 60 33 l 1,7,-1
 42 54 l 1,8,-1
 84 252 l 1,9,-1
 150 306 l 1,10,-1
 330 306 l 1,11,-1
 335 301 l 1,12,-1
 359 325 l 1,13,-1
 382 302 l 1,14,-1
 354 275 l 1,15,-1
 372 252 l 1,0,-1
82 69 m 1,16,-1
 89 61 l 1,17,-1
 303 270 l 1,18,-1
 157 270 l 1,19,-1
 117 237 l 1,20,-1
 82 69 l 1,16,-1
258 36 m 1,21,-1
 298 69 l 1,22,-1
 333 237 l 1,23,-1
 325 247 l 1,24,-1
 110 36 l 1,25,-1
 258 36 l 1,21,-1
EndSplineSet
EndChar
StartChar: thorn
Encoding: 254 254 190
Width: 372
Flags: W
Fore
374 252 m 1,0,-1
 331 54 l 1,1,-1
 266 0 l 1,2,-1
 87 0 l 1,3,-1
 73 18 l 1,4,-1
 46 -108 l 1,5,-1
 11 -108 l 1,6,-1
 121 414 l 1,7,-1
 157 414 l 1,8,-1
 130 288 l 1,9,-1
 152 306 l 1,10,-1
 332 306 l 1,11,-1
 374 252 l 1,0,-1
260 36 m 1,12,-1
 299 69 l 1,13,-1
 334 237 l 1,14,-1
 309 270 l 1,15,-1
 159 270 l 1,16,-1
 119 237 l 1,17,-1
 84 69 l 1,18,-1
 109 36 l 1,19,-1
 260 36 l 1,12,-1
EndSplineSet
EndChar
StartChar: Lslash
Encoding: 321 321 192
Width: 339
Flags: W
Fore
79 36 m 1,0,-1
 295 36 l 1,1,-1
 288 0 l 1,2,-1
 37 0 l 1,3,-1
 70 164 l 1,4,-1
 28 128 l 1,5,-1
 39 179 l 1,6,-1
 81 215 l 1,7,-1
 127 432 l 1,8,-1
 163 432 l 1,9,-1
 125 250 l 1,10,-1
 190 304 l 1,11,-1
 180 254 l 1,12,-1
 114 200 l 1,13,-1
 79 36 l 1,0,-1
EndSplineSet
EndChar
StartChar: lslash
Encoding: 322 322 193
Width: 160
Flags: W
Fore
169 294 m 1,0,-1
 158 244 l 1,1,-1
 115 208 l 1,2,-1
 71 0 l 1,3,-1
 36 0 l 1,4,-1
 71 172 l 1,5,-1
 28 136 l 1,6,-1
 39 186 l 1,7,-1
 82 222 l 1,8,-1
 126 432 l 1,9,-1
 162 432 l 1,10,-1
 125 258 l 1,11,-1
 169 294 l 1,0,-1
EndSplineSet
EndChar
StartChar: OE
Encoding: 338 338 194
Width: 605
Flags: W
Fore
397 363 m 1,0,-1
 369 234 l 1,1,-1
 585 234 l 1,2,-1
 578 198 l 1,3,-1
 362 198 l 1,4,-1
 334 69 l 1,5,-1
 360 36 l 1,6,-1
 561 36 l 1,7,-1
 554 0 l 1,8,-1
 86 0 l 1,9,-1
 44 54 l 1,10,-1
 112 378 l 1,11,-1
 177 432 l 1,12,-1
 645 432 l 1,13,-1
 638 396 l 1,14,-1
 437 396 l 1,15,-1
 397 363 l 1,0,-1
108 36 m 1,16,-1
 309 36 l 1,17,-1
 295 54 l 1,18,-1
 364 378 l 1,19,-1
 386 396 l 1,20,-1
 185 396 l 1,21,-1
 145 363 l 1,22,-1
 82 69 l 1,23,-1
 108 36 l 1,16,-1
EndSplineSet
EndChar
StartChar: oe
Encoding: 339 339 195
Width: 622
Flags: W
Fore
626 252 m 1,0,-1
 601 135 l 1,1,-1
 349 135 l 1,2,-1
 335 69 l 1,3,-1
 361 36 l 1,4,-1
 508 36 l 1,5,-1
 500 0 l 1,6,-1
 338 0 l 1,7,-1
 310 36 l 1,8,-1
 266 0 l 1,9,-1
 86 0 l 1,10,-1
 43 54 l 1,11,-1
 86 252 l 1,12,-1
 151 306 l 1,13,-1
 331 306 l 1,14,-1
 359 270 l 1,15,-1
 403 306 l 1,16,-1
 583 306 l 1,17,-1
 626 252 l 1,0,-1
259 36 m 1,18,-1
 299 69 l 1,19,-1
 334 237 l 1,20,-1
 308 270 l 1,21,-1
 158 270 l 1,22,-1
 118 237 l 1,23,-1
 83 69 l 1,24,-1
 109 36 l 1,25,-1
 259 36 l 1,18,-1
370 237 m 1,26,-1
 356 171 l 1,27,-1
 572 171 l 1,28,-1
 586 237 l 1,29,-1
 560 270 l 1,30,-1
 410 270 l 1,31,-1
 370 237 l 1,26,-1
EndSplineSet
EndChar
StartChar: florin
Encoding: 402 402 201
Width: 372
Flags: W
Fore
350 396 m 1,0,-1
 304 363 l 1,1,-1
 264 270 l 1,2,-1
 336 270 l 1,3,-1
 320 234 l 1,4,-1
 248 234 l 1,5,-1
 172 54 l 1,6,-1
 95 0 l 1,7,-1
 34 0 l 1,8,-1
 41 36 l 1,9,-1
 95 36 l 1,10,-1
 142 69 l 1,11,-1
 212 234 l 1,12,-1
 140 234 l 1,13,-1
 156 270 l 1,14,-1
 228 270 l 1,15,-1
 274 378 l 1,16,-1
 350 432 l 1,17,-1
 412 432 l 1,18,-1
 405 396 l 1,19,-1
 350 396 l 1,0,-1
EndSplineSet
EndChar
StartChar: circumflex
Encoding: 710 710 202
Width: 259
Flags: W
Fore
127 545 m 1,0,-1
 150 545 l 1,1,-1
 211 468 l 1,2,-1
 196 455 l 1,3,-1
 130 506 l 1,4,-1
 43 455 l 1,5,-1
 33 468 l 1,6,-1
 127 545 l 1,0,-1
EndSplineSet
EndChar
StartChar: caron
Encoding: 711 711 203
Width: 259
Flags: W
Fore
132 455 m 1,0,-1
 108 455 l 1,1,-1
 47 532 l 1,2,-1
 62 545 l 1,3,-1
 128 494 l 1,4,-1
 215 545 l 1,5,-1
 225 532 l 1,6,-1
 132 455 l 1,0,-1
EndSplineSet
EndChar
StartChar: breve
Encoding: 728 728 204
Width: 262
Flags: W
Fore
227 536 m 1,0,-1
 163 455 l 1,1,-1
 77 455 l 1,2,-1
 47 536 l 1,3,-1
 67 545 l 1,4,-1
 103 491 l 1,5,-1
 153 491 l 1,6,-1
 211 545 l 1,7,-1
 227 536 l 1,0,-1
EndSplineSet
EndChar
StartChar: dotaccent
Encoding: 729 729 205
Width: 147
Flags: W
Fore
100 474 m 1,0,-1
 77 455 l 1,1,-1
 50 455 l 1,2,-1
 35 474 l 1,3,-1
 40 501 l 1,4,-1
 63 520 l 1,5,-1
 90 520 l 1,6,-1
 105 501 l 1,7,-1
 100 474 l 1,0,-1
EndSplineSet
EndChar
StartChar: ring
Encoding: 730 730 206
Width: 190
Flags: W
Fore
131 563 m 1,0,-1
 155 531 l 1,1,-1
 146 487 l 1,2,-1
 108 455 l 1,3,-1
 63 455 l 1,4,-1
 38 487 l 1,5,-1
 47 532 l 1,6,-1
 86 563 l 1,7,-1
 131 563 l 1,0,-1
92 532 m 1,8,-1
 76 518 l 1,9,-1
 73 500 l 1,10,-1
 83 487 l 1,11,-1
 102 487 l 1,12,-1
 118 500 l 1,13,-1
 121 518 l 1,14,-1
 111 532 l 1,15,-1
 92 532 l 1,8,-1
EndSplineSet
EndChar
StartChar: tilde
Encoding: 732 732 208
Width: 241
Flags: W
Fore
143 404 m 1,0,1
 145 405 145 405 150.5 410.5 c 128,-1,2
 156 416 156 416 164 422 c 0,3,4
 172 429 172 429 183 437 c 1,5,-1
 200 415 l 1,6,-1
 140 365 l 1,7,-1
 116 381 l 2,8,9
 107 387 107 387 99.5 392 c 128,-1,10
 92 397 92 397 91 398 c 1,11,12
 89 396 89 396 82.5 391 c 128,-1,13
 76 386 76 386 69 380 c 0,14,15
 60 373 60 373 51 365 c 1,16,-1
 34 387 l 1,17,-1
 94 437 l 1,18,-1
 118 421 l 2,19,20
 127 415 127 415 134.5 410 c 128,-1,21
 142 405 142 405 143 404 c 1,0,1
EndSplineSet
EndChar
StartChar: uni0E01
Encoding: 3585 3585 211
Width: 390
Flags: W
Fore
370 396 m 1,0,-1
 412 342 l 1,1,-1
 339 0 l 1,2,-1
 303 0 l 1,3,-1
 373 327 l 1,4,-1
 347 360 l 1,5,-1
 179 360 l 1,6,-1
 157 342 l 1,7,-1
 202 285 l 1,8,-1
 137 231 l 1,9,-1
 87 0 l 1,10,-1
 51 0 l 1,11,-1
 104 246 l 1,12,-1
 151 285 l 1,13,-1
 106 342 l 1,14,-1
 172 396 l 1,15,-1
 370 396 l 1,0,-1
EndSplineSet
EndChar
StartChar: uni0E02
Encoding: 3586 3586 212
Width: 375
Flags: W
Fore
373 396 m 1,0,-1
 409 396 l 1,1,-1
 336 54 l 1,2,-1
 270 0 l 1,3,-1
 234 0 l 1,4,-1
 192 54 l 1,5,-1
 250 327 l 1,6,-1
 224 360 l 1,7,-1
 164 360 l 1,8,-1
 142 342 l 1,9,-1
 180 342 l 1,10,-1
 209 305 l 1,11,-1
 198 253 l 1,12,-1
 153 216 l 1,13,-1
 101 216 l 1,14,-1
 72 253 l 1,15,-1
 91 342 l 1,16,-1
 157 396 l 1,17,-1
 247 396 l 1,18,-1
 289 342 l 1,19,-1
 231 69 l 1,20,-1
 257 36 l 1,21,-1
 263 36 l 1,22,-1
 303 69 l 1,23,-1
 373 396 l 1,0,-1
174 292 m 1,24,-1
 160 310 l 1,25,-1
 134 310 l 1,26,-1
 111 292 l 1,27,-1
 106 266 l 1,28,-1
 121 247 l 1,29,-1
 147 247 l 1,30,-1
 169 266 l 1,31,-1
 174 292 l 1,24,-1
EndSplineSet
EndChar
StartChar: uni0E03
Encoding: 3587 3587 213
Width: 376
Flags: W
Fore
374 396 m 1,0,-1
 410 396 l 1,1,-1
 337 54 l 1,2,-1
 272 0 l 1,3,-1
 236 0 l 1,4,-1
 193 54 l 1,5,-1
 243 287 l 1,6,-1
 298 332 l 1,7,-1
 302 352 l 1,8,-1
 296 360 l 1,9,-1
 276 360 l 1,10,-1
 233 324 l 1,11,-1
 205 360 l 1,12,-1
 165 360 l 1,13,-1
 144 342 l 1,14,-1
 182 342 l 1,15,-1
 211 305 l 1,16,-1
 200 253 l 1,17,-1
 155 216 l 1,18,-1
 103 216 l 1,19,-1
 74 252 l 1,20,-1
 93 342 l 1,21,-1
 158 396 l 1,22,-1
 221 396 l 1,23,-1
 242 368 l 1,24,-1
 242 368 l 1,25,-1
 276 396 l 1,26,-1
 311 396 l 1,27,-1
 339 360 l 1,28,-1
 332 324 l 1,29,-1
 277 279 l 1,30,-1
 232 69 l 1,31,-1
 258 36 l 1,32,-1
 265 36 l 1,33,-1
 304 69 l 1,34,-1
 374 396 l 1,0,-1
162 310 m 1,35,-1
 136 310 l 1,36,-1
 114 292 l 1,37,-1
 108 266 l 1,38,-1
 123 247 l 1,39,-1
 149 247 l 1,40,-1
 171 266 l 1,41,-1
 176 292 l 1,42,-1
 162 310 l 1,35,-1
EndSplineSet
EndChar
StartChar: uni0E04
Encoding: 3588 3588 214
Width: 400
Flags: W
Fore
380 396 m 1,0,-1
 422 342 l 1,1,-1
 349 0 l 1,2,-1
 313 0 l 1,3,-1
 383 327 l 1,4,-1
 357 360 l 1,5,-1
 189 360 l 1,6,-1
 149 327 l 1,7,-1
 117 179 l 1,8,-1
 228 270 l 1,9,-1
 280 270 l 1,10,-1
 309 233 l 1,11,-1
 298 181 l 1,12,-1
 253 144 l 1,13,-1
 201 144 l 1,14,-1
 172 181 l 1,15,-1
 174 189 l 1,16,-1
 108 135 l 1,17,-1
 79 0 l 1,18,-1
 43 0 l 1,19,-1
 116 342 l 1,20,-1
 182 396 l 1,21,-1
 380 396 l 1,0,-1
274 220 m 1,22,-1
 260 238 l 1,23,-1
 234 238 l 1,24,-1
 211 220 l 1,25,-1
 206 194 l 1,26,-1
 221 176 l 1,27,-1
 247 176 l 1,28,-1
 269 194 l 1,29,-1
 274 220 l 1,22,-1
EndSplineSet
EndChar
StartChar: uni0E05
Encoding: 3589 3589 215
Width: 399
Flags: W
Fore
378 395 m 1,0,-1
 421 341 l 1,1,-1
 349 0 l 1,2,-1
 313 0 l 1,3,-1
 382 326 l 1,4,-1
 356 359 l 1,5,-1
 326 359 l 1,6,-1
 260 305 l 1,7,-1
 218 359 l 1,8,-1
 188 359 l 1,9,-1
 148 326 l 1,10,-1
 116 178 l 1,11,-1
 227 269 l 1,12,-1
 279 269 l 1,13,-1
 308 232 l 1,14,-1
 297 180 l 1,15,-1
 252 143 l 1,16,-1
 200 143 l 1,17,-1
 171 180 l 1,18,-1
 172 188 l 1,19,-1
 107 134 l 1,20,-1
 79 0 l 1,21,-1
 43 0 l 1,22,-1
 115 341 l 1,23,-1
 180 395 l 1,24,-1
 240 395 l 1,25,-1
 271 356 l 1,26,-1
 319 395 l 1,27,-1
 378 395 l 1,0,-1
273 219 m 1,28,-1
 259 238 l 1,29,-1
 233 238 l 1,30,-1
 210 219 l 1,31,-1
 205 193 l 1,32,-1
 220 175 l 1,33,-1
 246 175 l 1,34,-1
 268 193 l 1,35,-1
 273 219 l 1,28,-1
EndSplineSet
EndChar
StartChar: uni0E06
Encoding: 3590 3590 216
Width: 447
Flags: W
Fore
444 396 m 1,0,-1
 480 396 l 1,1,-1
 396 0 l 1,2,-1
 360 0 l 1,3,-1
 249 71 l 1,4,-1
 242 37 l 1,5,-1
 197 0 l 1,6,-1
 145 0 l 1,7,-1
 116 37 l 1,8,-1
 127 89 l 1,9,-1
 172 126 l 1,10,-1
 207 126 l 1,11,-1
 241 288 l 1,12,-1
 296 333 l 1,13,-1
 300 353 l 1,14,-1
 294 361 l 1,15,-1
 279 361 l 1,16,-1
 236 325 l 1,17,-1
 207 361 l 1,18,-1
 163 361 l 1,19,-1
 142 343 l 1,20,-1
 180 343 l 1,21,-1
 209 306 l 1,22,-1
 198 254 l 1,23,-1
 153 217 l 1,24,-1
 101 217 l 1,25,-1
 72 254 l 1,26,-1
 91 343 l 1,27,-1
 156 397 l 1,28,-1
 223 397 l 1,29,-1
 245 369 l 1,30,-1
 278 397 l 1,31,-1
 309 397 l 1,32,-1
 338 362 l 1,33,-1
 330 325 l 1,34,-1
 275 280 l 1,35,-1
 241 117 l 1,36,-1
 367 37 l 1,37,-1
 444 396 l 1,0,-1
160 311 m 1,38,-1
 134 311 l 1,39,-1
 112 293 l 1,40,-1
 106 267 l 1,41,-1
 121 248 l 1,42,-1
 147 248 l 1,43,-1
 169 267 l 1,44,-1
 175 293 l 1,45,-1
 160 311 l 1,38,-1
213 50 m 1,46,-1
 218 76 l 1,47,-1
 204 95 l 1,48,-1
 178 95 l 1,49,-1
 156 76 l 1,50,-1
 150 50 l 1,51,-1
 165 32 l 1,52,-1
 191 32 l 1,53,-1
 213 50 l 1,46,-1
EndSplineSet
EndChar
StartChar: uni0E07
Encoding: 3591 3591 217
Width: 320
Flags: W
Fore
317 396 m 1,0,-1
 346 359 l 1,1,-1
 269 0 l 1,2,-1
 233 0 l 1,3,-1
 93 265 l 1,4,-1
 125 286 l 1,5,-1
 246 60 l 1,6,-1
 291 271 l 1,7,-1
 290 270 l 1,8,-1
 238 270 l 1,9,-1
 209 307 l 1,10,-1
 220 359 l 1,11,-1
 265 396 l 1,12,-1
 317 396 l 1,0,-1
284 302 m 1,13,-1
 306 320 l 1,14,-1
 312 346 l 1,15,-1
 297 365 l 1,16,-1
 271 365 l 1,17,-1
 249 346 l 1,18,-1
 243 320 l 1,19,-1
 258 302 l 1,20,-1
 284 302 l 1,13,-1
EndSplineSet
EndChar
StartChar: uni0E08
Encoding: 3592 3592 218
Width: 389
Flags: W
Fore
369 396 m 1,0,-1
 411 342 l 1,1,-1
 338 0 l 1,2,-1
 302 0 l 1,3,-1
 331 135 l 1,4,-1
 289 189 l 1,5,-1
 287 181 l 1,6,-1
 242 144 l 1,7,-1
 190 144 l 1,8,-1
 161 181 l 1,9,-1
 172 233 l 1,10,-1
 217 270 l 1,11,-1
 269 270 l 1,12,-1
 340 179 l 1,13,-1
 372 327 l 1,14,-1
 346 360 l 1,15,-1
 178 360 l 1,16,-1
 138 327 l 1,17,-1
 133 306 l 1,18,-1
 97 306 l 1,19,-1
 105 342 l 1,20,-1
 171 396 l 1,21,-1
 369 396 l 1,0,-1
258 194 m 1,22,-1
 263 220 l 1,23,-1
 249 239 l 1,24,-1
 223 239 l 1,25,-1
 201 220 l 1,26,-1
 196 194 l 1,27,-1
 210 176 l 1,28,-1
 236 176 l 1,29,-1
 258 194 l 1,22,-1
EndSplineSet
EndChar
StartChar: uni0E09
Encoding: 3593 3593 219
Width: 429
Flags: W
Fore
383 126 m 1,0,-1
 412 89 l 1,1,-1
 401 37 l 1,2,-1
 356 0 l 1,3,-1
 304 0 l 1,4,-1
 275 37 l 1,5,-1
 281 62 l 1,6,-1
 177 0 l 1,7,-1
 141 0 l 1,8,-1
 172 145 l 1,9,-1
 171 144 l 1,10,-1
 119 144 l 1,11,-1
 90 181 l 1,12,-1
 101 233 l 1,13,-1
 146 270 l 1,14,-1
 198 270 l 1,15,-1
 227 233 l 1,16,-1
 185 38 l 1,17,-1
 330 125 l 1,18,-1
 373 327 l 1,19,-1
 347 360 l 1,20,-1
 179 360 l 1,21,-1
 139 327 l 1,22,-1
 134 306 l 1,23,-1
 98 306 l 1,24,-1
 106 342 l 1,25,-1
 172 396 l 1,26,-1
 370 396 l 1,27,-1
 412 342 l 1,28,-1
 366 126 l 1,29,-1
 383 126 l 1,0,-1
165 175 m 1,30,-1
 188 194 l 1,31,-1
 193 220 l 1,32,-1
 178 238 l 1,33,-1
 152 238 l 1,34,-1
 130 220 l 1,35,-1
 125 194 l 1,36,-1
 139 175 l 1,37,-1
 165 175 l 1,30,-1
373 50 m 1,38,-1
 379 76 l 1,39,-1
 363 94 l 1,40,-1
 337 94 l 1,41,-1
 316 76 l 1,42,-1
 310 50 l 1,43,-1
 324 31 l 1,44,-1
 350 31 l 1,45,-1
 373 50 l 1,38,-1
EndSplineSet
EndChar
StartChar: uni0E0A
Encoding: 3594 3594 220
Width: 376
Flags: W
Fore
376 341 m 1,0,-1
 393 319 l 1,1,-1
 336 54 l 1,2,-1
 271 0 l 1,3,-1
 235 0 l 1,4,-1
 192 53 l 1,5,-1
 250 327 l 1,6,-1
 225 359 l 1,7,-1
 164 359 l 1,8,-1
 142 341 l 1,9,-1
 181 341 l 1,10,-1
 209 304 l 1,11,-1
 198 252 l 1,12,-1
 154 215 l 1,13,-1
 101 215 l 1,14,-1
 72 252 l 1,15,-1
 91 341 l 1,16,-1
 157 395 l 1,17,-1
 247 395 l 1,18,-1
 289 341 l 1,19,-1
 231 68 l 1,20,-1
 257 36 l 1,21,-1
 263 36 l 1,22,-1
 303 69 l 1,23,-1
 355 305 l 1,24,-1
 325 341 l 1,25,-1
 457 449 l 1,26,-1
 477 424 l 1,27,-1
 376 341 l 1,0,-1
176 291 m 1,28,-1
 161 310 l 1,29,-1
 135 310 l 1,30,-1
 113 291 l 1,31,-1
 107 265 l 1,32,-1
 121 247 l 1,33,-1
 147 247 l 1,34,-1
 170 265 l 1,35,-1
 176 291 l 1,28,-1
EndSplineSet
EndChar
StartChar: uni0E0B
Encoding: 3595 3595 221
Width: 375
Flags: W
Fore
475 425 m 1,0,-1
 374 342 l 1,1,-1
 391 320 l 1,2,-1
 335 54 l 1,3,-1
 269 0 l 1,4,-1
 233 0 l 1,5,-1
 191 54 l 1,6,-1
 240 288 l 1,7,-1
 295 333 l 1,8,-1
 299 352 l 1,9,-1
 293 360 l 1,10,-1
 278 360 l 1,11,-1
 235 324 l 1,12,-1
 207 360 l 1,13,-1
 163 360 l 1,14,-1
 141 342 l 1,15,-1
 179 342 l 1,16,-1
 208 305 l 1,17,-1
 197 253 l 1,18,-1
 152 216 l 1,19,-1
 100 216 l 1,20,-1
 71 253 l 1,21,-1
 90 342 l 1,22,-1
 155 396 l 1,23,-1
 223 396 l 1,24,-1
 244 369 l 1,25,-1
 278 396 l 1,26,-1
 308 396 l 1,27,-1
 337 361 l 1,28,-1
 335 351 l 1,29,-1
 455 450 l 1,30,-1
 475 425 l 1,0,-1
159 311 m 1,31,-1
 133 311 l 1,32,-1
 111 292 l 1,33,-1
 105 266 l 1,34,-1
 120 248 l 1,35,-1
 146 248 l 1,36,-1
 168 266 l 1,37,-1
 174 292 l 1,38,-1
 159 311 l 1,31,-1
302 69 m 1,39,-1
 352 305 l 1,40,-1
 331 333 l 1,41,-1
 329 324 l 1,42,-1
 274 279 l 1,43,-1
 230 69 l 1,44,-1
 256 36 l 1,45,-1
 262 36 l 1,46,-1
 302 69 l 1,39,-1
EndSplineSet
EndChar
StartChar: uni0E0C
Encoding: 3596 3596 222
Width: 568
Flags: W
Fore
564 395 m 1,0,-1
 600 395 l 1,1,-1
 517 0 l 1,2,-1
 481 0 l 1,3,-1
 369 69 l 1,4,-1
 362 36 l 1,5,-1
 319 0 l 1,6,-1
 266 0 l 1,7,-1
 236 36 l 1,8,-1
 247 89 l 1,9,-1
 292 125 l 1,10,-1
 327 125 l 1,11,-1
 370 327 l 1,12,-1
 345 359 l 1,13,-1
 177 359 l 1,14,-1
 154 341 l 1,15,-1
 200 284 l 1,16,-1
 134 230 l 1,17,-1
 112 125 l 1,18,-1
 113 125 l 1,19,-1
 165 125 l 1,20,-1
 194 89 l 1,21,-1
 183 36 l 1,22,-1
 139 0 l 1,23,-1
 86 0 l 1,24,-1
 57 36 l 1,25,-1
 102 245 l 1,26,-1
 149 284 l 1,27,-1
 104 341 l 1,28,-1
 169 395 l 1,29,-1
 367 395 l 1,30,-1
 409 341 l 1,31,-1
 361 115 l 1,32,-1
 488 36 l 1,33,-1
 564 395 l 1,0,-1
120 94 m 1,34,-1
 97 76 l 1,35,-1
 91 49 l 1,36,-1
 106 31 l 1,37,-1
 132 31 l 1,38,-1
 154 49 l 1,39,-1
 160 76 l 1,40,-1
 146 94 l 1,41,-1
 120 94 l 1,34,-1
334 49 m 1,42,-1
 340 76 l 1,43,-1
 325 94 l 1,44,-1
 299 94 l 1,45,-1
 277 76 l 1,46,-1
 271 49 l 1,47,-1
 285 31 l 1,48,-1
 311 31 l 1,49,-1
 334 49 l 1,42,-1
EndSplineSet
EndChar
StartChar: uni0E0D
Encoding: 3597 3597 223
Width: 569
Flags: W
Fore
411 -125 m 1,0,-1
 476 -71 l 1,1,-1
 497 -97 l 1,2,-1
 418 -161 l 1,3,-1
 298 -161 l 1,4,-1
 274 -129 l 1,5,-1
 283 -85 l 1,6,-1
 322 -53 l 1,7,-1
 366 -53 l 1,8,-1
 391 -85 l 1,9,-1
 383 -125 l 1,10,-1
 411 -125 l 1,0,-1
337 -130 m 1,11,-1
 353 -117 l 1,12,-1
 357 -98 l 1,13,-1
 346 -85 l 1,14,-1
 327 -85 l 1,15,-1
 312 -98 l 1,16,-1
 308 -116 l 1,17,-1
 319 -130 l 1,18,-1
 337 -130 l 1,11,-1
566 396 m 1,19,-1
 602 396 l 1,20,-1
 529 54 l 1,21,-1
 464 0 l 1,22,-1
 302 0 l 1,23,-1
 371 327 l 1,24,-1
 345 360 l 1,25,-1
 177 360 l 1,26,-1
 155 342 l 1,27,-1
 200 284 l 1,28,-1
 134 230 l 1,29,-1
 112 125 l 1,30,-1
 113 126 l 1,31,-1
 165 126 l 1,32,-1
 194 89 l 1,33,-1
 183 37 l 1,34,-1
 139 0 l 1,35,-1
 87 0 l 1,36,-1
 57 37 l 1,37,-1
 102 245 l 1,38,-1
 149 284 l 1,39,-1
 104 341 l 1,40,-1
 104 342 l 1,41,-1
 170 396 l 1,42,-1
 368 396 l 1,43,-1
 410 342 l 1,44,-1
 345 36 l 1,45,-1
 456 36 l 1,46,-1
 496 69 l 1,47,-1
 566 396 l 1,19,-1
120 94 m 1,48,-1
 98 76 l 1,49,-1
 92 50 l 1,50,-1
 106 31 l 1,51,-1
 132 31 l 1,52,-1
 155 50 l 1,53,-1
 161 76 l 1,54,-1
 146 94 l 1,55,-1
 120 94 l 1,48,-1
EndSplineSet
Substitution: 0 65534 'L026' uni0E0D.alt1
Substitution: 0 65534 'L026' uni0E0D.alt1
EndChar
StartChar: uni0E0E
Encoding: 3598 3598 224
Width: 447
Flags: W
Fore
427 396 m 1,0,-1
 469 342 l 1,1,-1
 358 -180 l 1,2,-1
 322 -180 l 1,3,-1
 293 -142 l 1,4,-1
 247 -180 l 1,5,-1
 106 -180 l 1,6,-1
 78 -144 l 1,7,-1
 89 -90 l 1,8,-1
 133 -54 l 1,9,-1
 274 -54 l 1,10,-1
 333 -129 l 1,11,-1
 430 327 l 1,12,-1
 404 360 l 1,13,-1
 236 360 l 1,14,-1
 214 342 l 1,15,-1
 259 285 l 1,16,-1
 194 231 l 1,17,-1
 152 37 l 1,18,-1
 108 0 l 1,19,-1
 56 0 l 1,20,-1
 26 37 l 1,21,-1
 37 89 l 1,22,-1
 82 126 l 1,23,-1
 134 126 l 1,24,-1
 135 125 l 1,25,-1
 161 245 l 1,26,-1
 208 285 l 1,27,-1
 163 342 l 1,28,-1
 229 396 l 1,29,-1
 427 396 l 1,0,-1
124 50 m 1,30,-1
 130 76 l 1,31,-1
 115 94 l 1,32,-1
 89 94 l 1,33,-1
 67 76 l 1,34,-1
 61 50 l 1,35,-1
 75 31 l 1,36,-1
 101 31 l 1,37,-1
 124 50 l 1,30,-1
240 -144 m 1,38,-1
 273 -117 l 1,39,-1
 251 -90 l 1,40,-1
 140 -90 l 1,41,-1
 122 -105 l 1,42,-1
 117 -129 l 1,43,-1
 129 -144 l 1,44,-1
 240 -144 l 1,38,-1
EndSplineSet
Substitution: 0 65534 'L026' uni0E0E.alt1
Substitution: 0 65534 'L026' uni0E0E.alt1
EndChar
StartChar: uni0E0F
Encoding: 3599 3599 225
Width: 448
Flags: W
Fore
427 396 m 1,0,-1
 469 342 l 1,1,-1
 358 -179 l 1,2,-1
 321 -179 l 1,3,-1
 292 -142 l 1,4,-1
 246 -180 l 1,5,-1
 217 -142 l 1,6,-1
 171 -179 l 1,7,-1
 106 -179 l 1,8,-1
 78 -143 l 1,9,-1
 90 -89 l 1,10,-1
 133 -54 l 1,11,-1
 198 -54 l 1,12,-1
 257 -129 l 1,13,-1
 303 -91 l 1,14,-1
 333 -129 l 1,15,-1
 430 327 l 1,16,-1
 404 360 l 1,17,-1
 236 360 l 1,18,-1
 214 342 l 1,19,-1
 259 285 l 1,20,-1
 194 231 l 1,21,-1
 152 37 l 1,22,-1
 108 0 l 1,23,-1
 56 0 l 1,24,-1
 26 37 l 1,25,-1
 37 89 l 1,26,-1
 82 126 l 1,27,-1
 134 126 l 1,28,-1
 135 125 l 1,29,-1
 161 246 l 1,30,-1
 208 285 l 1,31,-1
 163 342 l 1,32,-1
 229 396 l 1,33,-1
 427 396 l 1,0,-1
123 50 m 1,34,-1
 129 76 l 1,35,-1
 115 95 l 1,36,-1
 89 95 l 1,37,-1
 66 76 l 1,38,-1
 60 50 l 1,39,-1
 75 32 l 1,40,-1
 101 32 l 1,41,-1
 123 50 l 1,34,-1
164 -143 m 1,42,-1
 197 -116 l 1,43,-1
 176 -89 l 1,44,-1
 141 -89 l 1,45,-1
 122 -104 l 1,46,-1
 117 -128 l 1,47,-1
 129 -143 l 1,48,-1
 164 -143 l 1,42,-1
EndSplineSet
Substitution: 0 65534 'L026' uni0E0F.alt1
Substitution: 0 65534 'L026' uni0E0F.alt1
EndChar
StartChar: uni0E10
Encoding: 3600 3600 226
Width: 371
Flags: W
Fore
396 360 m 1,0,-1
 177 360 l 1,1,-1
 140 329 l 1,2,-1
 377 270 l 1,3,-1
 319 0 l 1,4,-1
 283 0 l 1,5,-1
 304 99 l 1,6,-1
 262 153 l 1,7,-1
 260 145 l 1,8,-1
 216 108 l 1,9,-1
 163 108 l 1,10,-1
 134 145 l 1,11,-1
 145 197 l 1,12,-1
 190 234 l 1,13,-1
 242 234 l 1,14,-1
 314 143 l 1,15,-1
 336 247 l 1,16,-1
 97 306 l 1,17,-1
 97 306 l 1,18,-1
 104 342 l 1,19,-1
 170 396 l 1,20,-1
 404 396 l 1,21,-1
 396 360 l 1,0,-1
232 158 m 1,22,-1
 237 184 l 1,23,-1
 222 203 l 1,24,-1
 197 203 l 1,25,-1
 174 184 l 1,26,-1
 169 158 l 1,27,-1
 183 140 l 1,28,-1
 209 140 l 1,29,-1
 232 158 l 1,22,-1
277 -53 m 1,30,-1
 301 -85 l 1,31,-1
 292 -130 l 1,32,-1
 254 -161 l 1,33,-1
 210 -161 l 1,34,-1
 161 -100 l 1,35,-1
 88 -161 l 1,36,-1
 22 -78 l 1,37,-1
 49 -55 l 1,38,-1
 97 -116 l 1,39,-1
 171 -55 l 1,40,-1
 194 -85 l 1,41,-1
 232 -53 l 1,42,-1
 277 -53 l 1,30,-1
264 -116 m 1,43,-1
 267 -98 l 1,44,-1
 257 -85 l 1,45,-1
 239 -85 l 1,46,-1
 223 -98 l 1,47,-1
 219 -116 l 1,48,-1
 229 -130 l 1,49,-1
 248 -130 l 1,50,-1
 264 -116 l 1,43,-1
EndSplineSet
Substitution: 0 65534 'L026' uni0E10.alt1
Substitution: 0 65534 'L026' uni0E10.alt1
EndChar
StartChar: uni0E11
Encoding: 3601 3601 227
Width: 483
Flags: W
Fore
463 395 m 1,0,-1
 505 341 l 1,1,-1
 432 0 l 1,2,-1
 396 0 l 1,3,-1
 466 327 l 1,4,-1
 440 359 l 1,5,-1
 422 359 l 1,6,-1
 217 0 l 1,7,-1
 181 0 l 1,8,-1
 242 287 l 1,9,-1
 296 332 l 1,10,-1
 300 352 l 1,11,-1
 294 359 l 1,12,-1
 280 359 l 1,13,-1
 236 323 l 1,14,-1
 208 359 l 1,15,-1
 164 359 l 1,16,-1
 142 341 l 1,17,-1
 180 341 l 1,18,-1
 209 304 l 1,19,-1
 198 252 l 1,20,-1
 154 215 l 1,21,-1
 101 215 l 1,22,-1
 72 252 l 1,23,-1
 91 341 l 1,24,-1
 157 395 l 1,25,-1
 224 395 l 1,26,-1
 246 368 l 1,27,-1
 279 395 l 1,28,-1
 310 395 l 1,29,-1
 338 360 l 1,30,-1
 330 324 l 1,31,-1
 276 279 l 1,32,-1
 236 93 l 1,33,-1
 408 395 l 1,34,-1
 409 395 l 1,35,-1
 463 395 l 1,0,-1
161 310 m 1,36,-1
 135 310 l 1,37,-1
 112 291 l 1,38,-1
 107 265 l 1,39,-1
 121 247 l 1,40,-1
 147 247 l 1,41,-1
 170 265 l 1,42,-1
 175 291 l 1,43,-1
 161 310 l 1,36,-1
EndSplineSet
EndChar
StartChar: uni0E12
Encoding: 3602 3602 228
Width: 579
Flags: W
Fore
575 395 m 1,0,-1
 611 395 l 1,1,-1
 528 0 l 1,2,-1
 492 0 l 1,3,-1
 380 70 l 1,4,-1
 373 37 l 1,5,-1
 329 0 l 1,6,-1
 277 0 l 1,7,-1
 247 37 l 1,8,-1
 258 89 l 1,9,-1
 303 126 l 1,10,-1
 338 126 l 1,11,-1
 381 327 l 1,12,-1
 355 359 l 1,13,-1
 325 359 l 1,14,-1
 259 305 l 1,15,-1
 217 359 l 1,16,-1
 187 359 l 1,17,-1
 147 327 l 1,18,-1
 87 45 l 1,19,-1
 207 144 l 1,20,-1
 199 144 l 1,21,-1
 170 181 l 1,22,-1
 181 233 l 1,23,-1
 226 270 l 1,24,-1
 278 270 l 1,25,-1
 307 233 l 1,26,-1
 296 181 l 1,27,-1
 78 0 l 1,28,-1
 42 0 l 1,29,-1
 114 341 l 1,30,-1
 179 395 l 1,31,-1
 239 395 l 1,32,-1
 270 356 l 1,33,-1
 317 395 l 1,34,-1
 377 395 l 1,35,-1
 420 342 l 1,36,-1
 372 116 l 1,37,-1
 499 36 l 1,38,-1
 575 395 l 1,0,-1
205 194 m 1,39,-1
 219 175 l 1,40,-1
 245 175 l 1,41,-1
 267 194 l 1,42,-1
 272 220 l 1,43,-1
 258 238 l 1,44,-1
 232 238 l 1,45,-1
 210 220 l 1,46,-1
 205 194 l 1,39,-1
344 50 m 1,47,-1
 350 76 l 1,48,-1
 336 94 l 1,49,-1
 310 94 l 1,50,-1
 287 76 l 1,51,-1
 281 50 l 1,52,-1
 296 31 l 1,53,-1
 322 31 l 1,54,-1
 344 50 l 1,47,-1
EndSplineSet
EndChar
StartChar: uni0E13
Encoding: 3603 3603 229
Width: 608
Flags: W
Fore
562 125 m 1,0,-1
 591 89 l 1,1,-1
 580 36 l 1,2,-1
 536 0 l 1,3,-1
 484 0 l 1,4,-1
 454 36 l 1,5,-1
 461 66 l 1,6,-1
 338 0 l 1,7,-1
 303 0 l 1,8,-1
 372 327 l 1,9,-1
 346 359 l 1,10,-1
 178 359 l 1,11,-1
 156 341 l 1,12,-1
 201 284 l 1,13,-1
 135 230 l 1,14,-1
 113 125 l 1,15,-1
 166 125 l 1,16,-1
 195 89 l 1,17,-1
 184 36 l 1,18,-1
 140 0 l 1,19,-1
 88 0 l 1,20,-1
 58 36 l 1,21,-1
 103 245 l 1,22,-1
 150 284 l 1,23,-1
 105 341 l 1,24,-1
 170 395 l 1,25,-1
 368 395 l 1,26,-1
 411 341 l 1,27,-1
 346 37 l 1,28,-1
 508 124 l 1,29,-1
 509 125 l 1,30,-1
 566 395 l 1,31,-1
 602 395 l 1,32,-1
 545 125 l 1,33,-1
 562 125 l 1,0,-1
121 94 m 1,34,-1
 98 76 l 1,35,-1
 92 49 l 1,36,-1
 107 31 l 1,37,-1
 133 31 l 1,38,-1
 155 49 l 1,39,-1
 161 76 l 1,40,-1
 147 94 l 1,41,-1
 121 94 l 1,34,-1
551 49 m 1,42,-1
 557 76 l 1,43,-1
 543 94 l 1,44,-1
 518 94 l 1,45,-1
 494 76 l 1,46,-1
 488 49 l 1,47,-1
 503 31 l 1,48,-1
 529 31 l 1,49,-1
 551 49 l 1,42,-1
EndSplineSet
EndChar
StartChar: uni0E14
Encoding: 3604 3604 230
Width: 401
Flags: W
Fore
379 395 m 1,0,-1
 422 341 l 1,1,-1
 350 0 l 1,2,-1
 314 0 l 1,3,-1
 383 327 l 1,4,-1
 357 359 l 1,5,-1
 189 359 l 1,6,-1
 149 326 l 1,7,-1
 89 44 l 1,8,-1
 208 144 l 1,9,-1
 201 144 l 1,10,-1
 172 180 l 1,11,-1
 183 233 l 1,12,-1
 228 269 l 1,13,-1
 280 269 l 1,14,-1
 309 233 l 1,15,-1
 298 180 l 1,16,-1
 80 0 l 1,17,-1
 44 0 l 1,18,-1
 116 341 l 1,19,-1
 181 395 l 1,20,-1
 379 395 l 1,0,-1
206 193 m 1,21,-1
 221 175 l 1,22,-1
 247 175 l 1,23,-1
 269 193 l 1,24,-1
 274 220 l 1,25,-1
 260 238 l 1,26,-1
 234 238 l 1,27,-1
 211 220 l 1,28,-1
 206 193 l 1,21,-1
EndSplineSet
EndChar
StartChar: uni0E15
Encoding: 3605 3605 231
Width: 400
Flags: W
Fore
378 395 m 1,0,-1
 420 341 l 1,1,-1
 348 0 l 1,2,-1
 312 0 l 1,3,-1
 381 327 l 1,4,-1
 356 359 l 1,5,-1
 326 359 l 1,6,-1
 260 305 l 1,7,-1
 217 359 l 1,8,-1
 188 359 l 1,9,-1
 148 326 l 1,10,-1
 88 44 l 1,11,-1
 207 144 l 1,12,-1
 199 144 l 1,13,-1
 171 180 l 1,14,-1
 182 233 l 1,15,-1
 226 269 l 1,16,-1
 279 269 l 1,17,-1
 307 233 l 1,18,-1
 296 180 l 1,19,-1
 79 0 l 1,20,-1
 43 0 l 1,21,-1
 115 341 l 1,22,-1
 180 395 l 1,23,-1
 239 395 l 1,24,-1
 271 356 l 1,25,-1
 318 395 l 1,26,-1
 378 395 l 1,0,-1
205 193 m 1,27,-1
 219 175 l 1,28,-1
 246 175 l 1,29,-1
 268 193 l 1,30,-1
 273 220 l 1,31,-1
 259 238 l 1,32,-1
 232 238 l 1,33,-1
 210 220 l 1,34,-1
 205 193 l 1,27,-1
EndSplineSet
EndChar
StartChar: uni0E16
Encoding: 3606 3606 232
Width: 387
Flags: W
Fore
369 396 m 1,0,-1
 410 342 l 1,1,-1
 337 0 l 1,2,-1
 302 0 l 1,3,-1
 372 327 l 1,4,-1
 346 360 l 1,5,-1
 178 360 l 1,6,-1
 156 342 l 1,7,-1
 201 285 l 1,8,-1
 136 231 l 1,9,-1
 113 126 l 1,10,-1
 166 126 l 1,11,-1
 195 89 l 1,12,-1
 184 37 l 1,13,-1
 139 0 l 1,14,-1
 87 0 l 1,15,-1
 58 37 l 1,16,-1
 103 246 l 1,17,-1
 150 285 l 1,18,-1
 105 342 l 1,19,-1
 171 396 l 1,20,-1
 369 396 l 1,0,-1
121 95 m 1,21,-1
 98 76 l 1,22,-1
 92 50 l 1,23,-1
 107 32 l 1,24,-1
 133 32 l 1,25,-1
 155 50 l 1,26,-1
 161 76 l 1,27,-1
 147 95 l 1,28,-1
 121 95 l 1,21,-1
EndSplineSet
EndChar
StartChar: uni0E17
Encoding: 3607 3607 233
Width: 446
Flags: W
Fore
427 396 m 1,0,-1
 469 342 l 1,1,-1
 396 0 l 1,2,-1
 360 0 l 1,3,-1
 430 327 l 1,4,-1
 404 360 l 1,5,-1
 383 360 l 1,6,-1
 145 0 l 1,7,-1
 108 0 l 1,8,-1
 166 271 l 1,9,-1
 165 270 l 1,10,-1
 113 270 l 1,11,-1
 84 307 l 1,12,-1
 95 359 l 1,13,-1
 140 396 l 1,14,-1
 192 396 l 1,15,-1
 221 359 l 1,16,-1
 161 76 l 1,17,-1
 373 396 l 1,18,-1
 427 396 l 1,0,-1
159 302 m 1,19,-1
 181 320 l 1,20,-1
 187 346 l 1,21,-1
 172 364 l 1,22,-1
 146 364 l 1,23,-1
 124 346 l 1,24,-1
 118 320 l 1,25,-1
 133 302 l 1,26,-1
 159 302 l 1,19,-1
EndSplineSet
EndChar
StartChar: uni0E18
Encoding: 3608 3608 234
Width: 371
Flags: W
Fore
397 360 m 1,0,-1
 178 360 l 1,1,-1
 140 329 l 1,2,-1
 378 270 l 1,3,-1
 332 54 l 1,4,-1
 266 0 l 1,5,-1
 104 0 l 1,6,-1
 62 54 l 1,7,-1
 104 252 l 1,8,-1
 140 252 l 1,9,-1
 101 69 l 1,10,-1
 127 36 l 1,11,-1
 259 36 l 1,12,-1
 299 69 l 1,13,-1
 337 247 l 1,14,-1
 97 306 l 1,15,-1
 105 342 l 1,16,-1
 171 396 l 1,17,-1
 405 396 l 1,18,-1
 397 360 l 1,0,-1
EndSplineSet
EndChar
StartChar: uni0E19
Encoding: 3609 3609 235
Width: 450
Flags: W
Fore
403 126 m 1,0,-1
 432 89 l 1,1,-1
 421 37 l 1,2,-1
 376 0 l 1,3,-1
 324 0 l 1,4,-1
 295 37 l 1,5,-1
 303 72 l 1,6,-1
 143 0 l 1,7,-1
 107 0 l 1,8,-1
 165 271 l 1,9,-1
 164 270 l 1,10,-1
 112 270 l 1,11,-1
 83 307 l 1,12,-1
 94 359 l 1,13,-1
 139 396 l 1,14,-1
 191 396 l 1,15,-1
 220 359 l 1,16,-1
 151 35 l 1,17,-1
 350 125 l 1,18,-1
 408 396 l 1,19,-1
 444 396 l 1,20,-1
 386 126 l 1,21,-1
 403 126 l 1,0,-1
157 301 m 1,22,-1
 180 320 l 1,23,-1
 186 346 l 1,24,-1
 171 364 l 1,25,-1
 145 364 l 1,26,-1
 123 346 l 1,27,-1
 117 320 l 1,28,-1
 131 301 l 1,29,-1
 157 301 l 1,22,-1
393 50 m 1,30,-1
 399 76 l 1,31,-1
 384 95 l 1,32,-1
 358 95 l 1,33,-1
 336 76 l 1,34,-1
 330 50 l 1,35,-1
 344 32 l 1,36,-1
 370 32 l 1,37,-1
 393 50 l 1,30,-1
EndSplineSet
EndChar
StartChar: uni0E1A
Encoding: 3610 3610 236
Width: 429
Flags: W
Fore
427 396 m 1,0,-1
 463 396 l 1,1,-1
 390 54 l 1,2,-1
 324 0 l 1,3,-1
 162 0 l 1,4,-1
 120 54 l 1,5,-1
 166 271 l 1,6,-1
 165 270 l 1,7,-1
 113 270 l 1,8,-1
 84 307 l 1,9,-1
 95 359 l 1,10,-1
 140 396 l 1,11,-1
 192 396 l 1,12,-1
 221 359 l 1,13,-1
 159 69 l 1,14,-1
 185 36 l 1,15,-1
 317 36 l 1,16,-1
 357 69 l 1,17,-1
 427 396 l 1,0,-1
158 301 m 1,18,-1
 180 320 l 1,19,-1
 186 346 l 1,20,-1
 172 364 l 1,21,-1
 146 364 l 1,22,-1
 124 346 l 1,23,-1
 118 320 l 1,24,-1
 132 301 l 1,25,-1
 158 301 l 1,18,-1
EndSplineSet
EndChar
StartChar: uni0E1B
Encoding: 3611 3611 237
Width: 429
Flags: W
Fore
466 575 m 1,0,-1
 502 575 l 1,1,-1
 391 54 l 1,2,-1
 325 0 l 1,3,-1
 163 0 l 1,4,-1
 121 53 l 1,5,-1
 167 270 l 1,6,-1
 166 269 l 1,7,-1
 114 269 l 1,8,-1
 84 306 l 1,9,-1
 95 358 l 1,10,-1
 140 395 l 1,11,-1
 192 395 l 1,12,-1
 221 358 l 1,13,-1
 160 68 l 1,14,-1
 186 36 l 1,15,-1
 318 36 l 1,16,-1
 358 68 l 1,17,-1
 466 575 l 1,0,-1
159 301 m 1,18,-1
 181 319 l 1,19,-1
 187 345 l 1,20,-1
 173 364 l 1,21,-1
 147 364 l 1,22,-1
 124 345 l 1,23,-1
 118 319 l 1,24,-1
 133 301 l 1,25,-1
 159 301 l 1,18,-1
EndSplineSet
EndChar
StartChar: uni0E1C
Encoding: 3612 3612 238
Width: 399
Flags: W
Fore
433 396 m 1,0,-1
 348 0 l 1,1,-1
 312 0 l 1,2,-1
 224 133 l 1,3,-1
 78 0 l 1,4,-1
 43 0 l 1,5,-1
 119 359 l 1,6,-1
 164 396 l 1,7,-1
 216 396 l 1,8,-1
 245 359 l 1,9,-1
 234 307 l 1,10,-1
 189 270 l 1,11,-1
 137 270 l 1,12,-1
 136 271 l 1,13,-1
 89 48 l 1,14,-1
 234 180 l 1,15,-1
 323 48 l 1,16,-1
 397 396 l 1,17,-1
 433 396 l 1,0,-1
148 346 m 1,18,-1
 142 320 l 1,19,-1
 156 301 l 1,20,-1
 182 301 l 1,21,-1
 205 320 l 1,22,-1
 211 346 l 1,23,-1
 196 364 l 1,24,-1
 170 364 l 1,25,-1
 148 346 l 1,18,-1
EndSplineSet
EndChar
StartChar: uni0E1D
Encoding: 3613 3613 239
Width: 398
Flags: W
Fore
470 575 m 1,0,-1
 347 0 l 1,1,-1
 311 0 l 1,2,-1
 223 132 l 1,3,-1
 78 0 l 1,4,-1
 43 0 l 1,5,-1
 118 358 l 1,6,-1
 163 395 l 1,7,-1
 215 395 l 1,8,-1
 244 358 l 1,9,-1
 233 306 l 1,10,-1
 189 269 l 1,11,-1
 137 269 l 1,12,-1
 136 270 l 1,13,-1
 88 47 l 1,14,-1
 234 180 l 1,15,-1
 321 47 l 1,16,-1
 434 575 l 1,17,-1
 470 575 l 1,0,-1
147 345 m 1,18,-1
 141 319 l 1,19,-1
 156 301 l 1,20,-1
 182 301 l 1,21,-1
 204 319 l 1,22,-1
 210 345 l 1,23,-1
 196 364 l 1,24,-1
 170 364 l 1,25,-1
 147 345 l 1,18,-1
EndSplineSet
EndChar
StartChar: uni0E1E
Encoding: 3614 3614 240
Width: 465
Flags: W
Fore
462 395 m 1,0,-1
 498 395 l 1,1,-1
 415 0 l 1,2,-1
 379 0 l 1,3,-1
 327 307 l 1,4,-1
 145 0 l 1,5,-1
 109 0 l 1,6,-1
 166 270 l 1,7,-1
 165 269 l 1,8,-1
 113 269 l 1,9,-1
 84 306 l 1,10,-1
 95 358 l 1,11,-1
 139 395 l 1,12,-1
 191 395 l 1,13,-1
 221 358 l 1,14,-1
 163 88 l 1,15,-1
 345 395 l 1,16,-1
 397 87 l 1,17,-1
 462 395 l 1,0,-1
158 301 m 1,18,-1
 180 319 l 1,19,-1
 186 345 l 1,20,-1
 172 364 l 1,21,-1
 146 364 l 1,22,-1
 123 345 l 1,23,-1
 117 319 l 1,24,-1
 132 301 l 1,25,-1
 158 301 l 1,18,-1
EndSplineSet
EndChar
StartChar: uni0E1F
Encoding: 3615 3615 241
Width: 465
Flags: W
Fore
501 575 m 1,0,-1
 537 575 l 1,1,-1
 414 0 l 1,2,-1
 378 0 l 1,3,-1
 327 307 l 1,4,-1
 145 0 l 1,5,-1
 109 0 l 1,6,-1
 167 270 l 1,7,-1
 166 269 l 1,8,-1
 114 269 l 1,9,-1
 84 306 l 1,10,-1
 95 358 l 1,11,-1
 140 395 l 1,12,-1
 192 395 l 1,13,-1
 221 358 l 1,14,-1
 164 88 l 1,15,-1
 345 395 l 1,16,-1
 397 88 l 1,17,-1
 501 575 l 1,0,-1
159 301 m 1,18,-1
 181 319 l 1,19,-1
 187 345 l 1,20,-1
 173 364 l 1,21,-1
 147 364 l 1,22,-1
 124 345 l 1,23,-1
 118 319 l 1,24,-1
 133 301 l 1,25,-1
 159 301 l 1,18,-1
EndSplineSet
EndChar
StartChar: uni0E20
Encoding: 3616 3616 242
Width: 446
Flags: W
Fore
427 396 m 1,0,-1
 469 342 l 1,1,-1
 396 0 l 1,2,-1
 360 0 l 1,3,-1
 430 327 l 1,4,-1
 404 360 l 1,5,-1
 236 360 l 1,6,-1
 214 342 l 1,7,-1
 259 284 l 1,8,-1
 193 230 l 1,9,-1
 152 37 l 1,10,-1
 107 0 l 1,11,-1
 55 0 l 1,12,-1
 27 37 l 1,13,-1
 38 89 l 1,14,-1
 82 126 l 1,15,-1
 134 126 l 1,16,-1
 135 125 l 1,17,-1
 160 245 l 1,18,-1
 208 284 l 1,19,-1
 163 342 l 1,20,-1
 229 396 l 1,21,-1
 427 396 l 1,0,-1
124 50 m 1,22,-1
 130 76 l 1,23,-1
 114 94 l 1,24,-1
 88 94 l 1,25,-1
 67 76 l 1,26,-1
 61 50 l 1,27,-1
 75 31 l 1,28,-1
 101 31 l 1,29,-1
 124 50 l 1,22,-1
EndSplineSet
EndChar
StartChar: uni0E21
Encoding: 3617 3617 243
Width: 411
Flags: W
Fore
409 396 m 1,0,-1
 445 396 l 1,1,-1
 360 0 l 1,2,-1
 324 0 l 1,3,-1
 178 75 l 1,4,-1
 170 37 l 1,5,-1
 125 0 l 1,6,-1
 73 0 l 1,7,-1
 44 37 l 1,8,-1
 55 89 l 1,9,-1
 100 126 l 1,10,-1
 135 126 l 1,11,-1
 166 271 l 1,12,-1
 165 270 l 1,13,-1
 113 270 l 1,14,-1
 84 307 l 1,15,-1
 95 359 l 1,16,-1
 140 396 l 1,17,-1
 192 396 l 1,18,-1
 221 359 l 1,19,-1
 169 118 l 1,20,-1
 332 35 l 1,21,-1
 409 396 l 1,0,-1
158 301 m 1,22,-1
 181 320 l 1,23,-1
 187 346 l 1,24,-1
 172 364 l 1,25,-1
 146 364 l 1,26,-1
 124 346 l 1,27,-1
 118 320 l 1,28,-1
 132 301 l 1,29,-1
 158 301 l 1,22,-1
142 50 m 1,30,-1
 148 76 l 1,31,-1
 133 95 l 1,32,-1
 107 95 l 1,33,-1
 85 76 l 1,34,-1
 79 50 l 1,35,-1
 93 32 l 1,36,-1
 119 32 l 1,37,-1
 142 50 l 1,30,-1
EndSplineSet
EndChar
StartChar: uni0E22
Encoding: 3618 3618 244
Width: 390
Flags: W
Fore
389 396 m 1,0,-1
 425 396 l 1,1,-1
 352 54 l 1,2,-1
 286 0 l 1,3,-1
 106 0 l 1,4,-1
 64 54 l 1,5,-1
 82 141 l 1,6,-1
 130 180 l 1,7,-1
 85 237 l 1,8,-1
 111 359 l 1,9,-1
 156 396 l 1,10,-1
 208 396 l 1,11,-1
 237 359 l 1,12,-1
 226 307 l 1,13,-1
 181 270 l 1,14,-1
 129 270 l 1,15,-1
 128 271 l 1,16,-1
 124 252 l 1,17,-1
 181 180 l 1,18,-1
 115 126 l 1,19,-1
 103 69 l 1,20,-1
 129 36 l 1,21,-1
 279 36 l 1,22,-1
 319 69 l 1,23,-1
 389 396 l 1,0,-1
139 346 m 1,24,-1
 133 320 l 1,25,-1
 149 302 l 1,26,-1
 175 302 l 1,27,-1
 196 320 l 1,28,-1
 202 346 l 1,29,-1
 188 365 l 1,30,-1
 162 365 l 1,31,-1
 139 346 l 1,24,-1
EndSplineSet
EndChar
StartChar: uni0E23
Encoding: 3619 3619 245
Width: 318
Flags: W
Fore
177 359 m 1,0,-1
 137 326 l 1,1,-1
 134 312 l 1,2,-1
 323 269 l 1,3,-1
 323 269 l 1,4,-1
 273 36 l 1,5,-1
 229 0 l 1,6,-1
 177 0 l 1,7,-1
 147 36 l 1,8,-1
 158 89 l 1,9,-1
 203 125 l 1,10,-1
 255 125 l 1,11,-1
 256 125 l 1,12,-1
 282 245 l 1,13,-1
 93 287 l 1,14,-1
 104 341 l 1,15,-1
 169 395 l 1,16,-1
 367 395 l 1,17,-1
 360 359 l 1,18,-1
 177 359 l 1,0,-1
245 49 m 1,19,-1
 251 76 l 1,20,-1
 236 94 l 1,21,-1
 210 94 l 1,22,-1
 188 76 l 1,23,-1
 182 49 l 1,24,-1
 196 31 l 1,25,-1
 222 31 l 1,26,-1
 245 49 l 1,19,-1
EndSplineSet
EndChar
StartChar: uni0E24
Encoding: 3620 3620 246
Width: 389
Flags: W
Fore
368 396 m 1,0,-1
 410 342 l 1,1,-1
 299 -180 l 1,2,-1
 263 -180 l 1,3,-1
 371 327 l 1,4,-1
 345 360 l 1,5,-1
 177 360 l 1,6,-1
 155 342 l 1,7,-1
 200 284 l 1,8,-1
 134 230 l 1,9,-1
 112 125 l 1,10,-1
 113 126 l 1,11,-1
 165 126 l 1,12,-1
 194 89 l 1,13,-1
 183 37 l 1,14,-1
 139 0 l 1,15,-1
 87 0 l 1,16,-1
 57 37 l 1,17,-1
 102 245 l 1,18,-1
 149 284 l 1,19,-1
 104 342 l 1,20,-1
 170 396 l 1,21,-1
 368 396 l 1,0,-1
120 94 m 1,22,-1
 98 76 l 1,23,-1
 92 50 l 1,24,-1
 106 31 l 1,25,-1
 132 31 l 1,26,-1
 154 50 l 1,27,-1
 160 76 l 1,28,-1
 146 94 l 1,29,-1
 120 94 l 1,22,-1
EndSplineSet
EndChar
StartChar: uni0E25
Encoding: 3621 3621 247
Width: 389
Flags: W
Fore
370 396 m 1,0,-1
 412 342 l 1,1,-1
 339 0 l 1,2,-1
 303 0 l 1,3,-1
 335 147 l 1,4,-1
 266 234 l 1,5,-1
 170 234 l 1,6,-1
 130 201 l 1,7,-1
 114 125 l 1,8,-1
 115 126 l 1,9,-1
 167 126 l 1,10,-1
 196 89 l 1,11,-1
 185 37 l 1,12,-1
 140 0 l 1,13,-1
 88 0 l 1,14,-1
 59 37 l 1,15,-1
 97 216 l 1,16,-1
 163 270 l 1,17,-1
 289 270 l 1,18,-1
 346 198 l 1,19,-1
 373 327 l 1,20,-1
 347 360 l 1,21,-1
 179 360 l 1,22,-1
 139 327 l 1,23,-1
 134 306 l 1,24,-1
 98 306 l 1,25,-1
 106 342 l 1,26,-1
 172 396 l 1,27,-1
 370 396 l 1,0,-1
122 95 m 1,28,-1
 100 76 l 1,29,-1
 94 50 l 1,30,-1
 108 32 l 1,31,-1
 134 32 l 1,32,-1
 156 50 l 1,33,-1
 162 76 l 1,34,-1
 148 95 l 1,35,-1
 122 95 l 1,28,-1
EndSplineSet
EndChar
StartChar: uni0E26
Encoding: 3622 3622 248
Width: 447
Flags: W
Fore
427 395 m 1,0,-1
 469 341 l 1,1,-1
 358 -180 l 1,2,-1
 322 -180 l 1,3,-1
 430 327 l 1,4,-1
 404 359 l 1,5,-1
 236 359 l 1,6,-1
 214 341 l 1,7,-1
 259 284 l 1,8,-1
 194 230 l 1,9,-1
 152 36 l 1,10,-1
 108 0 l 1,11,-1
 56 0 l 1,12,-1
 26 36 l 1,13,-1
 38 89 l 1,14,-1
 82 125 l 1,15,-1
 134 125 l 1,16,-1
 135 125 l 1,17,-1
 161 245 l 1,18,-1
 208 284 l 1,19,-1
 163 341 l 1,20,-1
 229 395 l 1,21,-1
 427 395 l 1,0,-1
124 49 m 1,22,-1
 130 76 l 1,23,-1
 115 94 l 1,24,-1
 89 94 l 1,25,-1
 67 76 l 1,26,-1
 61 50 l 1,27,-1
 75 31 l 1,28,-1
 101 31 l 1,29,-1
 124 49 l 1,22,-1
EndSplineSet
EndChar
StartChar: uni0E27
Encoding: 3623 3623 249
Width: 353
Flags: W
Fore
333 396 m 1,0,-1
 375 342 l 1,1,-1
 310 37 l 1,2,-1
 265 0 l 1,3,-1
 213 0 l 1,4,-1
 184 37 l 1,5,-1
 195 89 l 1,6,-1
 240 126 l 1,7,-1
 292 126 l 1,8,-1
 293 125 l 1,9,-1
 336 327 l 1,10,-1
 310 360 l 1,11,-1
 178 360 l 1,12,-1
 138 327 l 1,13,-1
 133 306 l 1,14,-1
 97 306 l 1,15,-1
 105 342 l 1,16,-1
 171 396 l 1,17,-1
 333 396 l 1,0,-1
282 50 m 1,18,-1
 288 76 l 1,19,-1
 273 95 l 1,20,-1
 247 95 l 1,21,-1
 225 76 l 1,22,-1
 219 50 l 1,23,-1
 233 32 l 1,24,-1
 259 32 l 1,25,-1
 282 50 l 1,18,-1
EndSplineSet
EndChar
StartChar: uni0E28
Encoding: 3624 3624 250
Width: 400
Flags: W
Fore
397 374 m 1,0,-1
 421 342 l 1,1,-1
 349 0 l 1,2,-1
 313 0 l 1,3,-1
 382 327 l 1,4,-1
 357 360 l 1,5,-1
 188 360 l 1,6,-1
 149 327 l 1,7,-1
 118 179 l 1,8,-1
 227 270 l 1,9,-1
 280 270 l 1,10,-1
 308 233 l 1,11,-1
 297 181 l 1,12,-1
 253 144 l 1,13,-1
 200 144 l 1,14,-1
 172 181 l 1,15,-1
 174 189 l 1,16,-1
 108 135 l 1,17,-1
 80 0 l 1,18,-1
 45 0 l 1,19,-1
 116 342 l 1,20,-1
 182 396 l 1,21,-1
 379 396 l 1,22,-1
 444 450 l 1,23,-1
 463 428 l 1,24,-1
 397 374 l 1,0,-1
274 220 m 1,25,-1
 260 239 l 1,26,-1
 233 239 l 1,27,-1
 211 220 l 1,28,-1
 206 194 l 1,29,-1
 220 176 l 1,30,-1
 247 176 l 1,31,-1
 269 194 l 1,32,-1
 274 220 l 1,25,-1
EndSplineSet
EndChar
StartChar: uni0E29
Encoding: 3625 3625 251
Width: 429
Flags: W
Fore
425 395 m 1,0,-1
 461 395 l 1,1,-1
 389 54 l 1,2,-1
 324 0 l 1,3,-1
 162 0 l 1,4,-1
 120 53 l 1,5,-1
 166 270 l 1,6,-1
 165 269 l 1,7,-1
 113 269 l 1,8,-1
 84 306 l 1,9,-1
 95 358 l 1,10,-1
 139 395 l 1,11,-1
 191 395 l 1,12,-1
 221 358 l 1,13,-1
 159 68 l 1,14,-1
 184 36 l 1,15,-1
 316 36 l 1,16,-1
 356 68 l 1,17,-1
 372 143 l 1,18,-1
 247 143 l 1,19,-1
 219 180 l 1,20,-1
 230 233 l 1,21,-1
 274 269 l 1,22,-1
 327 269 l 1,23,-1
 355 233 l 1,24,-1
 344 180 l 1,25,-1
 338 175 l 1,26,-1
 379 175 l 1,27,-1
 425 395 l 1,0,-1
294 175 m 1,28,-1
 316 193 l 1,29,-1
 321 219 l 1,30,-1
 307 238 l 1,31,-1
 280 238 l 1,32,-1
 258 219 l 1,33,-1
 253 193 l 1,34,-1
 267 175 l 1,35,-1
 294 175 l 1,28,-1
158 301 m 1,36,-1
 180 319 l 1,37,-1
 186 345 l 1,38,-1
 172 364 l 1,39,-1
 146 364 l 1,40,-1
 123 345 l 1,41,-1
 117 319 l 1,42,-1
 132 301 l 1,43,-1
 158 301 l 1,36,-1
EndSplineSet
EndChar
StartChar: uni0E2A
Encoding: 3626 3626 252
Width: 389
Flags: W
Fore
386 373 m 1,0,-1
 410 341 l 1,1,-1
 338 0 l 1,2,-1
 302 0 l 1,3,-1
 333 147 l 1,4,-1
 265 233 l 1,5,-1
 169 233 l 1,6,-1
 130 201 l 1,7,-1
 113 125 l 1,8,-1
 115 126 l 1,9,-1
 167 126 l 1,10,-1
 196 89 l 1,11,-1
 185 37 l 1,12,-1
 140 0 l 1,13,-1
 88 0 l 1,14,-1
 59 37 l 1,15,-1
 96 215 l 1,16,-1
 162 269 l 1,17,-1
 288 269 l 1,18,-1
 344 197 l 1,19,-1
 371 327 l 1,20,-1
 346 359 l 1,21,-1
 178 359 l 1,22,-1
 138 326 l 1,23,-1
 134 305 l 1,24,-1
 98 305 l 1,25,-1
 105 341 l 1,26,-1
 171 395 l 1,27,-1
 369 395 l 1,28,-1
 434 449 l 1,29,-1
 452 427 l 1,30,-1
 386 373 l 1,0,-1
121 94 m 1,31,-1
 98 76 l 1,32,-1
 92 50 l 1,33,-1
 107 31 l 1,34,-1
 133 31 l 1,35,-1
 155 50 l 1,36,-1
 161 76 l 1,37,-1
 147 94 l 1,38,-1
 121 94 l 1,31,-1
EndSplineSet
EndChar
StartChar: uni0E2B
Encoding: 3627 3627 253
Width: 447
Flags: W
Fore
462 307 m 1,0,-1
 417 270 l 1,1,-1
 446 233 l 1,2,-1
 396 0 l 1,3,-1
 360 0 l 1,4,-1
 407 218 l 1,5,-1
 383 248 l 1,6,-1
 144 0 l 1,7,-1
 108 0 l 1,8,-1
 166 271 l 1,9,-1
 166 270 l 1,10,-1
 113 270 l 1,11,-1
 84 307 l 1,12,-1
 95 359 l 1,13,-1
 140 396 l 1,14,-1
 193 396 l 1,15,-1
 221 359 l 1,16,-1
 156 53 l 1,17,-1
 365 270 l 1,18,-1
 336 307 l 1,19,-1
 347 359 l 1,20,-1
 392 396 l 1,21,-1
 444 396 l 1,22,-1
 473 359 l 1,23,-1
 462 307 l 1,0,-1
158 301 m 1,24,-1
 181 320 l 1,25,-1
 187 346 l 1,26,-1
 172 364 l 1,27,-1
 146 364 l 1,28,-1
 124 346 l 1,29,-1
 118 320 l 1,30,-1
 132 301 l 1,31,-1
 158 301 l 1,24,-1
370 320 m 1,32,-1
 384 301 l 1,33,-1
 410 301 l 1,34,-1
 433 320 l 1,35,-1
 439 346 l 1,36,-1
 424 364 l 1,37,-1
 398 364 l 1,38,-1
 376 346 l 1,39,-1
 370 320 l 1,32,-1
EndSplineSet
EndChar
StartChar: uni0E2C
Encoding: 3628 3628 254
Width: 447
Flags: W
Fore
531 415 m 1,0,-1
 549 393 l 1,1,-1
 466 325 l 1,2,-1
 397 0 l 1,3,-1
 361 0 l 1,4,-1
 294 189 l 1,5,-1
 145 0 l 1,6,-1
 109 0 l 1,7,-1
 167 271 l 1,8,-1
 166 270 l 1,9,-1
 114 270 l 1,10,-1
 85 307 l 1,11,-1
 96 359 l 1,12,-1
 141 396 l 1,13,-1
 193 396 l 1,14,-1
 222 359 l 1,15,-1
 159 64 l 1,16,-1
 307 252 l 1,17,-1
 375 64 l 1,18,-1
 423 289 l 1,19,-1
 422 288 l 1,20,-1
 370 288 l 1,21,-1
 340 325 l 1,22,-1
 352 377 l 1,23,-1
 396 414 l 1,24,-1
 448 414 l 1,25,-1
 478 377 l 1,26,-1
 476 369 l 1,27,-1
 531 415 l 1,0,-1
160 302 m 1,28,-1
 182 320 l 1,29,-1
 188 346 l 1,30,-1
 173 365 l 1,31,-1
 147 365 l 1,32,-1
 125 346 l 1,33,-1
 119 320 l 1,34,-1
 134 302 l 1,35,-1
 160 302 l 1,28,-1
415 320 m 1,36,-1
 437 338 l 1,37,-1
 443 364 l 1,38,-1
 429 383 l 1,39,-1
 403 383 l 1,40,-1
 380 364 l 1,41,-1
 374 338 l 1,42,-1
 389 320 l 1,43,-1
 415 320 l 1,36,-1
EndSplineSet
Substitution: 0 65534 'L026' uni0E2C.alt1
Substitution: 0 65534 'L026' uni0E2C.alt1
EndChar
StartChar: uni0E2D
Encoding: 3629 3629 255
Width: 390
Flags: W
Fore
368 395 m 1,0,-1
 411 341 l 1,1,-1
 350 54 l 1,2,-1
 285 0 l 1,3,-1
 105 0 l 1,4,-1
 62 54 l 1,5,-1
 100 233 l 1,6,-1
 145 269 l 1,7,-1
 197 269 l 1,8,-1
 226 233 l 1,9,-1
 215 180 l 1,10,-1
 170 144 l 1,11,-1
 118 144 l 1,12,-1
 117 144 l 1,13,-1
 101 68 l 1,14,-1
 127 36 l 1,15,-1
 277 36 l 1,16,-1
 317 69 l 1,17,-1
 372 327 l 1,18,-1
 346 359 l 1,19,-1
 178 359 l 1,20,-1
 138 326 l 1,21,-1
 133 305 l 1,22,-1
 97 305 l 1,23,-1
 105 341 l 1,24,-1
 170 395 l 1,25,-1
 368 395 l 1,0,-1
128 220 m 1,26,-1
 123 193 l 1,27,-1
 138 175 l 1,28,-1
 164 175 l 1,29,-1
 186 193 l 1,30,-1
 191 220 l 1,31,-1
 177 238 l 1,32,-1
 151 238 l 1,33,-1
 128 220 l 1,26,-1
EndSplineSet
EndChar
StartChar: uni0E2E
Encoding: 3630 3630 256
Width: 390
Flags: W
Fore
452 428 m 1,0,-1
 386 374 l 1,1,-1
 411 342 l 1,2,-1
 350 54 l 1,3,-1
 285 0 l 1,4,-1
 105 0 l 1,5,-1
 62 54 l 1,6,-1
 93 197 l 1,7,-1
 137 234 l 1,8,-1
 189 234 l 1,9,-1
 219 197 l 1,10,-1
 207 145 l 1,11,-1
 163 108 l 1,12,-1
 111 108 l 1,13,-1
 110 109 l 1,14,-1
 101 69 l 1,15,-1
 127 36 l 1,16,-1
 277 36 l 1,17,-1
 317 69 l 1,18,-1
 372 327 l 1,19,-1
 356 348 l 1,20,-1
 261 270 l 1,21,-1
 126 270 l 1,22,-1
 98 306 l 1,23,-1
 109 360 l 1,24,-1
 153 396 l 1,25,-1
 369 396 l 1,26,-1
 434 450 l 1,27,-1
 452 428 l 1,0,-1
121 184 m 1,28,-1
 115 158 l 1,29,-1
 130 140 l 1,30,-1
 156 140 l 1,31,-1
 178 158 l 1,32,-1
 184 184 l 1,33,-1
 170 203 l 1,34,-1
 144 203 l 1,35,-1
 121 184 l 1,28,-1
325 360 m 1,36,-1
 160 360 l 1,37,-1
 142 345 l 1,38,-1
 137 321 l 1,39,-1
 149 306 l 1,40,-1
 260 306 l 1,41,-1
 325 360 l 1,36,-1
EndSplineSet
EndChar
StartChar: uni0E2F
Encoding: 3631 3631 257
Width: 321
Flags: W
Fore
320 396 m 1,0,-1
 356 396 l 1,1,-1
 271 0 l 1,2,-1
 235 0 l 1,3,-1
 304 324 l 1,4,-1
 239 270 l 1,5,-1
 114 270 l 1,6,-1
 85 307 l 1,7,-1
 96 359 l 1,8,-1
 141 396 l 1,9,-1
 193 396 l 1,10,-1
 222 359 l 1,11,-1
 211 307 l 1,12,-1
 209 306 l 1,13,-1
 231 306 l 1,14,-1
 315 375 l 1,15,-1
 320 396 l 1,0,-1
134 302 m 1,16,-1
 160 302 l 1,17,-1
 182 320 l 1,18,-1
 188 346 l 1,19,-1
 173 365 l 1,20,-1
 147 365 l 1,21,-1
 125 346 l 1,22,-1
 119 320 l 1,23,-1
 134 302 l 1,16,-1
EndSplineSet
EndChar
StartChar: uni0E30
Encoding: 3632 3632 258
Width: 321
Flags: W
Fore
98 301 m 1,0,-1
 108 346 l 1,1,-1
 147 377 l 1,2,-1
 191 377 l 1,3,-1
 216 346 l 1,4,-1
 216 345 l 1,5,-1
 207 305 l 1,6,-1
 256 305 l 1,7,-1
 321 359 l 1,8,-1
 341 334 l 1,9,-1
 263 269 l 1,10,-1
 124 269 l 1,11,-1
 98 301 l 1,0,-1
137 333 m 1,12,-1
 133 314 l 1,13,-1
 143 301 l 1,14,-1
 161 301 l 1,15,-1
 178 314 l 1,16,-1
 182 333 l 1,17,-1
 171 346 l 1,18,-1
 153 346 l 1,19,-1
 137 333 l 1,12,-1
41 32 m 1,20,-1
 51 77 l 1,21,-1
 89 108 l 1,22,-1
 133 108 l 1,23,-1
 159 77 l 1,24,-1
 159 76 l 1,25,-1
 150 36 l 1,26,-1
 199 36 l 1,27,-1
 264 90 l 1,28,-1
 284 65 l 1,29,-1
 205 0 l 1,30,-1
 66 0 l 1,31,-1
 41 32 l 1,20,-1
76 45 m 1,32,-1
 86 32 l 1,33,-1
 104 32 l 1,34,-1
 121 45 l 1,35,-1
 125 64 l 1,36,-1
 114 77 l 1,37,-1
 96 77 l 1,38,-1
 80 64 l 1,39,-1
 76 45 l 1,32,-1
EndSplineSet
EndChar
StartChar: uni0E31
Encoding: 3633 3633 259
Width: 0
Flags: W
Fore
148 545 m 1,0,-1
 166 523 l 1,1,2
 147 504 147 504 124.5 488.5 c 128,-1,3
 102 473 102 473 82 455 c 1,4,-1
 -109 455 l 1,5,-1
 -134 486 l 1,6,-1
 -124 531 l 1,7,-1
 -86 563 l 1,8,-1
 -41 563 l 1,9,-1
 -16 531 l 1,10,-1
 -26 487 l 1,11,-1
 77 486 l 1,12,-1
 148 545 l 1,0,-1
-89 486 m 1,13,-1
 -70 486 l 1,14,-1
 -55 500 l 1,15,-1
 -51 518 l 1,16,-1
 -61 531 l 1,17,-1
 -80 531 l 1,18,-1
 -96 518 l 1,19,-1
 -99 500 l 1,20,-1
 -89 486 l 1,13,-1
EndSplineSet
Substitution: 0 65534 'L026' uni0E31.alt1
Substitution: 0 65534 'L026' uni0E31.alt1
EndChar
StartChar: uni0E32
Encoding: 3634 3634 260
Width: 353
Flags: W
Fore
331 395 m 1,0,-1
 374 342 l 1,1,-1
 302 0 l 1,2,-1
 266 0 l 1,3,-1
 335 327 l 1,4,-1
 309 359 l 1,5,-1
 177 359 l 1,6,-1
 137 327 l 1,7,-1
 132 305 l 1,8,-1
 96 305 l 1,9,-1
 104 341 l 1,10,-1
 169 395 l 1,11,-1
 331 395 l 1,0,-1
EndSplineSet
EndChar
StartChar: uni0E33
Encoding: 3635 3635 261
Width: 353
Flags: W
Fore
-16 581 m 1,0,-1
 37 581 l 1,1,-1
 64 544 l 1,2,-1
 54 492 l 1,3,-1
 10 455 l 1,4,-1
 -43 455 l 1,5,-1
 -71 492 l 1,6,-1
 -60 544 l 1,7,-1
 -16 581 l 1,0,-1
26 505 m 1,8,-1
 32 531 l 1,9,-1
 17 549 l 1,10,-1
 -10 549 l 1,11,-1
 -31 531 l 1,12,-1
 -37 505 l 1,13,-1
 -23 486 l 1,14,-1
 4 486 l 1,15,-1
 26 505 l 1,8,-1
331 395 m 1,16,-1
 374 342 l 1,17,-1
 302 0 l 1,18,-1
 266 0 l 1,19,-1
 335 327 l 1,20,-1
 309 359 l 1,21,-1
 177 359 l 1,22,-1
 137 327 l 1,23,-1
 132 305 l 1,24,-1
 96 305 l 1,25,-1
 104 341 l 1,26,-1
 169 395 l 1,27,-1
 331 395 l 1,16,-1
EndSplineSet
Substitution: 0 65534 'L026' uni0E33.alt1
Substitution: 0 65534 'L026' uni0E33.alt1
EndChar
StartChar: uni0E34
Encoding: 3636 3636 262
Width: 0
Flags: W
Fore
15 563 m 1,0,-1
 57 509 l 1,1,-1
 46 455 l 1,2,-1
 -241 455 l 1,3,-1
 -229 510 l 1,4,-1
 -165 563 l 1,5,-1
 15 563 l 1,0,-1
-203 487 m 1,6,-1
 22 487 l 1,7,-1
 24 496 l 1,8,9
 17 505 17 505 10 514.5 c 128,-1,10
 3 524 3 524 -5 532 c 1,11,-1
 -159 532 l 1,12,13
 -169 524 -169 524 -180 514.5 c 128,-1,14
 -191 505 -191 505 -201 497 c 1,15,-1
 -203 487 l 1,6,-1
EndSplineSet
Substitution: 0 65534 'L026' uni0E34.alt1
Substitution: 0 65534 'L026' uni0E34.alt1
EndChar
StartChar: uni0E35
Encoding: 3637 3637 263
Width: 0
Flags: W
Fore
49 617 m 1,0,-1
 80 617 l 1,1,-1
 45 455 l 1,2,-1
 -242 455 l 1,3,-1
 -230 509 l 1,4,-1
 -166 563 l 1,5,-1
 15 563 l 1,6,-1
 32 540 l 1,7,-1
 49 617 l 1,0,-1
-204 486 m 1,8,-1
 21 486 l 1,9,-1
 23 496 l 1,10,11
 16 504 16 504 9 513.5 c 128,-1,12
 2 523 2 523 -5 531 c 1,13,-1
 -160 531 l 1,14,15
 -170 523 -170 523 -181 513.5 c 128,-1,16
 -192 504 -192 504 -202 496 c 1,17,-1
 -204 486 l 1,8,-1
EndSplineSet
Substitution: 0 65534 'L026' uni0E35.alt1
Substitution: 0 65534 'L026' uni0E35.alt1
EndChar
StartChar: uni0E36
Encoding: 3638 3638 264
Width: 0
Flags: W
Fore
95 540 m 1,0,-1
 57 509 l 1,1,-1
 57 508 l 1,2,-1
 45 455 l 1,3,-1
 -242 455 l 1,4,-1
 -230 509 l 1,5,-1
 -166 563 l 1,6,-1
 -8 563 l 1,7,-1
 -3 585 l 1,8,-1
 36 616 l 1,9,-1
 80 616 l 1,10,-1
 105 585 l 1,11,-1
 95 540 l 1,0,-1
21 486 m 1,12,-1
 23 496 l 1,13,14
 9 513 9 513 -4 531 c 1,15,-1
 -159 531 l 1,16,17
 -182 513 -182 513 -202 496 c 1,18,-1
 -204 486 l 1,19,-1
 21 486 l 1,12,-1
50 540 m 1,20,-1
 66 553 l 1,21,-1
 70 572 l 1,22,-1
 60 585 l 1,23,-1
 42 585 l 1,24,-1
 26 572 l 1,25,-1
 22 554 l 1,26,27
 24 550 24 550 27 547 c 128,-1,28
 30 544 30 544 32 540 c 1,29,-1
 50 540 l 1,20,-1
EndSplineSet
Substitution: 0 65534 'L026' uni0E36.alt1
Substitution: 0 65534 'L026' uni0E36.alt1
EndChar
StartChar: uni0E37
Encoding: 3639 3639 265
Width: 0
Flags: W
Fore
48 616 m 1,0,-1
 80 616 l 1,1,-1
 45 454 l 1,2,-1
 -243 454 l 1,3,-1
 -231 509 l 1,4,-1
 -166 562 l 1,5,-1
 -36 562 l 1,6,-1
 -24 616 l 1,7,-1
 8 616 l 1,8,-1
 -4 562 l 1,9,-1
 14 562 l 1,10,-1
 32 540 l 1,11,-1
 48 616 l 1,0,-1
-205 486 m 1,12,-1
 20 486 l 1,13,-1
 22 495 l 1,14,15
 15 503 15 503 8 513 c 128,-1,16
 1 523 1 523 -5 531 c 1,17,-1
 -159 531 l 1,18,19
 -170 523 -170 523 -181 513.5 c 128,-1,20
 -192 504 -192 504 -203 496 c 1,21,-1
 -205 486 l 1,12,-1
EndSplineSet
Substitution: 0 65534 'L026' uni0E37.alt1
Substitution: 0 65534 'L026' uni0E37.alt1
EndChar
StartChar: uni0E38
Encoding: 3640 3640 266
Width: 0
Flags: W
Fore
-100 -227 m 1,0,-1
 -136 -227 l 1,1,-1
 -116 -137 l 1,2,-1
 -157 -137 l 1,3,-1
 -182 -105 l 1,4,-1
 -172 -60 l 1,5,-1
 -134 -29 l 1,6,-1
 -89 -29 l 1,7,-1
 -64 -60 l 1,8,-1
 -100 -227 l 1,0,-1
-138 -105 m 1,9,-1
 -119 -105 l 1,10,-1
 -103 -92 l 1,11,-1
 -99 -74 l 1,12,-1
 -109 -60 l 1,13,-1
 -128 -60 l 1,14,-1
 -144 -74 l 1,15,-1
 -148 -92 l 1,16,-1
 -138 -105 l 1,9,-1
EndSplineSet
Substitution: 0 65534 'L027' a
Substitution: 0 65534 'L026' uni0E38.alt1
Substitution: 0 65534 'L027' a
Substitution: 0 65534 'L026' uni0E38.alt1
EndChar
StartChar: uni0E39
Encoding: 3641 3641 267
Width: 0
Flags: W
Fore
-93 -29 m 1,0,-1
 -57 -29 l 1,1,-1
 -98 -226 l 1,2,-1
 -224 -226 l 1,3,-1
 -205 -136 l 1,4,-1
 -246 -136 l 1,5,-1
 -271 -105 l 1,6,-1
 -261 -60 l 1,7,-1
 -223 -29 l 1,8,-1
 -179 -29 l 1,9,-1
 -153 -60 l 1,10,-1
 -181 -190 l 1,11,-1
 -127 -190 l 1,12,-1
 -93 -29 l 1,0,-1
-227 -105 m 1,13,-1
 -208 -105 l 1,14,-1
 -192 -92 l 1,15,-1
 -188 -73 l 1,16,-1
 -198 -60 l 1,17,-1
 -217 -60 l 1,18,-1
 -233 -73 l 1,19,-1
 -237 -92 l 1,20,-1
 -227 -105 l 1,13,-1
EndSplineSet
Substitution: 0 65534 'L027' b
Substitution: 0 65534 'L026' uni0E39.alt1
Substitution: 0 65534 'L027' b
Substitution: 0 65534 'L026' uni0E39.alt1
EndChar
StartChar: uni0E3A
Encoding: 3642 3642 268
Width: 0
Flags: W
Fore
-62 -50 m 1,0,-1
 -68 -79 l 1,1,-1
 -94 -101 l 1,2,-1
 -124 -101 l 1,3,-1
 -140 -79 l 1,4,-1
 -134 -50 l 1,5,-1
 -109 -29 l 1,6,-1
 -79 -29 l 1,7,-1
 -62 -50 l 1,0,-1
EndSplineSet
Substitution: 0 65534 'L027' c
Substitution: 0 65534 'L026' uni0E3A.alt1
Substitution: 0 65534 'L027' c
Substitution: 0 65534 'L026' uni0E3A.alt1
EndChar
StartChar: uni0E3F
Encoding: 3647 3647 269
Width: 354
Flags: W
Fore
304 225 m 1,0,-1
 340 180 l 1,1,-1
 313 54 l 1,2,-1
 248 0 l 1,3,-1
 167 0 l 1,4,-1
 159 -36 l 1,5,-1
 123 -36 l 1,6,-1
 131 0 l 1,7,-1
 33 0 l 1,8,-1
 123 432 l 1,9,-1
 222 432 l 1,10,-1
 230 468 l 1,11,-1
 266 468 l 1,12,-1
 258 432 l 1,13,-1
 321 432 l 1,14,-1
 364 378 l 1,15,-1
 337 252 l 1,16,-1
 304 225 l 1,0,-1
299 396 m 1,17,-1
 251 396 l 1,18,-1
 216 234 l 1,19,-1
 264 234 l 1,20,-1
 304 267 l 1,21,-1
 325 363 l 1,22,-1
 299 396 l 1,17,-1
152 396 m 1,23,-1
 117 234 l 1,24,-1
 180 234 l 1,25,-1
 215 396 l 1,26,-1
 152 396 l 1,23,-1
75 36 m 1,27,-1
 138 36 l 1,28,-1
 173 198 l 1,29,-1
 110 198 l 1,30,-1
 75 36 l 1,27,-1
280 69 m 1,31,-1
 301 165 l 1,32,-1
 275 198 l 1,33,-1
 209 198 l 1,34,-1
 174 36 l 1,35,-1
 240 36 l 1,36,-1
 280 69 l 1,31,-1
EndSplineSet
EndChar
StartChar: uni0E40
Encoding: 3648 3648 270
Width: 182
Flags: W
Fore
148 126 m 1,0,-1
 178 90 l 1,1,-1
 166 37 l 1,2,-1
 121 0 l 1,3,-1
 69 0 l 1,4,-1
 41 37 l 1,5,-1
 117 396 l 1,6,-1
 153 396 l 1,7,-1
 95 125 l 1,8,-1
 96 126 l 1,9,-1
 148 126 l 1,0,-1
137 50 m 1,10,-1
 143 76 l 1,11,-1
 129 95 l 1,12,-1
 103 95 l 1,13,-1
 81 76 l 1,14,-1
 75 50 l 1,15,-1
 89 32 l 1,16,-1
 115 32 l 1,17,-1
 137 50 l 1,10,-1
EndSplineSet
EndChar
StartChar: uni0E41
Encoding: 3649 3649 271
Width: 344
Flags: W
Fore
96 126 m 1,0,-1
 149 126 l 1,1,-1
 177 89 l 1,2,-1
 166 37 l 1,3,-1
 122 0 l 1,4,-1
 69 0 l 1,5,-1
 42 37 l 1,6,-1
 118 396 l 1,7,-1
 154 396 l 1,8,-1
 96 125 l 1,9,-1
 96 126 l 1,0,-1
138 50 m 1,10,-1
 144 76 l 1,11,-1
 129 94 l 1,12,-1
 102 94 l 1,13,-1
 81 76 l 1,14,-1
 75 50 l 1,15,-1
 89 31 l 1,16,-1
 116 31 l 1,17,-1
 138 50 l 1,10,-1
310 126 m 1,18,-1
 339 89 l 1,19,-1
 328 37 l 1,20,-1
 283 0 l 1,21,-1
 231 0 l 1,22,-1
 202 37 l 1,23,-1
 279 396 l 1,24,-1
 315 396 l 1,25,-1
 257 125 l 1,26,-1
 258 126 l 1,27,-1
 310 126 l 1,18,-1
300 50 m 1,28,-1
 306 76 l 1,29,-1
 290 94 l 1,30,-1
 264 94 l 1,31,-1
 243 76 l 1,32,-1
 237 50 l 1,33,-1
 251 31 l 1,34,-1
 277 31 l 1,35,-1
 300 50 l 1,28,-1
EndSplineSet
EndChar
StartChar: uni0E42
Encoding: 3650 3650 272
Width: 292
Flags: W
Fore
258 126 m 1,0,-1
 287 89 l 1,1,-1
 276 37 l 1,2,-1
 231 0 l 1,3,-1
 179 0 l 1,4,-1
 150 37 l 1,5,-1
 242 466 l 1,6,-1
 93 531 l 1,7,-1
 99 558 l 1,8,-1
 165 612 l 1,9,-1
 327 612 l 1,10,-1
 319 576 l 1,11,-1
 172 576 l 1,12,-1
 139 548 l 1,13,-1
 282 486 l 1,14,-1
 205 125 l 1,15,-1
 206 126 l 1,16,-1
 258 126 l 1,0,-1
248 50 m 1,17,-1
 254 76 l 1,18,-1
 239 95 l 1,19,-1
 213 95 l 1,20,-1
 191 76 l 1,21,-1
 185 50 l 1,22,-1
 199 32 l 1,23,-1
 225 32 l 1,24,-1
 248 50 l 1,17,-1
EndSplineSet
EndChar
StartChar: uni0E43
Encoding: 3651 3651 273
Width: 293
Flags: W
Fore
258 126 m 1,0,-1
 287 89 l 1,1,-1
 276 37 l 1,2,-1
 232 0 l 1,3,-1
 180 0 l 1,4,-1
 150 37 l 1,5,-1
 258 543 l 1,6,-1
 232 576 l 1,7,-1
 172 576 l 1,8,-1
 150 558 l 1,9,-1
 188 558 l 1,10,-1
 217 521 l 1,11,-1
 206 469 l 1,12,-1
 161 432 l 1,13,-1
 109 432 l 1,14,-1
 80 469 l 1,15,-1
 99 557 l 1,16,-1
 164 611 l 1,17,-1
 254 611 l 1,18,-1
 297 558 l 1,19,-1
 205 125 l 1,20,-1
 206 126 l 1,21,-1
 258 126 l 1,0,-1
183 508 m 1,22,-1
 168 526 l 1,23,-1
 142 526 l 1,24,-1
 120 508 l 1,25,-1
 114 482 l 1,26,-1
 129 463 l 1,27,-1
 155 463 l 1,28,-1
 177 482 l 1,29,-1
 183 508 l 1,22,-1
247 50 m 1,30,-1
 253 76 l 1,31,-1
 239 94 l 1,32,-1
 213 94 l 1,33,-1
 190 76 l 1,34,-1
 184 50 l 1,35,-1
 199 31 l 1,36,-1
 225 31 l 1,37,-1
 247 50 l 1,30,-1
EndSplineSet
EndChar
StartChar: uni0E44
Encoding: 3652 3652 274
Width: 292
Flags: W
Fore
259 126 m 1,0,-1
 287 89 l 1,1,-1
 276 37 l 1,2,-1
 232 0 l 1,3,-1
 179 0 l 1,4,-1
 151 37 l 1,5,-1
 262 560 l 1,6,-1
 193 503 l 1,7,-1
 137 575 l 1,8,-1
 104 575 l 1,9,-1
 111 611 l 1,10,-1
 159 611 l 1,11,-1
 204 554 l 1,12,-1
 274 612 l 1,13,-1
 310 612 l 1,14,-1
 206 125 l 1,15,-1
 206 126 l 1,16,-1
 259 126 l 1,0,-1
248 50 m 1,17,-1
 254 76 l 1,18,-1
 239 94 l 1,19,-1
 212 94 l 1,20,-1
 191 76 l 1,21,-1
 185 50 l 1,22,-1
 199 31 l 1,23,-1
 226 31 l 1,24,-1
 248 50 l 1,17,-1
EndSplineSet
EndChar
StartChar: uni0E45
Encoding: 3653 3653 275
Width: 354
Flags: W
Fore
335 396 m 1,0,-1
 377 342 l 1,1,-1
 266 -179 l 1,2,-1
 230 -179 l 1,3,-1
 338 327 l 1,4,-1
 312 360 l 1,5,-1
 180 360 l 1,6,-1
 140 327 l 1,7,-1
 135 306 l 1,8,-1
 99 306 l 1,9,-1
 107 342 l 1,10,-1
 173 396 l 1,11,-1
 335 396 l 1,0,-1
EndSplineSet
EndChar
StartChar: uni0E46
Encoding: 3654 3654 276
Width: 338
Flags: W
Fore
318 395 m 1,0,-1
 360 341 l 1,1,-1
 249 -181 l 1,2,-1
 213 -181 l 1,3,-1
 321 326 l 1,4,-1
 295 359 l 1,5,-1
 283 359 l 1,6,-1
 239 323 l 1,7,-1
 211 359 l 1,8,-1
 181 359 l 1,9,-1
 141 326 l 1,10,-1
 140 323 l 1,11,-1
 142 324 l 1,12,-1
 194 324 l 1,13,-1
 223 287 l 1,14,-1
 211 234 l 1,15,-1
 167 197 l 1,16,-1
 115 197 l 1,17,-1
 86 235 l 1,18,-1
 108 341 l 1,19,-1
 174 395 l 1,20,-1
 234 395 l 1,21,-1
 250 374 l 1,22,-1
 276 395 l 1,23,-1
 318 395 l 1,0,-1
148 292 m 1,24,-1
 125 274 l 1,25,-1
 119 248 l 1,26,-1
 135 230 l 1,27,-1
 161 230 l 1,28,-1
 182 248 l 1,29,-1
 188 274 l 1,30,-1
 174 292 l 1,31,-1
 148 292 l 1,24,-1
EndSplineSet
EndChar
StartChar: uni0E47
Encoding: 3655 3655 277
Width: 0
Flags: W
Fore
61 529 m 1,0,-1
 52 485 l 1,1,-1
 15 455 l 1,2,-1
 -81 455 l 1,3,-1
 -102 482 l 1,4,-1
 -136 455 l 1,5,-1
 -171 455 l 1,6,-1
 -152 545 l 1,7,-1
 -87 599 l 1,8,-1
 26 599 l 1,9,-1
 70 635 l 1,10,-1
 88 613 l 1,11,12
 73 602 73 602 62 592 c 0,13,14
 52 584 52 584 43.5 577 c 128,-1,15
 35 570 35 570 33 568 c 1,16,-1
 33 567 l 1,17,-1
 -80 567 l 1,18,-1
 -123 532 l 1,19,-1
 -131 495 l 1,20,21
 -123 502 -123 502 -115 508 c 0,22,23
 -109 513 -109 513 -102.5 518.5 c 128,-1,24
 -96 524 -96 524 -93 527 c 1,25,26
 -91 524 -91 524 -85.5 517.5 c 128,-1,27
 -80 511 -80 511 -75 504 c 2,28,-1
 -61 486 l 1,29,-1
 -53 486 l 1,30,-1
 -44 528 l 1,31,-1
 -8 558 l 1,32,-1
 36 558 l 1,33,-1
 61 529 l 1,0,-1
26 515 m 1,34,-1
 17 527 l 1,35,-1
 0 527 l 1,36,-1
 -15 515 l 1,37,-1
 -19 498 l 1,38,39
 -15 494 -15 494 -9 486 c 1,40,-1
 8 486 l 1,41,-1
 23 498 l 1,42,-1
 26 515 l 1,34,-1
EndSplineSet
Substitution: 0 65534 'L026' uni0E47.alt1
Substitution: 0 65534 'L026' uni0E47.alt1
EndChar
StartChar: uni0E48
Encoding: 3656 3656 278
Width: 0
Flags: W
Fore
116 784 m 1,0,1
 116 783 116 783 113.5 772 c 128,-1,2
 111 761 111 761 107.5 745.5 c 128,-1,3
 104 730 104 730 100.5 712 c 128,-1,4
 97 694 97 694 93.5 678 c 128,-1,5
 90 662 90 662 87.5 651.5 c 128,-1,6
 85 641 85 641 85 640 c 1,7,-1
 54 640 l 1,8,9
 54 641 54 641 56 651.5 c 128,-1,10
 58 662 58 662 61.5 678 c 128,-1,11
 65 694 65 694 68.5 712 c 128,-1,12
 72 730 72 730 75.5 745.5 c 128,-1,13
 79 761 79 761 81.5 772 c 128,-1,14
 84 783 84 783 84 784 c 1,15,-1
 116 784 l 1,0,1
EndSplineSet
Substitution: 0 65534 'L026' uni0E48.alt2
Substitution: 0 65534 'L026' uni0E48.alt2
EndChar
StartChar: uni0E49
Encoding: 3657 3657 279
Width: 0
Flags: W
Fore
193 768 m 1,0,1
 195 766 195 766 201.5 757 c 128,-1,2
 208 748 208 748 210 746 c 1,3,4
 209 745 209 745 199.5 737 c 128,-1,5
 190 729 190 729 176 717.5 c 128,-1,6
 162 706 162 706 146 693 c 128,-1,7
 130 680 130 680 116 668.5 c 128,-1,8
 102 657 102 657 92.5 649 c 128,-1,9
 83 641 83 641 82 640 c 1,10,-1
 -44 640 l 1,11,-1
 -38 672 l 1,12,-1
 -17 672 l 1,13,14
 -15 673 -15 673 -13 675 c 256,15,16
 -11 677 -11 677 -9.5 678 c 128,-1,17
 -8 679 -8 679 -6 681 c 1,18,-1
 -29 711 l 1,19,-1
 -20 754 l 1,20,-1
 16 784 l 1,21,-1
 60 784 l 1,22,-1
 83 754 l 1,23,-1
 74 711 l 1,24,-1
 27 672 l 1,25,-1
 76 672 l 1,26,-1
 193 768 l 1,0,1
5 724 m 1,27,-1
 14 712 l 1,28,-1
 31 712 l 1,29,-1
 46 724 l 1,30,-1
 49 741 l 1,31,-1
 40 753 l 1,32,-1
 23 753 l 1,33,-1
 8 741 l 1,34,-1
 5 724 l 1,27,-1
EndSplineSet
Substitution: 0 65534 'L026' uni0E49.alt2
Substitution: 0 65534 'L026' uni0E49.alt2
EndChar
StartChar: uni0E4A
Encoding: 3658 3658 280
Width: 0
Flags: W
Fore
224 748 m 1,0,-1
 93 640 l 1,1,-1
 76 662 l 1,2,-1
 118 697 l 1,3,-1
 99 721 l 1,4,-1
 29 663 l 1,5,-1
 -15 663 l 1,6,-1
 -39 692 l 1,7,-1
 -29 736 l 1,8,-1
 6 766 l 1,9,-1
 50 766 l 1,10,-1
 73 736 l 1,11,-1
 109 765 l 1,12,-1
 145 719 l 1,13,-1
 207 770 l 1,14,-1
 224 748 l 1,0,-1
21 693 m 1,15,16
 24 696 24 696 36 705 c 1,17,-1
 40 722 l 1,18,-1
 30 734 l 1,19,-1
 13 734 l 1,20,21
 9 731 9 731 5.5 728 c 128,-1,22
 2 725 2 725 -1 722 c 1,23,-1
 -5 705 l 1,24,-1
 4 693 l 1,25,-1
 21 693 l 1,15,16
EndSplineSet
Substitution: 0 65534 'L026' uni0E4A.alt2
Substitution: 0 65534 'L026' uni0E4A.alt2
EndChar
StartChar: uni0E4B
Encoding: 3659 3659 281
Width: 0
Flags: W
Fore
160 728 m 1,0,-1
 153 696 l 1,1,-1
 97 696 l 1,2,-1
 85 640 l 1,3,-1
 54 640 l 1,4,-1
 65 696 l 1,5,-1
 9 696 l 1,6,-1
 16 728 l 1,7,-1
 72 728 l 1,8,-1
 84 784 l 1,9,-1
 116 784 l 1,10,-1
 104 728 l 1,11,-1
 160 728 l 1,12,-1
 160 728 l 1,0,-1
EndSplineSet
Substitution: 0 65534 'L026' uni0E4B.alt2
Substitution: 0 65534 'L026' uni0E4B.alt2
EndChar
StartChar: uni0E4C
Encoding: 3660 3660 282
Width: 0
Flags: W
Fore
92 615 m 1,0,-1
 54 584 l 1,1,-1
 9 584 l 1,2,-1
 -16 615 l 1,3,-1
 -7 660 l 1,4,-1
 141 782 l 1,5,-1
 158 760 l 1,6,7
 145 748 145 748 131 737 c 0,8,9
 119 727 119 727 104.5 715 c 128,-1,10
 90 703 90 703 76 691 c 1,11,-1
 101 660 l 1,12,-1
 92 615 l 1,0,-1
67 647 m 1,13,-1
 57 660 l 1,14,-1
 38 660 l 1,15,-1
 22 647 l 1,16,-1
 18 628 l 1,17,-1
 29 615 l 1,18,-1
 47 615 l 1,19,-1
 63 628 l 1,20,-1
 67 647 l 1,13,-1
EndSplineSet
Substitution: 0 65534 'L026' uni0E4C.alt2
Substitution: 0 65534 'L026' uni0E4C.alt2
EndChar
StartChar: uni0E4D
Encoding: 3661 3661 283
Width: 0
Flags: W
Fore
-17 581 m 1,0,-1
 35 581 l 1,1,-1
 64 544 l 1,2,-1
 53 492 l 1,3,-1
 9 455 l 1,4,-1
 -44 455 l 1,5,-1
 -73 492 l 1,6,-1
 -62 544 l 1,7,-1
 -17 581 l 1,0,-1
25 505 m 1,8,-1
 30 531 l 1,9,-1
 16 549 l 1,10,-1
 -10 549 l 1,11,-1
 -33 531 l 1,12,-1
 -38 505 l 1,13,-1
 -24 486 l 1,14,-1
 2 486 l 1,15,-1
 25 505 l 1,8,-1
EndSplineSet
Substitution: 0 65534 'L026' uni0E4D.alt1
Substitution: 0 65534 'L026' uni0E4D.alt1
EndChar
StartChar: uni0E4E
Encoding: 3662 3662 284
Width: 0
Flags: W
Fore
170 617 m 1,0,-1
 163 581 l 1,1,-1
 106 581 l 1,2,-1
 98 574 l 1,3,-1
 86 518 l 1,4,-1
 29 518 l 1,5,-1
 22 511 l 1,6,-1
 10 455 l 1,7,-1
 -26 455 l 1,8,-1
 -11 526 l 1,9,-1
 22 554 l 1,10,-1
 58 554 l 1,11,-1
 65 589 l 1,12,-1
 98 617 l 1,13,-1
 170 617 l 1,0,-1
EndSplineSet
Substitution: 0 65534 'L026' uni0E4E.alt1
Substitution: 0 65534 'L026' uni0E4E.alt1
EndChar
StartChar: uni0E4F
Encoding: 3663 3663 285
Width: 353
Flags: W
Fore
235 198 m 1,0,-1
 264 161 l 1,1,-1
 253 109 l 1,2,-1
 208 72 l 1,3,-1
 156 72 l 1,4,-1
 128 108 l 1,5,-1
 139 162 l 1,6,-1
 183 198 l 1,7,-1
 235 198 l 1,0,-1
220 124 m 1,8,-1
 225 146 l 1,9,-1
 212 162 l 1,10,-1
 189 162 l 1,11,-1
 171 146 l 1,12,-1
 166 124 l 1,13,-1
 178 108 l 1,14,-1
 201 108 l 1,15,-1
 220 124 l 1,8,-1
277 270 m 1,16,-1
 342 188 l 1,17,-1
 319 81 l 1,18,-1
 220 0 l 1,19,-1
 112 0 l 1,20,-1
 49 81 l 1,21,-1
 72 189 l 1,22,-1
 170 270 l 1,23,-1
 277 270 l 1,16,-1
286 96 m 1,24,-1
 303 173 l 1,25,-1
 255 234 l 1,26,-1
 178 234 l 1,27,-1
 105 174 l 1,28,-1
 88 96 l 1,29,-1
 134 36 l 1,30,-1
 212 36 l 1,31,-1
 286 96 l 1,24,-1
EndSplineSet
EndChar
StartChar: uni0E50
Encoding: 3664 3664 286
Width: 389
Flags: W
Fore
345 288 m 1,0,-1
 387 233 l 1,1,-1
 349 54 l 1,2,-1
 284 0 l 1,3,-1
 86 0 l 1,4,-1
 43 54 l 1,5,-1
 82 234 l 1,6,-1
 147 287 l 1,7,-1
 345 288 l 1,0,-1
316 68 m 1,8,-1
 348 219 l 1,9,-1
 322 252 l 1,10,-1
 154 252 l 1,11,-1
 114 219 l 1,12,-1
 83 69 l 1,13,-1
 109 36 l 1,14,-1
 277 36 l 1,15,-1
 316 68 l 1,8,-1
EndSplineSet
EndChar
StartChar: uni0E51
Encoding: 3665 3665 287
Width: 390
Flags: W
Fore
346 287 m 1,0,-1
 388 233 l 1,1,-1
 343 18 l 1,2,-1
 277 -36 l 1,3,-1
 257 -11 l 1,4,-1
 310 32 l 1,5,-1
 349 218 l 1,6,-1
 323 251 l 1,7,-1
 155 251 l 1,8,-1
 115 219 l 1,9,-1
 83 69 l 1,10,-1
 109 36 l 1,11,-1
 113 36 l 1,12,-1
 113 37 l 1,13,-1
 124 89 l 1,14,-1
 169 126 l 1,15,-1
 221 126 l 1,16,-1
 250 89 l 1,17,-1
 239 37 l 1,18,-1
 194 0 l 1,19,-1
 87 0 l 1,20,-1
 44 54 l 1,21,-1
 82 233 l 1,22,-1
 148 287 l 1,23,-1
 346 287 l 1,0,-1
153 76 m 1,24,-1
 147 50 l 1,25,-1
 161 31 l 1,26,-1
 187 31 l 1,27,-1
 209 50 l 1,28,-1
 215 76 l 1,29,-1
 201 94 l 1,30,-1
 175 94 l 1,31,-1
 153 76 l 1,24,-1
EndSplineSet
EndChar
StartChar: uni0E52
Encoding: 3666 3666 288
Width: 461
Flags: W
Fore
416 287 m 1,0,-1
 459 233 l 1,1,-1
 421 54 l 1,2,-1
 355 0 l 1,3,-1
 85 0 l 1,4,-1
 43 54 l 1,5,-1
 104 341 l 1,6,-1
 140 341 l 1,7,-1
 82 69 l 1,8,-1
 108 36 l 1,9,-1
 348 36 l 1,10,-1
 388 69 l 1,11,-1
 420 218 l 1,12,-1
 394 251 l 1,13,-1
 382 251 l 1,14,-1
 316 197 l 1,15,-1
 274 251 l 1,16,-1
 244 251 l 1,17,-1
 204 218 l 1,18,-1
 203 214 l 1,19,-1
 204 215 l 1,20,-1
 256 215 l 1,21,-1
 285 179 l 1,22,-1
 274 126 l 1,23,-1
 229 89 l 1,24,-1
 177 89 l 1,25,-1
 148 126 l 1,26,-1
 171 233 l 1,27,-1
 236 287 l 1,28,-1
 296 287 l 1,29,-1
 327 248 l 1,30,-1
 374 287 l 1,31,-1
 416 287 l 1,0,-1
210 184 m 1,32,-1
 187 165 l 1,33,-1
 182 139 l 1,34,-1
 197 121 l 1,35,-1
 223 121 l 1,36,-1
 245 139 l 1,37,-1
 250 165 l 1,38,-1
 236 184 l 1,39,-1
 210 184 l 1,32,-1
EndSplineSet
EndChar
StartChar: uni0E53
Encoding: 3667 3667 289
Width: 443
Flags: W
Fore
399 287 m 1,0,-1
 442 233 l 1,1,-1
 392 0 l 1,2,-1
 356 0 l 1,3,-1
 403 219 l 1,4,-1
 376 251 l 1,5,-1
 333 251 l 1,6,-1
 295 219 l 1,7,-1
 248 0 l 1,8,-1
 212 0 l 1,9,-1
 259 219 l 1,10,-1
 233 251 l 1,11,-1
 154 251 l 1,12,-1
 114 218 l 1,13,-1
 95 125 l 1,14,-1
 96 126 l 1,15,-1
 148 126 l 1,16,-1
 177 89 l 1,17,-1
 166 37 l 1,18,-1
 121 0 l 1,19,-1
 69 0 l 1,20,-1
 40 37 l 1,21,-1
 82 233 l 1,22,-1
 147 287 l 1,23,-1
 255 287 l 1,24,-1
 283 251 l 1,25,-1
 327 287 l 1,26,-1
 399 287 l 1,0,-1
102 94 m 1,27,-1
 80 76 l 1,28,-1
 75 50 l 1,29,-1
 89 31 l 1,30,-1
 115 31 l 1,31,-1
 138 50 l 1,32,-1
 143 76 l 1,33,-1
 128 94 l 1,34,-1
 102 94 l 1,27,-1
EndSplineSet
EndChar
StartChar: uni0E54
Encoding: 3668 3668 290
Width: 407
Flags: W
Fore
266 36 m 1,0,-1
 364 36 l 1,1,-1
 356 0 l 1,2,-1
 86 0 l 1,3,-1
 44 54 l 1,4,-1
 82 233 l 1,5,-1
 147 287 l 1,6,-1
 374 287 l 1,7,-1
 440 341 l 1,8,-1
 459 316 l 1,9,-1
 382 251 l 1,10,-1
 155 251 l 1,11,-1
 115 218 l 1,12,-1
 83 69 l 1,13,-1
 109 36 l 1,14,-1
 221 36 l 1,15,-1
 163 109 l 1,16,-1
 174 161 l 1,17,-1
 219 198 l 1,18,-1
 271 198 l 1,19,-1
 300 161 l 1,20,-1
 289 109 l 1,21,-1
 245 72 l 1,22,-1
 238 72 l 1,23,-1
 266 36 l 1,0,-1
204 148 m 1,24,-1
 198 122 l 1,25,-1
 212 103 l 1,26,-1
 238 103 l 1,27,-1
 261 122 l 1,28,-1
 267 148 l 1,29,-1
 252 166 l 1,30,-1
 226 166 l 1,31,-1
 204 148 l 1,24,-1
EndSplineSet
EndChar
StartChar: uni0E55
Encoding: 3669 3669 291
Width: 407
Flags: W
Fore
266 36 m 1,0,-1
 365 36 l 1,1,-1
 357 0 l 1,2,-1
 87 0 l 1,3,-1
 45 54 l 1,4,-1
 83 233 l 1,5,-1
 148 287 l 1,6,-1
 203 287 l 1,7,-1
 203 288 l 1,8,-1
 214 340 l 1,9,-1
 259 377 l 1,10,-1
 311 377 l 1,11,-1
 340 340 l 1,12,-1
 329 288 l 1,13,-1
 327 287 l 1,14,-1
 374 287 l 1,15,-1
 441 342 l 1,16,-1
 461 316 l 1,17,-1
 382 251 l 1,18,-1
 156 251 l 1,19,-1
 116 219 l 1,20,-1
 84 69 l 1,21,-1
 110 36 l 1,22,-1
 222 36 l 1,23,-1
 165 109 l 1,24,-1
 176 161 l 1,25,-1
 221 198 l 1,26,-1
 273 198 l 1,27,-1
 302 161 l 1,28,-1
 291 109 l 1,29,-1
 246 72 l 1,30,-1
 238 72 l 1,31,-1
 266 36 l 1,0,-1
204 148 m 1,32,-1
 198 122 l 1,33,-1
 213 103 l 1,34,-1
 239 103 l 1,35,-1
 261 122 l 1,36,-1
 267 148 l 1,37,-1
 253 166 l 1,38,-1
 227 166 l 1,39,-1
 204 148 l 1,32,-1
236 301 m 1,40,-1
 247 287 l 1,41,-1
 282 287 l 1,42,-1
 299 301 l 1,43,-1
 305 327 l 1,44,-1
 291 346 l 1,45,-1
 265 346 l 1,46,-1
 242 327 l 1,47,-1
 236 301 l 1,40,-1
EndSplineSet
EndChar
StartChar: uni0E56
Encoding: 3670 3670 292
Width: 435
Flags: W
Fore
392 287 m 1,0,-1
 435 233 l 1,1,-1
 397 54 l 1,2,-1
 331 0 l 1,3,-1
 134 0 l 1,4,-1
 105 37 l 1,5,-1
 116 89 l 1,6,-1
 161 126 l 1,7,-1
 213 126 l 1,8,-1
 242 89 l 1,9,-1
 231 37 l 1,10,-1
 230 36 l 1,11,-1
 324 36 l 1,12,-1
 364 69 l 1,13,-1
 396 218 l 1,14,-1
 370 251 l 1,15,-1
 143 251 l 1,16,-1
 92 316 l 1,17,-1
 123 341 l 1,18,-1
 165 287 l 1,19,-1
 392 287 l 1,0,-1
154 31 m 1,20,-1
 180 31 l 1,21,-1
 202 50 l 1,22,-1
 207 76 l 1,23,-1
 193 94 l 1,24,-1
 167 94 l 1,25,-1
 144 76 l 1,26,-1
 139 50 l 1,27,-1
 154 31 l 1,20,-1
EndSplineSet
EndChar
StartChar: uni0E57
Encoding: 3671 3671 293
Width: 497
Flags: W
Fore
483 341 m 1,0,-1
 519 341 l 1,1,-1
 465 90 l 1,2,-1
 356 0 l 1,3,-1
 320 0 l 1,4,-1
 367 219 l 1,5,-1
 341 251 l 1,6,-1
 302 251 l 1,7,-1
 236 197 l 1,8,-1
 194 251 l 1,9,-1
 155 251 l 1,10,-1
 115 218 l 1,11,-1
 95 125 l 1,12,-1
 96 126 l 1,13,-1
 148 126 l 1,14,-1
 177 89 l 1,15,-1
 166 36 l 1,16,-1
 121 0 l 1,17,-1
 69 0 l 1,18,-1
 40 36 l 1,19,-1
 82 233 l 1,20,-1
 147 287 l 1,21,-1
 216 287 l 1,22,-1
 247 248 l 1,23,-1
 294 287 l 1,24,-1
 363 287 l 1,25,-1
 406 233 l 1,26,-1
 367 51 l 1,27,-1
 433 105 l 1,28,-1
 483 341 l 1,0,-1
102 94 m 1,29,-1
 80 76 l 1,30,-1
 75 50 l 1,31,-1
 89 31 l 1,32,-1
 115 31 l 1,33,-1
 138 50 l 1,34,-1
 143 76 l 1,35,-1
 128 94 l 1,36,-1
 102 94 l 1,29,-1
EndSplineSet
EndChar
StartChar: uni0E58
Encoding: 3672 3672 294
Width: 424
Flags: W
Fore
311 126 m 1,0,-1
 363 126 l 1,1,-1
 392 89 l 1,2,-1
 381 36 l 1,3,-1
 336 0 l 1,4,-1
 199 0 l 1,5,-1
 154 57 l 1,6,-1
 85 0 l 1,7,-1
 43 54 l 1,8,-1
 81 234 l 1,9,-1
 146 288 l 1,10,-1
 373 288 l 1,11,-1
 438 342 l 1,12,-1
 459 317 l 1,13,-1
 381 252 l 1,14,-1
 155 252 l 1,15,-1
 114 219 l 1,16,-1
 82 69 l 1,17,-1
 96 51 l 1,18,-1
 165 108 l 1,19,-1
 222 37 l 1,20,-1
 256 37 l 1,21,-1
 255 37 l 1,22,-1
 266 89 l 1,23,-1
 311 126 l 1,0,-1
352 50 m 1,24,-1
 357 76 l 1,25,-1
 343 95 l 1,26,-1
 317 95 l 1,27,-1
 294 76 l 1,28,-1
 289 50 l 1,29,-1
 304 32 l 1,30,-1
 330 32 l 1,31,-1
 352 50 l 1,24,-1
EndSplineSet
EndChar
StartChar: uni0E59
Encoding: 3673 3673 295
Width: 438
Flags: W
Fore
155 251 m 1,0,-1
 115 219 l 1,1,-1
 83 68 l 1,2,-1
 109 36 l 1,3,-1
 113 36 l 1,4,-1
 112 36 l 1,5,-1
 123 89 l 1,6,-1
 168 126 l 1,7,-1
 220 126 l 1,8,-1
 249 89 l 1,9,-1
 238 36 l 1,10,-1
 193 0 l 1,11,-1
 86 0 l 1,12,-1
 44 54 l 1,13,-1
 82 233 l 1,14,-1
 147 287 l 1,15,-1
 206 287 l 1,16,-1
 253 226 l 1,17,-1
 327 287 l 1,18,-1
 375 287 l 1,19,-1
 441 341 l 1,20,-1
 460 316 l 1,21,-1
 383 251 l 1,22,-1
 335 251 l 1,23,-1
 274 201 l 1,24,-1
 415 22 l 1,25,-1
 388 0 l 1,26,-1
 190 251 l 1,27,-1
 155 251 l 1,0,-1
152 76 m 1,28,-1
 147 50 l 1,29,-1
 161 31 l 1,30,-1
 187 31 l 1,31,-1
 210 50 l 1,32,-1
 215 76 l 1,33,-1
 200 94 l 1,34,-1
 174 94 l 1,35,-1
 152 76 l 1,28,-1
EndSplineSet
EndChar
StartChar: uni0E5A
Encoding: 3674 3674 296
Width: 447
Flags: W
Fore
443 395 m 1,0,-1
 479 395 l 1,1,-1
 396 0 l 1,2,-1
 360 0 l 1,3,-1
 428 323 l 1,4,-1
 363 269 l 1,5,-1
 327 269 l 1,6,-1
 270 0 l 1,7,-1
 234 0 l 1,8,-1
 302 323 l 1,9,-1
 237 269 l 1,10,-1
 112 269 l 1,11,-1
 83 306 l 1,12,-1
 94 358 l 1,13,-1
 138 395 l 1,14,-1
 190 395 l 1,15,-1
 220 358 l 1,16,-1
 209 306 l 1,17,-1
 207 305 l 1,18,-1
 229 305 l 1,19,-1
 313 374 l 1,20,-1
 317 395 l 1,21,-1
 353 395 l 1,22,-1
 334 305 l 1,23,-1
 355 305 l 1,24,-1
 439 374 l 1,25,-1
 443 395 l 1,0,-1
131 301 m 1,26,-1
 157 301 l 1,27,-1
 180 319 l 1,28,-1
 186 345 l 1,29,-1
 171 364 l 1,30,-1
 145 364 l 1,31,-1
 123 345 l 1,32,-1
 117 319 l 1,33,-1
 131 301 l 1,26,-1
EndSplineSet
EndChar
StartChar: uni0E5B
Encoding: 3675 3675 297
Width: 738
Flags: W
Fore
724 220 m 1,0,-1
 722 211 l 1,1,-1
 629 199 l 1,2,-1
 615 216 l 1,3,-1
 556 166 l 1,4,-1
 516 216 l 1,5,-1
 456 166 l 1,6,-1
 417 216 l 1,7,-1
 357 166 l 1,8,-1
 346 180 l 1,9,-1
 330 108 l 1,10,-1
 265 54 l 1,11,-1
 85 54 l 1,12,-1
 42 108 l 1,13,-1
 77 270 l 1,14,-1
 142 324 l 1,15,-1
 241 324 l 1,16,-1
 284 270 l 1,17,-1
 261 163 l 1,18,-1
 216 126 l 1,19,-1
 164 126 l 1,20,-1
 135 163 l 1,21,-1
 146 215 l 1,22,-1
 191 252 l 1,23,-1
 243 252 l 1,24,-1
 244 251 l 1,25,-1
 245 255 l 1,26,-1
 220 288 l 1,27,-1
 150 288 l 1,28,-1
 110 255 l 1,29,-1
 81 122 l 1,30,-1
 107 90 l 1,31,-1
 257 90 l 1,32,-1
 297 123 l 1,33,-1
 327 261 l 1,34,-1
 366 211 l 1,35,-1
 427 261 l 1,36,-1
 465 211 l 1,37,-1
 526 261 l 1,38,-1
 565 211 l 1,39,-1
 625 261 l 1,40,-1
 652 227 l 1,41,-1
 724 220 l 1,0,-1
233 176 m 1,42,-1
 238 202 l 1,43,-1
 223 220 l 1,44,-1
 197 220 l 1,45,-1
 175 202 l 1,46,-1
 170 176 l 1,47,-1
 184 157 l 1,48,-1
 210 157 l 1,49,-1
 233 176 l 1,42,-1
EndSplineSet
EndChar
StartChar: zerowidthnonjoiner
Encoding: 8204 8204 298
Width: 0
Flags: W
Fore
-21 -308 m 1,0,-1
 -56 -308 l 1,1,-1
 60 240 l 1,2,-1
 95 240 l 1,3,-1
 -21 -308 l 1,0,-1
EndSplineSet
EndChar
StartChar: zerowidthjoiner
Encoding: 8205 8205 299
Width: 0
Flags: W
Fore
-22 -308 m 1,0,-1
 -57 -308 l 1,1,-1
 40 150 l 1,2,-1
 16 129 l 1,3,-1
 2 146 l 1,4,-1
 47 184 l 1,5,-1
 18 223 l 1,6,-1
 39 240 l 1,7,-1
 68 202 l 1,8,-1
 114 240 l 1,9,-1
 128 223 l 1,10,-1
 82 184 l 1,11,-1
 112 146 l 1,12,-1
 90 129 l 1,13,-1
 75 150 l 1,14,-1
 -22 -308 l 1,0,-1
EndSplineSet
EndChar
StartChar: lefttorightmark
Encoding: 8206 8206 300
Width: 0
Flags: W
Fore
-20 -308 m 1,0,-1
 -55 -308 l 1,1,-1
 53 204 l 1,2,-1
 187 204 l 1,3,-1
 174 222 l 1,4,-1
 194 239 l 1,5,-1
 235 186 l 1,6,-1
 171 133 l 1,7,-1
 159 151 l 1,8,-1
 180 168 l 1,9,-1
 81 168 l 1,10,-1
 -20 -308 l 1,0,-1
EndSplineSet
EndChar
StartChar: righttoleftmark
Encoding: 8207 8207 301
Width: 0
Flags: W
Fore
-21 -308 m 1,0,-1
 -56 -308 l 1,1,-1
 45 168 l 1,2,-1
 -53 168 l 1,3,-1
 -40 151 l 1,4,-1
 -60 133 l 1,5,-1
 -102 186 l 1,6,-1
 -37 239 l 1,7,-1
 -25 222 l 1,8,-1
 -46 204 l 1,9,-1
 87 204 l 1,10,-1
 -21 -308 l 1,0,-1
EndSplineSet
EndChar
StartChar: endash
Encoding: 8211 8211 302
Width: 335
Flags: W
Fore
284 198 m 1,0,-1
 33 198 l 1,1,-1
 40 234 l 1,2,-1
 291 234 l 1,3,-1
 284 198 l 1,4,-1
 284 198 l 1,0,-1
EndSplineSet
EndChar
StartChar: emdash
Encoding: 8212 8212 303
Width: 513
Flags: W
Fore
469 234 m 1,0,-1
 462 198 l 1,1,-1
 31 198 l 1,2,-1
 38 234 l 1,3,-1
 469 234 l 1,4,-1
 469 234 l 1,0,-1
EndSplineSet
EndChar
StartChar: quoteleft
Encoding: 8216 8216 304
Width: 152
Flags: W
Fore
102 345 m 1,0,-1
 109 379 l 1,1,-1
 178 450 l 1,2,-1
 196 450 l 1,3,-1
 157 396 l 1,4,-1
 162 396 l 1,5,-1
 180 375 l 1,6,-1
 174 345 l 1,7,-1
 147 324 l 1,8,-1
 118 324 l 1,9,-1
 102 345 l 1,0,-1
EndSplineSet
EndChar
StartChar: quoteright
Encoding: 8217 8217 305
Width: 152
Flags: W
Fore
192 429 m 1,0,-1
 185 396 l 1,1,-1
 116 324 l 1,2,-1
 98 324 l 1,3,-1
 137 378 l 1,4,-1
 131 378 l 1,5,-1
 114 399 l 1,6,-1
 120 429 l 1,7,-1
 146 450 l 1,8,-1
 176 450 l 1,9,-1
 192 429 l 1,0,-1
EndSplineSet
EndChar
StartChar: quotesinglbase
Encoding: 8218 8218 306
Width: 151
Flags: W
Fore
123 50 m 1,0,-1
 116 17 l 1,1,-1
 47 -54 l 1,2,-1
 29 -54 l 1,3,-1
 68 0 l 1,4,-1
 62 0 l 1,5,-1
 45 21 l 1,6,-1
 51 50 l 1,7,-1
 77 72 l 1,8,-1
 107 72 l 1,9,-1
 123 50 l 1,0,-1
EndSplineSet
EndChar
StartChar: quotedblleft
Encoding: 8220 8220 307
Width: 259
Flags: W
Fore
158 395 m 1,0,-1
 163 395 l 1,1,-1
 181 374 l 1,2,-1
 175 345 l 1,3,-1
 148 323 l 1,4,-1
 119 323 l 1,5,-1
 103 345 l 1,6,-1
 110 378 l 1,7,-1
 179 449 l 1,8,-1
 197 449 l 1,9,-1
 158 395 l 1,0,-1
271 395 m 1,10,-1
 288 374 l 1,11,-1
 282 345 l 1,12,-1
 256 323 l 1,13,-1
 227 323 l 1,14,-1
 210 345 l 1,15,-1
 217 378 l 1,16,-1
 286 449 l 1,17,-1
 304 449 l 1,18,-1
 265 395 l 1,19,-1
 271 395 l 1,10,-1
EndSplineSet
EndChar
StartChar: quotedblright
Encoding: 8221 8221 308
Width: 259
Flags: W
Fore
284 450 m 1,0,-1
 300 429 l 1,1,-1
 293 395 l 1,2,-1
 224 324 l 1,3,-1
 206 324 l 1,4,-1
 245 378 l 1,5,-1
 239 378 l 1,6,-1
 222 399 l 1,7,-1
 228 429 l 1,8,-1
 254 450 l 1,9,-1
 284 450 l 1,0,-1
146 450 m 1,10,-1
 176 450 l 1,11,-1
 192 429 l 1,12,-1
 185 395 l 1,13,-1
 116 324 l 1,14,-1
 98 324 l 1,15,-1
 137 378 l 1,16,-1
 131 378 l 1,17,-1
 114 399 l 1,18,-1
 120 429 l 1,19,-1
 146 450 l 1,10,-1
EndSplineSet
EndChar
StartChar: quotedblbase
Encoding: 8222 8222 309
Width: 260
Flags: W
Fore
77 72 m 1,0,-1
 107 72 l 1,1,-1
 123 50 l 1,2,-1
 116 17 l 1,3,-1
 47 -54 l 1,4,-1
 29 -54 l 1,5,-1
 68 0 l 1,6,-1
 62 0 l 1,7,-1
 45 21 l 1,8,-1
 51 50 l 1,9,-1
 77 72 l 1,0,-1
215 72 m 1,10,-1
 231 50 l 1,11,-1
 224 17 l 1,12,-1
 155 -54 l 1,13,-1
 137 -54 l 1,14,-1
 176 0 l 1,15,-1
 170 0 l 1,16,-1
 153 21 l 1,17,-1
 159 50 l 1,18,-1
 185 72 l 1,19,-1
 215 72 l 1,10,-1
EndSplineSet
EndChar
StartChar: dagger
Encoding: 8224 8224 310
Width: 318
Flags: W
Fore
230 287 m 1,0,-1
 329 287 l 1,1,-1
 321 251 l 1,2,-1
 222 251 l 1,3,-1
 142 -126 l 1,4,-1
 106 -126 l 1,5,-1
 186 251 l 1,6,-1
 87 251 l 1,7,-1
 95 287 l 1,8,-1
 194 287 l 1,9,-1
 217 395 l 1,10,-1
 253 395 l 1,11,-1
 230 287 l 1,0,-1
EndSplineSet
EndChar
StartChar: daggerdbl
Encoding: 8225 8225 311
Width: 318
Flags: W
Fore
319 251 m 1,0,-1
 221 251 l 1,1,-1
 198 143 l 1,2,-1
 296 143 l 1,3,-1
 289 107 l 1,4,-1
 191 107 l 1,5,-1
 141 -126 l 1,6,-1
 105 -126 l 1,7,-1
 155 107 l 1,8,-1
 56 107 l 1,9,-1
 63 143 l 1,10,-1
 162 143 l 1,11,-1
 185 251 l 1,12,-1
 86 251 l 1,13,-1
 94 287 l 1,14,-1
 193 287 l 1,15,-1
 216 395 l 1,16,-1
 252 395 l 1,17,-1
 229 287 l 1,18,-1
 327 287 l 1,19,-1
 319 251 l 1,0,-1
EndSplineSet
EndChar
StartChar: bullet
Encoding: 8226 8226 312
Width: 225
Flags: W
Fore
197 245 m 1,0,-1
 184 186 l 1,1,-1
 133 144 l 1,2,-1
 73 144 l 1,3,-1
 40 186 l 1,4,-1
 53 245 l 1,5,-1
 104 288 l 1,6,-1
 164 288 l 1,7,-1
 197 245 l 1,8,-1
 197 245 l 1,0,-1
EndSplineSet
EndChar
StartChar: ellipsis
Encoding: 8230 8230 313
Width: 475
Flags: W
Fore
65 72 m 1,0,-1
 95 72 l 1,1,-1
 111 50 l 1,2,-1
 105 21 l 1,3,-1
 80 0 l 1,4,-1
 50 0 l 1,5,-1
 33 21 l 1,6,-1
 39 50 l 1,7,-1
 65 72 l 1,0,-1
227 72 m 1,8,-1
 257 72 l 1,9,-1
 273 50 l 1,10,-1
 267 21 l 1,11,-1
 242 0 l 1,12,-1
 212 0 l 1,13,-1
 195 21 l 1,14,-1
 201 50 l 1,15,-1
 227 72 l 1,8,-1
419 72 m 1,16,-1
 435 50 l 1,17,-1
 429 21 l 1,18,-1
 404 0 l 1,19,-1
 374 0 l 1,20,-1
 357 21 l 1,21,-1
 363 50 l 1,22,-1
 389 72 l 1,23,-1
 419 72 l 1,16,-1
EndSplineSet
EndChar
StartChar: perthousand
Encoding: 8240 8240 314
Width: 588
Flags: W
Fore
183 234 m 1,0,-1
 113 234 l 1,1,-1
 84 271 l 1,2,-1
 103 359 l 1,3,-1
 148 396 l 1,4,-1
 218 396 l 1,5,-1
 247 359 l 1,6,-1
 228 271 l 1,7,-1
 183 234 l 1,0,-1
132 346 m 1,8,-1
 119 284 l 1,9,-1
 133 266 l 1,10,-1
 177 266 l 1,11,-1
 200 284 l 1,12,-1
 213 346 l 1,13,-1
 198 365 l 1,14,-1
 154 365 l 1,15,-1
 132 346 l 1,8,-1
286 198 m 1,16,-1
 356 198 l 1,17,-1
 385 161 l 1,18,-1
 366 73 l 1,19,-1
 321 36 l 1,20,-1
 251 36 l 1,21,-1
 222 73 l 1,22,-1
 241 161 l 1,23,-1
 286 198 l 1,16,-1
338 86 m 1,24,-1
 351 148 l 1,25,-1
 336 167 l 1,26,-1
 292 167 l 1,27,-1
 270 148 l 1,28,-1
 257 86 l 1,29,-1
 271 68 l 1,30,-1
 315 68 l 1,31,-1
 338 86 l 1,24,-1
536 198 m 1,32,-1
 565 161 l 1,33,-1
 546 73 l 1,34,-1
 501 36 l 1,35,-1
 431 36 l 1,36,-1
 402 73 l 1,37,-1
 421 161 l 1,38,-1
 466 198 l 1,39,-1
 536 198 l 1,32,-1
517 86 m 1,40,-1
 530 148 l 1,41,-1
 516 167 l 1,42,-1
 472 167 l 1,43,-1
 449 148 l 1,44,-1
 436 86 l 1,45,-1
 451 68 l 1,46,-1
 495 68 l 1,47,-1
 517 86 l 1,40,-1
384 432 m 1,48,-1
 425 432 l 1,49,-1
 86 0 l 1,50,-1
 45 0 l 1,51,-1
 384 432 l 1,48,-1
EndSplineSet
EndChar
StartChar: minute
Encoding: 8242 8242 315
Width: 138
Flags: W
Fore
106 340 m 1,0,-1
 143 430 l 1,1,-1
 179 430 l 1,2,-1
 124 340 l 1,3,-1
 106 340 l 1,0,-1
EndSplineSet
EndChar
StartChar: second
Encoding: 8243 8243 316
Width: 193
Flags: W
Fore
106 341 m 1,0,-1
 143 431 l 1,1,-1
 179 431 l 1,2,-1
 124 341 l 1,3,-1
 106 341 l 1,0,-1
197 431 m 1,4,-1
 233 431 l 1,5,-1
 178 341 l 1,6,-1
 160 341 l 1,7,-1
 197 431 l 1,4,-1
EndSplineSet
EndChar
StartChar: guilsinglleft
Encoding: 8249 8249 317
Width: 191
Flags: W
Fore
180 234 m 1,0,-1
 94 168 l 1,1,-1
 93 163 l 1,2,-1
 151 97 l 1,3,-1
 141 49 l 1,4,-1
 54 148 l 1,5,-1
 61 184 l 1,6,-1
 190 282 l 1,7,-1
 180 234 l 1,0,-1
EndSplineSet
EndChar
StartChar: guilsinglright
Encoding: 8250 8250 318
Width: 191
Flags: W
Fore
82 282 m 1,0,-1
 169 183 l 1,1,-1
 162 147 l 1,2,-1
 33 49 l 1,3,-1
 43 97 l 1,4,-1
 129 163 l 1,5,-1
 130 167 l 1,6,-1
 72 234 l 1,7,-1
 82 282 l 1,0,-1
EndSplineSet
EndChar
StartChar: fraction
Encoding: 8260 8260 319
Width: 371
Flags: W
Fore
368 431 m 1,0,-1
 410 431 l 1,1,-1
 71 0 l 1,2,-1
 31 0 l 1,3,-1
 368 431 l 1,0,-1
EndSplineSet
EndChar
StartChar: Euro
Encoding: 8364 8364 320
Width: 443
Flags: W
Fore
464 341 m 1,0,-1
 428 341 l 1,1,-1
 433 362 l 1,2,-1
 407 395 l 1,3,-1
 221 395 l 1,4,-1
 181 362 l 1,5,-1
 165 287 l 1,6,-1
 363 287 l 1,7,-1
 355 251 l 1,8,-1
 157 251 l 1,9,-1
 142 179 l 1,10,-1
 340 179 l 1,11,-1
 332 143 l 1,12,-1
 134 143 l 1,13,-1
 118 68 l 1,14,-1
 144 36 l 1,15,-1
 330 36 l 1,16,-1
 370 68 l 1,17,-1
 375 89 l 1,18,-1
 411 89 l 1,19,-1
 403 54 l 1,20,-1
 338 0 l 1,21,-1
 122 0 l 1,22,-1
 79 53 l 1,23,-1
 98 143 l 1,24,-1
 62 143 l 1,25,-1
 70 179 l 1,26,-1
 106 179 l 1,27,-1
 121 251 l 1,28,-1
 85 251 l 1,29,-1
 93 287 l 1,30,-1
 129 287 l 1,31,-1
 148 377 l 1,32,-1
 213 431 l 1,33,-1
 429 431 l 1,34,-1
 472 377 l 1,35,-1
 464 341 l 1,0,-1
EndSplineSet
EndChar
StartChar: uni2113
Encoding: 8467 8467 321
Width: 246
Flags: W
Fore
145 36 m 1,0,-1
 202 36 l 1,1,-1
 195 0 l 1,2,-1
 123 0 l 1,3,-1
 80 54 l 1,4,-1
 99 144 l 1,5,-1
 79 127 l 1,6,-1
 58 152 l 1,7,-1
 110 195 l 1,8,-1
 160 432 l 1,9,-1
 214 432 l 1,10,-1
 257 378 l 1,11,-1
 230 252 l 1,12,-1
 143 180 l 1,13,-1
 119 69 l 1,14,-1
 145 36 l 1,0,-1
189 396 m 1,15,-1
 154 231 l 1,16,-1
 197 267 l 1,17,-1
 218 363 l 1,18,-1
 192 396 l 1,19,-1
 189 396 l 1,15,-1
EndSplineSet
EndChar
StartChar: trademark
Encoding: 8482 8482 322
Width: 550
Flags: W
Fore
552 431 m 1,0,1
 552 430 552 430 548 411.5 c 128,-1,2
 544 393 544 393 538 366 c 128,-1,3
 532 339 532 339 525.5 307.5 c 128,-1,4
 519 276 519 276 513 249 c 128,-1,5
 507 222 507 222 503 203.5 c 128,-1,6
 499 185 499 185 499 184 c 1,7,-1
 468 184 l 1,8,9
 468 186 468 186 473.5 212 c 128,-1,10
 479 238 479 238 486 270 c 0,11,12
 494 307 494 307 503 354 c 1,13,14
 473 306 473 306 448 269 c 0,15,16
 437 253 437 253 427 238 c 128,-1,17
 417 223 417 223 409 211 c 0,18,19
 399 197 399 197 392 184 c 1,20,-1
 359 184 l 1,21,22
 357 191.5 l 130,-1,23
 355 199 355 199 352.5 211 c 128,-1,24
 350 223 350 223 346.5 238.5 c 128,-1,25
 343 254 343 254 339 270 c 0,26,27
 330 308 330 308 320 356 c 1,28,29
 310 308 310 308 302 271 c 0,30,31
 299 255 299 255 295.5 239.5 c 128,-1,32
 292 224 292 224 289 212 c 128,-1,33
 286 200 286 200 284.5 192.5 c 128,-1,34
 283 185 283 185 283 184 c 1,35,-1
 252 184 l 1,36,37
 252 185 252 185 256 203.5 c 128,-1,38
 260 222 260 222 266 249 c 128,-1,39
 272 276 272 276 278.5 307.5 c 128,-1,40
 285 339 285 339 291 366 c 128,-1,41
 297 393 297 393 301 411.5 c 128,-1,42
 305 430 305 430 305 431 c 1,43,-1
 337 431 l 1,44,45
 339 421.5 l 130,-1,46
 341 412 341 412 344.5 397.5 c 128,-1,47
 348 383 348 383 352 364.5 c 128,-1,48
 356 346 356 346 361 327 c 0,49,50
 372 281 372 281 385 224 c 1,51,52
 422 281 422 281 452 327 c 0,53,54
 465 346 465 346 477 365 c 128,-1,55
 489 384 489 384 498.5 398.5 c 128,-1,56
 508 413 508 413 514 422 c 128,-1,57
 519 430 519 430 520 431 c 1,58,-1
 552 431 l 1,0,1
264 431 m 1,59,60
 264 430 264 430 263 425.5 c 128,-1,61
 262 421 262 421 260.5 416 c 128,-1,62
 259 411 259 411 258 406 c 128,-1,63
 257 401 257 401 257 400 c 1,64,-1
 185 400 l 1,65,66
 172 340 172 340 162 293 c 0,67,68
 158 273 158 273 154 253.5 c 128,-1,69
 150 234 150 234 146.5 219 c 128,-1,70
 143 204 143 204 141 194.5 c 128,-1,71
 139 185 139 185 139 184 c 1,72,-1
 108 184 l 1,73,74
 108 185 108 185 110 194.5 c 128,-1,75
 112 204 112 204 115.5 219 c 128,-1,76
 119 234 119 234 123 253.5 c 128,-1,77
 127 273 127 273 131 293 c 0,78,79
 141 340 141 340 154 400 c 1,80,-1
 82 400 l 1,81,82
 82 401 82 401 83 406 c 128,-1,83
 84 411 84 411 85.5 416 c 128,-1,84
 87 421 87 421 88 425.5 c 128,-1,85
 89 430 89 430 89 431 c 1,86,-1
 264 431 l 1,59,60
EndSplineSet
EndChar
StartChar: Ohm
Encoding: 8486 8486 323
Width: 426
Flags: W
Fore
292 36 m 1,0,-1
 382 36 l 1,1,-1
 374 0 l 1,2,-1
 248 0 l 1,3,-1
 267 87 l 1,4,-1
 354 159 l 1,5,-1
 390 327 l 1,6,-1
 364 360 l 1,7,-1
 196 360 l 1,8,-1
 156 327 l 1,9,-1
 120 159 l 1,10,-1
 177 87 l 1,11,-1
 158 0 l 1,12,-1
 33 0 l 1,13,-1
 41 36 l 1,14,-1
 130 36 l 1,15,-1
 138 72 l 1,16,-1
 81 144 l 1,17,-1
 123 342 l 1,18,-1
 189 396 l 1,19,-1
 387 396 l 1,20,-1
 429 342 l 1,21,-1
 387 144 l 1,22,-1
 300 72 l 1,23,-1
 292 36 l 1,0,-1
EndSplineSet
EndChar
StartChar: estimated
Encoding: 8494 8494 324
Width: 227
Flags: W
Fore
210 162 m 1,0,-1
 102 162 l 1,1,-1
 82 69 l 1,2,-1
 108 36 l 1,3,-1
 114 36 l 1,4,-1
 154 69 l 1,5,-1
 158 90 l 1,6,-1
 194 90 l 1,7,-1
 187 54 l 1,8,-1
 121 0 l 1,9,-1
 85 0 l 1,10,-1
 44 54 l 1,11,-1
 92 288 l 1,12,-1
 158 342 l 1,13,-1
 195 342 l 1,14,-1
 236 288 l 1,15,-1
 210 162 l 1,0,-1
109 198 m 1,16,-1
 181 198 l 1,17,-1
 197 273 l 1,18,-1
 172 306 l 1,19,-1
 165 306 l 1,20,-1
 125 273 l 1,21,-1
 109 198 l 1,16,-1
EndSplineSet
EndChar
StartChar: partialdiff
Encoding: 8706 8706 325
Width: 226
Flags: W
Fore
236 288 m 1,0,-1
 187 54 l 1,1,-1
 121 0 l 1,2,-1
 85 0 l 1,3,-1
 43 54 l 1,4,-1
 66 162 l 1,5,-1
 131 216 l 1,6,-1
 185 216 l 1,7,-1
 197 273 l 1,8,-1
 171 306 l 1,9,-1
 165 306 l 1,10,-1
 125 273 l 1,11,-1
 121 252 l 1,12,-1
 85 252 l 1,13,-1
 92 288 l 1,14,-1
 158 342 l 1,15,-1
 194 342 l 1,16,-1
 236 288 l 1,0,-1
114 36 m 1,17,-1
 154 69 l 1,18,-1
 177 180 l 1,19,-1
 138 180 l 1,20,-1
 98 147 l 1,21,-1
 82 69 l 1,22,-1
 108 36 l 1,23,-1
 114 36 l 1,17,-1
EndSplineSet
EndChar
StartChar: Delta
Encoding: 8710 8710 326
Width: 422
Flags: W
Fore
296 324 m 1,0,-1
 379 36 l 1,1,-1
 371 0 l 1,2,-1
 30 0 l 1,3,-1
 37 36 l 1,4,-1
 242 324 l 1,5,-1
 296 324 l 1,0,-1
77 36 m 1,6,-1
 338 36 l 1,7,-1
 266 288 l 1,8,-1
 256 288 l 1,9,-1
 77 36 l 1,6,-1
EndSplineSet
EndChar
StartChar: product
Encoding: 8719 8719 327
Width: 390
Flags: W
Fore
43 -126 m 1,0,-1
 8 -126 l 1,1,-1
 126 432 l 1,2,-1
 432 432 l 1,3,-1
 313 -126 l 1,4,-1
 277 -126 l 1,5,-1
 388 396 l 1,6,-1
 154 396 l 1,7,-1
 43 -126 l 1,8,-1
 43 -126 l 1,0,-1
EndSplineSet
EndChar
StartChar: summation
Encoding: 8721 8721 328
Width: 371
Flags: W
Fore
404 396 m 1,0,-1
 152 396 l 1,1,-1
 143 356 l 1,2,-1
 247 216 l 1,3,-1
 84 76 l 1,4,-1
 75 36 l 1,5,-1
 327 36 l 1,6,-1
 320 0 l 1,7,-1
 33 0 l 1,8,-1
 51 90 l 1,9,-1
 197 216 l 1,10,-1
 104 342 l 1,11,-1
 123 432 l 1,12,-1
 411 432 l 1,13,-1
 404 396 l 1,0,-1
EndSplineSet
EndChar
StartChar: minus
Encoding: 8722 8722 329
Width: 405
Flags: W
Fore
354 196 m 1,0,-1
 31 196 l 1,1,-1
 38 232 l 1,2,-1
 361 232 l 1,3,-1
 354 196 l 1,0,-1
EndSplineSet
EndChar
StartChar: radical
Encoding: 8730 8730 330
Width: 392
Flags: W
Fore
394 432 m 1,0,-1
 432 432 l 1,1,-1
 179 0 l 1,2,-1
 142 0 l 1,3,-1
 118 144 l 1,4,-1
 64 144 l 1,5,-1
 72 180 l 1,6,-1
 151 180 l 1,7,-1
 171 54 l 1,8,-1
 394 432 l 1,0,-1
EndSplineSet
EndChar
StartChar: infinity
Encoding: 8734 8734 331
Width: 550
Flags: W
Fore
467 332 m 1,0,-1
 531 251 l 1,1,-1
 516 179 l 1,2,-1
 418 98 l 1,3,-1
 337 98 l 1,4,-1
 284 187 l 1,5,-1
 193 98 l 1,6,-1
 112 98 l 1,7,-1
 48 179 l 1,8,-1
 63 251 l 1,9,-1
 161 332 l 1,10,-1
 242 332 l 1,11,-1
 296 244 l 1,12,-1
 386 332 l 1,13,-1
 467 332 l 1,0,-1
183 134 m 1,14,-1
 267 215 l 1,15,-1
 218 296 l 1,16,-1
 169 296 l 1,17,-1
 96 236 l 1,18,-1
 87 194 l 1,19,-1
 134 134 l 1,20,-1
 183 134 l 1,14,-1
483 194 m 1,21,-1
 492 237 l 1,22,-1
 446 296 l 1,23,-1
 396 296 l 1,24,-1
 313 215 l 1,25,-1
 361 134 l 1,26,-1
 410 134 l 1,27,-1
 483 194 l 1,21,-1
EndSplineSet
EndChar
StartChar: integral
Encoding: 8747 8747 332
Width: 337
Flags: W
Fore
317 396 m 1,0,-1
 271 363 l 1,1,-1
 139 54 l 1,2,-1
 62 0 l 1,3,-1
 1 0 l 1,4,-1
 8 36 l 1,5,-1
 62 36 l 1,6,-1
 109 69 l 1,7,-1
 241 378 l 1,8,-1
 317 432 l 1,9,-1
 379 432 l 1,10,-1
 372 396 l 1,11,-1
 317 396 l 1,0,-1
EndSplineSet
EndChar
StartChar: approxequal
Encoding: 8776 8776 333
Width: 398
Flags: W
Fore
69 228 m 1,0,-1
 58 259 l 1,1,-1
 146 304 l 1,2,-1
 294 262 l 1,3,-1
 367 300 l 1,4,-1
 378 269 l 1,5,-1
 290 223 l 1,6,-1
 142 265 l 1,7,-1
 69 228 l 1,0,-1
346 201 m 1,8,-1
 357 169 l 1,9,-1
 269 124 l 1,10,-1
 121 166 l 1,11,-1
 48 128 l 1,12,-1
 37 159 l 1,13,-1
 125 205 l 1,14,-1
 273 163 l 1,15,-1
 346 201 l 1,8,-1
EndSplineSet
EndChar
StartChar: notequal
Encoding: 8800 8800 334
Width: 298
Flags: W
Fore
296 225 m 1,0,-1
 209 225 l 1,1,-1
 174 144 l 1,2,-1
 279 144 l 1,3,-1
 271 108 l 1,4,-1
 159 108 l 1,5,-1
 113 0 l 1,6,-1
 77 0 l 1,7,-1
 123 108 l 1,8,-1
 55 108 l 1,9,-1
 63 144 l 1,10,-1
 138 144 l 1,11,-1
 173 225 l 1,12,-1
 80 225 l 1,13,-1
 88 261 l 1,14,-1
 188 261 l 1,15,-1
 230 360 l 1,16,-1
 266 360 l 1,17,-1
 224 261 l 1,18,-1
 304 261 l 1,19,-1
 296 225 l 1,0,-1
EndSplineSet
EndChar
StartChar: lessequal
Encoding: 8804 8804 335
Width: 405
Flags: W
Fore
38 36 m 1,0,-1
 361 36 l 1,1,-1
 353 0 l 1,2,-1
 30 0 l 1,3,-1
 38 36 l 1,0,-1
111 217 m 1,4,-1
 111 214 l 1,5,-1
 377 110 l 1,6,-1
 369 72 l 1,7,-1
 69 189 l 1,8,-1
 81 243 l 1,9,-1
 430 360 l 1,10,-1
 421 321 l 1,11,-1
 111 217 l 1,4,-1
EndSplineSet
EndChar
StartChar: greaterequal
Encoding: 8805 8805 336
Width: 405
Flags: W
Fore
38 36 m 1,0,-1
 361 36 l 1,1,-1
 353 0 l 1,2,-1
 30 0 l 1,3,-1
 38 36 l 1,0,-1
405 243 m 1,4,-1
 393 189 l 1,5,-1
 45 72 l 1,6,-1
 53 110 l 1,7,-1
 363 214 l 1,8,-1
 363 217 l 1,9,-1
 97 321 l 1,10,-1
 106 360 l 1,11,-1
 405 243 l 1,4,-1
EndSplineSet
EndChar
StartChar: lozenge
Encoding: 9674 9674 337
Width: 341
Flags: W
Fore
272 414 m 1,0,-1
 332 207 l 1,1,-1
 185 0 l 1,2,-1
 131 0 l 1,3,-1
 72 207 l 1,4,-1
 218 414 l 1,5,-1
 272 414 l 1,0,-1
170 36 m 1,6,-1
 292 207 l 1,7,-1
 243 378 l 1,8,-1
 233 378 l 1,9,-1
 112 207 l 1,10,-1
 160 36 l 1,11,-1
 170 36 l 1,6,-1
EndSplineSet
EndChar
StartChar: dottedcircle
Encoding: 9676 9676 338
Width: 512
Flags: W
Fore
322 432 m 1,0,-1
 352 432 l 1,1,-1
 369 411 l 1,2,-1
 363 381 l 1,3,-1
 337 360 l 1,4,-1
 307 360 l 1,5,-1
 291 381 l 1,6,-1
 297 411 l 1,7,-1
 322 432 l 1,0,-1
246 72 m 1,8,-1
 276 72 l 1,9,-1
 292 51 l 1,10,-1
 286 21 l 1,11,-1
 261 0 l 1,12,-1
 231 0 l 1,13,-1
 214 21 l 1,14,-1
 220 51 l 1,15,-1
 246 72 l 1,8,-1
151 231 m 1,16,-1
 144 201 l 1,17,-1
 119 180 l 1,18,-1
 89 180 l 1,19,-1
 72 201 l 1,20,-1
 79 231 l 1,21,-1
 104 252 l 1,22,-1
 134 252 l 1,23,-1
 151 231 l 1,16,-1
494 252 m 1,24,-1
 511 231 l 1,25,-1
 504 201 l 1,26,-1
 479 180 l 1,27,-1
 449 180 l 1,28,-1
 432 201 l 1,29,-1
 439 231 l 1,30,-1
 464 252 l 1,31,-1
 494 252 l 1,24,-1
160 125 m 1,32,-1
 177 104 l 1,33,-1
 170 74 l 1,34,-1
 145 53 l 1,35,-1
 115 53 l 1,36,-1
 98 74 l 1,37,-1
 105 104 l 1,38,-1
 130 125 l 1,39,-1
 160 125 l 1,32,-1
423 307 m 1,40,-1
 406 328 l 1,41,-1
 413 358 l 1,42,-1
 438 379 l 1,43,-1
 468 379 l 1,44,-1
 485 358 l 1,45,-1
 478 328 l 1,46,-1
 453 307 l 1,47,-1
 423 307 l 1,40,-1
384 125 m 1,48,-1
 414 125 l 1,49,-1
 431 104 l 1,50,-1
 424 74 l 1,51,-1
 399 53 l 1,52,-1
 369 53 l 1,53,-1
 352 74 l 1,54,-1
 359 104 l 1,55,-1
 384 125 l 1,48,-1
184 379 m 1,56,-1
 214 379 l 1,57,-1
 231 358 l 1,58,-1
 224 328 l 1,59,-1
 199 307 l 1,60,-1
 169 307 l 1,61,-1
 152 328 l 1,62,-1
 159 358 l 1,63,-1
 184 379 l 1,56,-1
EndSplineSet
EndChar
StartChar: uni0E10.alt1
Encoding: 63232 63232 339
Width: 371
Flags: W
Fore
314 143 m 1,0,-1
 336 246 l 1,1,-1
 96 305 l 1,2,-1
 104 341 l 1,3,-1
 169 395 l 1,4,-1
 403 395 l 1,5,-1
 396 359 l 1,6,-1
 177 359 l 1,7,-1
 139 329 l 1,8,-1
 377 270 l 1,9,-1
 320 0 l 1,10,-1
 284 0 l 1,11,-1
 304 98 l 1,12,-1
 262 152 l 1,13,-1
 260 144 l 1,14,-1
 215 108 l 1,15,-1
 163 108 l 1,16,-1
 134 144 l 1,17,-1
 145 197 l 1,18,-1
 190 233 l 1,19,-1
 242 233 l 1,20,-1
 314 143 l 1,0,-1
232 157 m 1,21,-1
 237 183 l 1,22,-1
 222 202 l 1,23,-1
 196 202 l 1,24,-1
 175 184 l 1,25,-1
 169 157 l 1,26,-1
 183 139 l 1,27,-1
 209 139 l 1,28,-1
 232 157 l 1,21,-1
EndSplineSet
EndChar
StartChar: uni0E34.alt1
Encoding: 63233 63233 340
Width: 0
Flags: W
Fore
-72 563 m 1,0,-1
 -30 509 l 1,1,-1
 -41 455 l 1,2,-1
 -328 455 l 1,3,-1
 -317 509 l 1,4,-1
 -252 563 l 1,5,-1
 -72 563 l 1,0,-1
-290 486 m 1,6,-1
 -65 486 l 1,7,-1
 -63 496 l 1,8,9
 -70 504 -70 504 -77 513.5 c 128,-1,10
 -84 523 -84 523 -92 531 c 1,11,-1
 -246 531 l 1,12,13
 -256 523 -256 523 -267 513.5 c 128,-1,14
 -278 504 -278 504 -288 496 c 1,15,-1
 -290 486 l 1,6,-1
EndSplineSet
EndChar
StartChar: uni0E35.alt1
Encoding: 63234 63234 341
Width: 0
Flags: W
Fore
-38 617 m 1,0,-1
 -6 617 l 1,1,-1
 -41 455 l 1,2,-1
 -329 455 l 1,3,-1
 -317 510 l 1,4,-1
 -252 563 l 1,5,-1
 -72 563 l 1,6,-1
 -54 541 l 1,7,-1
 -38 617 l 1,0,-1
-291 487 m 1,8,-1
 -66 487 l 1,9,-1
 -64 496 l 1,10,11
 -70 505 -70 505 -77.5 514.5 c 128,-1,12
 -85 524 -85 524 -91 532 c 1,13,-1
 -245 532 l 1,14,15
 -256 524 -256 524 -267 514.5 c 128,-1,16
 -278 505 -278 505 -289 497 c 1,17,-1
 -291 487 l 1,8,-1
EndSplineSet
EndChar
StartChar: uni0E36.alt1
Encoding: 63235 63235 342
Width: 0
Flags: W
Fore
9 541 m 1,0,-1
 -30 509 l 1,1,-1
 -42 455 l 1,2,-1
 -329 455 l 1,3,-1
 -317 510 l 1,4,-1
 -253 563 l 1,5,-1
 -95 563 l 1,6,-1
 -90 586 l 1,7,-1
 -51 617 l 1,8,-1
 -7 617 l 1,9,-1
 18 585 l 1,10,-1
 9 541 l 1,0,-1
-64 497 m 1,11,12
 -70 505 -70 505 -77.5 514.5 c 128,-1,13
 -85 524 -85 524 -92 532 c 1,14,-1
 -246 532 l 1,15,16
 -257 524 -257 524 -267.5 514.5 c 128,-1,17
 -278 505 -278 505 -289 497 c 1,18,-1
 -291 487 l 1,19,-1
 -66 487 l 1,20,-1
 -64 497 l 1,11,12
-36 541 m 1,21,-1
 -21 554 l 1,22,-1
 -17 573 l 1,23,-1
 -27 586 l 1,24,-1
 -45 586 l 1,25,-1
 -62 573 l 1,26,-1
 -66 554 l 1,27,28
 -60 548 l 128,-1,29
 -57 545 -57 545 -54 541 c 1,30,-1
 -36 541 l 1,21,-1
EndSplineSet
EndChar
StartChar: uni0E37.alt1
Encoding: 63236 63236 343
Width: 0
Flags: W
Fore
-38 617 m 1,0,-1
 -7 617 l 1,1,-1
 -42 455 l 1,2,-1
 -330 455 l 1,3,-1
 -318 510 l 1,4,-1
 -253 563 l 1,5,-1
 -122 563 l 1,6,-1
 -110 617 l 1,7,-1
 -79 617 l 1,8,-1
 -91 563 l 1,9,-1
 -73 563 l 1,10,-1
 -54 541 l 1,11,-1
 -38 617 l 1,0,-1
-291 487 m 1,12,-1
 -66 487 l 1,13,-1
 -64 497 l 1,14,15
 -70 505 -70 505 -78 514.5 c 128,-1,16
 -86 524 -86 524 -92 532 c 1,17,-1
 -246 532 l 1,18,19
 -257 524 -257 524 -267.5 514.5 c 128,-1,20
 -278 505 -278 505 -289 497 c 1,21,-1
 -291 487 l 1,12,-1
EndSplineSet
EndChar
StartChar: uni0E48.alt1
Encoding: 63237 63237 344
Width: 0
Flags: W
Fore
-11 599 m 1,0,1
 -11 598 -11 598 -13.5 587 c 128,-1,2
 -16 576 -16 576 -19.5 560.5 c 128,-1,3
 -23 545 -23 545 -26.5 527 c 128,-1,4
 -30 509 -30 509 -33.5 493.5 c 128,-1,5
 -37 478 -37 478 -39.5 467 c 128,-1,6
 -42 456 -42 456 -42 455 c 1,7,-1
 -73 455 l 1,8,9
 -73 456 -73 456 -70.5 467 c 128,-1,10
 -68 478 -68 478 -65 493.5 c 128,-1,11
 -62 509 -62 509 -58 527 c 128,-1,12
 -54 545 -54 545 -51 560.5 c 128,-1,13
 -48 576 -48 576 -45.5 587 c 128,-1,14
 -43 598 -43 598 -43 599 c 1,15,-1
 -11 599 l 1,0,1
EndSplineSet
Substitution: 0 65534 'L026' uni0E48.alt3
Substitution: 0 65534 'L026' uni0E48.alt3
EndChar
StartChar: uni0E49.alt1
Encoding: 63238 63238 345
Width: 0
Flags: W
Fore
-14 583 m 1,0,1
 -12 581 -12 581 -5.5 572 c 128,-1,2
 1 563 1 563 3 561 c 1,3,4
 2 560 2 560 -7.5 552 c 128,-1,5
 -17 544 -17 544 -31 532.5 c 128,-1,6
 -45 521 -45 521 -61 508 c 128,-1,7
 -77 495 -77 495 -91 483.5 c 128,-1,8
 -105 472 -105 472 -114.5 464 c 128,-1,9
 -124 456 -124 456 -125 455 c 1,10,-1
 -251 455 l 1,11,-1
 -245 487 l 1,12,-1
 -224 487 l 1,13,14
 -222 488 -222 488 -220 490 c 256,15,16
 -218 492 -218 492 -216.5 493 c 128,-1,17
 -215 494 -215 494 -213 496 c 1,18,-1
 -236 526 l 1,19,-1
 -227 569 l 1,20,-1
 -191 598 l 1,21,-1
 -147 598 l 1,22,-1
 -124 569 l 1,23,-1
 -133 526 l 1,24,-1
 -180 487 l 1,25,-1
 -131 487 l 1,26,-1
 -14 583 l 1,0,1
-202 539 m 1,27,-1
 -193 527 l 1,28,-1
 -176 527 l 1,29,-1
 -161 539 l 1,30,-1
 -158 556 l 1,31,-1
 -167 568 l 1,32,-1
 -184 568 l 1,33,-1
 -199 556 l 1,34,-1
 -202 539 l 1,27,-1
EndSplineSet
Substitution: 0 65534 'L026' uni0E49.alt3
Substitution: 0 65534 'L026' uni0E49.alt3
EndChar
StartChar: uni0E4A.alt1
Encoding: 63239 63239 346
Width: 0
Flags: W
Fore
5 563 m 1,0,-1
 -126 455 l 1,1,-1
 -144 477 l 1,2,-1
 -102 513 l 1,3,-1
 -121 537 l 1,4,-1
 -191 479 l 1,5,-1
 -235 479 l 1,6,-1
 -259 507 l 1,7,-1
 -249 552 l 1,8,-1
 -214 582 l 1,9,-1
 -170 582 l 1,10,-1
 -147 552 l 1,11,-1
 -111 581 l 1,12,-1
 -75 535 l 1,13,-1
 -13 586 l 1,14,-1
 5 563 l 1,0,-1
-198 509 m 1,15,16
 -184 521 l 1,17,-1
 -180 538 l 1,18,-1
 -190 550 l 1,19,-1
 -207 550 l 1,20,21
 -211 547 -211 547 -214 544 c 128,-1,22
 -217 541 -217 541 -221 538 c 1,23,-1
 -225 521 l 1,24,-1
 -216 509 l 1,25,-1
 -198 509 l 1,15,16
EndSplineSet
Substitution: 0 65534 'L026' uni0E4A.alt3
Substitution: 0 65534 'L026' uni0E4A.alt3
EndChar
StartChar: uni0E4B.alt1
Encoding: 63240 63240 347
Width: 0
Flags: W
Fore
4 543 m 1,0,-1
 -3 511 l 1,1,-1
 -59 511 l 1,2,-1
 -71 455 l 1,3,-1
 -103 455 l 1,4,-1
 -91 511 l 1,5,-1
 -147 511 l 1,6,-1
 -140 543 l 1,7,-1
 -84 543 l 1,8,-1
 -72 599 l 1,9,-1
 -40 599 l 1,10,-1
 -52 543 l 1,11,-1
 4 543 l 1,12,-1
 4 543 l 1,0,-1
EndSplineSet
Substitution: 0 65534 'L026' uni0E4B.alt3
Substitution: 0 65534 'L026' uni0E4B.alt3
EndChar
StartChar: uni0E4C.alt1
Encoding: 63241 63241 348
Width: 0
Flags: W
Fore
-34 487 m 1,0,-1
 -72 455 l 1,1,-1
 -117 455 l 1,2,-1
 -142 486 l 1,3,-1
 -132 531 l 1,4,-1
 15 653 l 1,5,-1
 33 631 l 1,6,7
 20 620 20 620 6 609 c 0,8,9
 -6 599 -6 599 -21 586.5 c 128,-1,10
 -36 574 -36 574 -50 563 c 1,11,-1
 -25 531 l 1,12,-1
 -34 487 l 1,0,-1
-59 518 m 1,13,-1
 -69 531 l 1,14,-1
 -88 531 l 1,15,-1
 -104 518 l 1,16,-1
 -108 499 l 1,17,-1
 -97 486 l 1,18,-1
 -79 486 l 1,19,-1
 -63 499 l 1,20,-1
 -59 518 l 1,13,-1
EndSplineSet
Substitution: 0 65534 'L026' uni0E4C.alt3
Substitution: 0 65534 'L026' uni0E4C.alt3
EndChar
StartChar: uni0E48.alt2
Encoding: 63242 63242 349
Width: 0
Flags: W
Fore
76 598 m 1,0,1
 76 597 76 597 73.5 586.5 c 128,-1,2
 71 576 71 576 67.5 560 c 128,-1,3
 64 544 64 544 60.5 526.5 c 128,-1,4
 57 509 57 509 53.5 493 c 128,-1,5
 50 477 50 477 47.5 466.5 c 128,-1,6
 45 456 45 456 45 455 c 1,7,-1
 14 455 l 1,8,9
 14 456 14 456 16.5 466.5 c 128,-1,10
 19 477 19 477 22 493 c 128,-1,11
 25 509 25 509 29 526.5 c 128,-1,12
 33 544 33 544 36 560 c 128,-1,13
 39 576 39 576 41.5 586.5 c 128,-1,14
 44 597 44 597 44 598 c 1,15,-1
 76 598 l 1,0,1
EndSplineSet
Substitution: 0 65534 'L028' uni0E48.alt3
Substitution: 0 65534 'L027' uni0E48
Substitution: 0 65534 'L026' uni0E48.alt1
Substitution: 0 65534 'L028' uni0E48.alt3
Substitution: 0 65534 'L027' uni0E48
Substitution: 0 65534 'L026' uni0E48.alt1
EndChar
StartChar: uni0E49.alt2
Encoding: 63243 63243 350
Width: 0
Flags: W
Fore
155 582 m 1,0,1
 157 580 157 580 163.5 571 c 128,-1,2
 170 562 170 562 172 560 c 1,3,4
 171 559 171 559 161.5 551.5 c 128,-1,5
 152 544 152 544 138 532.5 c 128,-1,6
 124 521 124 521 108 507.5 c 128,-1,7
 92 494 92 494 78 482.5 c 128,-1,8
 64 471 64 471 54.5 463.5 c 128,-1,9
 45 456 45 456 44 455 c 1,10,-1
 -82 455 l 1,11,-1
 -76 486 l 1,12,-1
 -55 486 l 1,13,14
 -53 487 -53 487 -51 489 c 256,15,16
 -49 491 -49 491 -47.5 492 c 128,-1,17
 -46 493 -46 493 -44 495 c 1,18,-1
 -68 525 l 1,19,-1
 -58 568 l 1,20,-1
 -22 598 l 1,21,-1
 21 598 l 1,22,-1
 45 569 l 1,23,-1
 35 525 l 1,24,-1
 -11 486 l 1,25,-1
 38 486 l 1,26,-1
 155 582 l 1,0,1
-33 538 m 1,27,-1
 -24 526 l 1,28,-1
 -7 526 l 1,29,-1
 8 538 l 1,30,-1
 11 555 l 1,31,-1
 2 567 l 1,32,-1
 -15 567 l 1,33,-1
 -30 555 l 1,34,-1
 -33 538 l 1,27,-1
EndSplineSet
Substitution: 0 65534 'L028' uni0E49.alt3
Substitution: 0 65534 'L027' uni0E49
Substitution: 0 65534 'L026' uni0E49.alt1
Substitution: 0 65534 'L028' uni0E49.alt3
Substitution: 0 65534 'L027' uni0E49
Substitution: 0 65534 'L026' uni0E49.alt1
EndChar
StartChar: uni0E4A.alt2
Encoding: 63244 63244 351
Width: 0
Flags: W
Fore
187 562 m 1,0,-1
 56 454 l 1,1,-1
 38 476 l 1,2,-1
 81 511 l 1,3,-1
 62 536 l 1,4,-1
 -9 478 l 1,5,-1
 -53 478 l 1,6,-1
 -76 506 l 1,7,-1
 -67 551 l 1,8,-1
 -32 581 l 1,9,-1
 12 581 l 1,10,-1
 36 551 l 1,11,-1
 71 580 l 1,12,-1
 108 534 l 1,13,-1
 169 585 l 1,14,-1
 187 562 l 1,0,-1
-16 508 m 1,15,16
 -15 509 -15 509 -11.5 512 c 128,-1,17
 -8 515 -8 515 -2 520 c 1,18,-1
 2 537 l 1,19,-1
 -7 549 l 1,20,-1
 -24 549 l 1,21,-1
 -39 537 l 1,22,-1
 -43 520 l 1,23,-1
 -33 508 l 1,24,-1
 -16 508 l 1,15,16
EndSplineSet
Substitution: 0 65534 'L028' uni0E4A.alt3
Substitution: 0 65534 'L027' uni0E4A
Substitution: 0 65534 'L026' uni0E4A.alt1
Substitution: 0 65534 'L028' uni0E4A.alt3
Substitution: 0 65534 'L027' uni0E4A
Substitution: 0 65534 'L026' uni0E4A.alt1
EndChar
StartChar: uni0E4B.alt2
Encoding: 63245 63245 352
Width: 0
Flags: W
Fore
121 543 m 1,0,-1
 114 511 l 1,1,-1
 58 511 l 1,2,-1
 46 455 l 1,3,-1
 14 455 l 1,4,-1
 26 511 l 1,5,-1
 -30 511 l 1,6,-1
 -23 543 l 1,7,-1
 33 543 l 1,8,-1
 45 599 l 1,9,-1
 76 599 l 1,10,-1
 64 543 l 1,11,-1
 121 543 l 1,12,-1
 121 543 l 1,0,-1
EndSplineSet
Substitution: 0 65534 'L028' uni0E4B.alt3
Substitution: 0 65534 'L027' uni0E4B
Substitution: 0 65534 'L026' uni0E4B.alt1
Substitution: 0 65534 'L028' uni0E4B.alt3
Substitution: 0 65534 'L027' uni0E4B
Substitution: 0 65534 'L026' uni0E4B.alt1
EndChar
StartChar: uni0E4C.alt2
Encoding: 63246 63246 353
Width: 0
Flags: W
Fore
52 486 m 1,0,-1
 14 455 l 1,1,-1
 -31 455 l 1,2,-1
 -56 486 l 1,3,-1
 -46 531 l 1,4,-1
 101 653 l 1,5,-1
 119 631 l 1,6,7
 106 620 106 620 92 609 c 0,8,9
 80 599 80 599 65 586.5 c 128,-1,10
 50 574 50 574 36 563 c 1,11,-1
 61 531 l 1,12,-1
 52 486 l 1,0,-1
27 518 m 1,13,-1
 17 531 l 1,14,-1
 -2 531 l 1,15,-1
 -18 518 l 1,16,-1
 -22 499 l 1,17,-1
 -11 486 l 1,18,-1
 7 486 l 1,19,-1
 23 499 l 1,20,-1
 27 518 l 1,13,-1
EndSplineSet
Substitution: 0 65534 'L028' uni0E4C.alt3
Substitution: 0 65534 'L027' uni0E4C
Substitution: 0 65534 'L026' uni0E4C.alt1
Substitution: 0 65534 'L028' uni0E4C.alt3
Substitution: 0 65534 'L027' uni0E4C
Substitution: 0 65534 'L026' uni0E4C.alt1
EndChar
StartChar: uni0E0D.alt1
Encoding: 63247 63247 354
Width: 570
Flags: W
Fore
567 396 m 1,0,-1
 603 396 l 1,1,-1
 530 54 l 1,2,-1
 464 0 l 1,3,-1
 302 0 l 1,4,-1
 372 327 l 1,5,-1
 346 360 l 1,6,-1
 178 360 l 1,7,-1
 156 342 l 1,8,-1
 201 284 l 1,9,-1
 135 230 l 1,10,-1
 113 125 l 1,11,-1
 114 126 l 1,12,-1
 166 126 l 1,13,-1
 195 89 l 1,14,-1
 184 37 l 1,15,-1
 139 0 l 1,16,-1
 87 0 l 1,17,-1
 58 37 l 1,18,-1
 102 245 l 1,19,-1
 150 284 l 1,20,-1
 105 342 l 1,21,-1
 171 396 l 1,22,-1
 369 396 l 1,23,-1
 411 342 l 1,24,-1
 346 36 l 1,25,-1
 457 36 l 1,26,-1
 497 69 l 1,27,-1
 567 396 l 1,0,-1
120 94 m 1,28,-1
 99 76 l 1,29,-1
 93 50 l 1,30,-1
 107 31 l 1,31,-1
 133 31 l 1,32,-1
 156 50 l 1,33,-1
 162 76 l 1,34,-1
 146 94 l 1,35,-1
 120 94 l 1,28,-1
EndSplineSet
EndChar
StartChar: uni0E31.alt1
Encoding: 63248 63248 355
Width: 0
Flags: W
Fore
-4 523 m 1,0,1
 -5 522 -5 522 -17.5 511.5 c 128,-1,2
 -30 501 -30 501 -45.5 489 c 128,-1,3
 -61 477 -61 477 -73.5 466.5 c 128,-1,4
 -86 456 -86 456 -87 455 c 1,5,-1
 -279 455 l 1,6,-1
 -304 486 l 1,7,-1
 -294 531 l 1,8,-1
 -256 563 l 1,9,-1
 -211 563 l 1,10,-1
 -186 531 l 1,11,-1
 -196 487 l 1,12,-1
 -93 486 l 1,13,-1
 -22 545 l 1,14,-1
 -4 523 l 1,0,1
-241 486 m 1,15,-1
 -225 500 l 1,16,-1
 -221 518 l 1,17,-1
 -231 531 l 1,18,-1
 -250 531 l 1,19,-1
 -266 518 l 1,20,-1
 -270 500 l 1,21,-1
 -259 486 l 1,22,-1
 -241 486 l 1,15,-1
EndSplineSet
EndChar
StartChar: uni0E4D.alt1
Encoding: 63249 63249 356
Width: 0
Flags: W
Fore
-104 581 m 1,0,-1
 -52 581 l 1,1,-1
 -23 544 l 1,2,-1
 -34 492 l 1,3,-1
 -79 455 l 1,4,-1
 -131 455 l 1,5,-1
 -160 492 l 1,6,-1
 -149 544 l 1,7,-1
 -104 581 l 1,0,-1
-63 505 m 1,8,-1
 -57 531 l 1,9,-1
 -72 550 l 1,10,-1
 -98 550 l 1,11,-1
 -120 531 l 1,12,-1
 -126 505 l 1,13,-1
 -111 487 l 1,14,-1
 -85 487 l 1,15,-1
 -63 505 l 1,8,-1
EndSplineSet
EndChar
StartChar: uni0E47.alt1
Encoding: 63250 63250 357
Width: 0
Flags: W
Fore
-51 559 m 1,0,1
 -51 558 -51 558 -47 553.5 c 128,-1,2
 -43 549 -43 549 -38 544 c 2,3,-1
 -26 530 l 1,4,-1
 -35 486 l 1,5,-1
 -72 455 l 1,6,-1
 -167 455 l 1,7,-1
 -189 483 l 1,8,-1
 -222 455 l 1,9,-1
 -258 455 l 1,10,-1
 -239 546 l 1,11,-1
 -173 599 l 1,12,-1
 -61 599 l 1,13,-1
 -17 636 l 1,14,-1
 1 613 l 1,15,16
 -14 602 -14 602 -25 592 c 0,17,18
 -35 584 -35 584 -43.5 577 c 128,-1,19
 -52 570 -52 570 -54 568 c 1,20,-1
 -167 568 l 1,21,-1
 -210 532 l 1,22,-1
 -218 496 l 1,23,24
 -210 503 -210 503 -202 509 c 0,25,26
 -195 514 -195 514 -189 519.5 c 128,-1,27
 -183 525 -183 525 -180 527 c 1,28,29
 -178 525 -178 525 -172.5 518.5 c 128,-1,30
 -167 512 -167 512 -162 505 c 2,31,-1
 -148 487 l 1,32,-1
 -139 487 l 1,33,-1
 -130 529 l 1,34,-1
 -94 559 l 1,35,-1
 -51 559 l 1,0,1
-61 516 m 1,36,-1
 -70 528 l 1,37,-1
 -87 528 l 1,38,-1
 -102 516 l 1,39,-1
 -105 499 l 1,40,-1
 -96 487 l 1,41,-1
 -79 487 l 1,42,-1
 -64 499 l 1,43,-1
 -61 516 l 1,36,-1
EndSplineSet
EndChar
StartChar: uni0E48.alt3
Encoding: 63251 63251 358
Width: 0
Flags: W
Fore
29 784 m 1,0,1
 29 782 29 782 24 760.5 c 128,-1,2
 19 739 19 739 13.5 712.5 c 128,-1,3
 8 686 8 686 3 664 c 128,-1,4
 -2 642 -2 642 -2 640 c 1,5,-1
 -33 640 l 1,6,7
 -33 642 -33 642 -28 664 c 128,-1,8
 -23 686 -23 686 -17.5 712.5 c 128,-1,9
 -12 739 -12 739 -7.5 760.5 c 128,-1,10
 -3 782 -3 782 -3 784 c 1,11,-1
 29 784 l 1,0,1
EndSplineSet
EndChar
StartChar: uni0E49.alt3
Encoding: 63252 63252 359
Width: 0
Flags: W
Fore
131 768 m 1,0,1
 133 766 133 766 139.5 756.5 c 128,-1,2
 146 747 146 747 148 745 c 1,3,4
 147 744 147 744 127 728 c 128,-1,5
 107 712 107 712 84 692.5 c 128,-1,6
 61 673 61 673 41 657 c 128,-1,7
 21 641 21 641 20 640 c 1,8,-1
 -107 640 l 1,9,-1
 -100 671 l 1,10,-1
 -79 671 l 1,11,12
 -77 672 -77 672 -75 674 c 256,13,14
 -73 676 -73 676 -71.5 677 c 128,-1,15
 -70 678 -70 678 -68 680 c 1,16,-1
 -92 710 l 1,17,-1
 -83 753 l 1,18,-1
 -46 783 l 1,19,-1
 -3 783 l 1,20,-1
 21 754 l 1,21,-1
 11 710 l 1,22,-1
 -35 671 l 1,23,-1
 14 671 l 1,24,-1
 131 768 l 1,0,1
-57 723 m 1,25,-1
 -48 711 l 1,26,-1
 -31 711 l 1,27,-1
 -16 723 l 1,28,-1
 -13 740 l 1,29,-1
 -22 752 l 1,30,-1
 -39 752 l 1,31,-1
 -54 740 l 1,32,-1
 -57 723 l 1,25,-1
EndSplineSet
EndChar
StartChar: uni0E4A.alt3
Encoding: 63253 63253 360
Width: 0
Flags: W
Fore
141 748 m 1,0,-1
 10 640 l 1,1,-1
 -8 662 l 1,2,-1
 35 697 l 1,3,-1
 15 721 l 1,4,-1
 -55 663 l 1,5,-1
 -99 663 l 1,6,-1
 -123 692 l 1,7,-1
 -113 736 l 1,8,-1
 -78 766 l 1,9,-1
 -34 766 l 1,10,-1
 -11 736 l 1,11,-1
 25 766 l 1,12,-1
 62 719 l 1,13,-1
 123 770 l 1,14,-1
 141 748 l 1,0,-1
-62 693 m 1,15,16
 -61 695 -61 695 -58 697 c 0,17,18
 -56 699 -56 699 -48 705 c 1,19,-1
 -44 722 l 1,20,-1
 -54 734 l 1,21,-1
 -71 734 l 1,22,23
 -75 731 -75 731 -78 728 c 128,-1,24
 -81 725 -81 725 -85 722 c 1,25,-1
 -89 705 l 1,26,-1
 -79 693 l 1,27,-1
 -62 693 l 1,15,16
EndSplineSet
EndChar
StartChar: uni0E4B.alt3
Encoding: 63254 63254 361
Width: 0
Flags: W
Fore
74 728 m 1,0,-1
 67 696 l 1,1,-1
 11 696 l 1,2,-1
 -1 640 l 1,3,-1
 -33 640 l 1,4,-1
 -21 696 l 1,5,-1
 -77 696 l 1,6,-1
 -70 728 l 1,7,-1
 -14 728 l 1,8,-1
 -2 784 l 1,9,-1
 29 784 l 1,10,-1
 17 728 l 1,11,-1
 74 728 l 1,12,-1
 74 728 l 1,0,-1
EndSplineSet
EndChar
StartChar: uni0E4C.alt3
Encoding: 63255 63255 362
Width: 0
Flags: W
Fore
5 615 m 1,0,-1
 -33 583 l 1,1,-1
 -78 583 l 1,2,-1
 -103 615 l 1,3,-1
 -93 660 l 1,4,-1
 54 782 l 1,5,-1
 72 760 l 1,6,7
 59 748 59 748 45 737 c 0,8,9
 33 727 33 727 18 715 c 128,-1,10
 3 703 3 703 -11 691 c 1,11,-1
 14 660 l 1,12,-1
 5 615 l 1,0,-1
-24 628 m 1,13,-1
 -20 647 l 1,14,-1
 -30 660 l 1,15,-1
 -49 660 l 1,16,-1
 -65 647 l 1,17,-1
 -69 628 l 1,18,-1
 -58 615 l 1,19,-1
 -40 615 l 1,20,-1
 -24 628 l 1,13,-1
EndSplineSet
EndChar
StartChar: uni0E38.alt1
Encoding: 63256 63256 363
Width: 0
Flags: W
Fore
-101 -241 m 1,0,-1
 -137 -407 l 1,1,-1
 -173 -407 l 1,2,-1
 -153 -317 l 1,3,-1
 -193 -317 l 1,4,-1
 -219 -285 l 1,5,-1
 -209 -241 l 1,6,-1
 -170 -209 l 1,7,-1
 -126 -209 l 1,8,-1
 -101 -241 l 1,0,-1
-174 -286 m 1,9,-1
 -156 -286 l 1,10,-1
 -139 -272 l 1,11,-1
 -135 -254 l 1,12,-1
 -146 -241 l 1,13,-1
 -164 -241 l 1,14,-1
 -180 -254 l 1,15,-1
 -184 -272 l 1,16,-1
 -174 -286 l 1,9,-1
EndSplineSet
EndChar
StartChar: uni0E39.alt1
Encoding: 63257 63257 364
Width: 0
Flags: W
Fore
-129 -208 m 1,0,-1
 -93 -208 l 1,1,-1
 -136 -406 l 1,2,-1
 -262 -406 l 1,3,-1
 -242 -316 l 1,4,-1
 -282 -316 l 1,5,-1
 -308 -284 l 1,6,-1
 -298 -239 l 1,7,-1
 -259 -208 l 1,8,-1
 -214 -208 l 1,9,-1
 -190 -240 l 1,10,-1
 -218 -370 l 1,11,-1
 -164 -370 l 1,12,-1
 -129 -208 l 1,0,-1
-263 -284 m 1,13,-1
 -245 -284 l 1,14,-1
 -228 -271 l 1,15,-1
 -224 -252 l 1,16,-1
 -235 -239 l 1,17,-1
 -253 -239 l 1,18,-1
 -269 -252 l 1,19,-1
 -273 -271 l 1,20,-1
 -263 -284 l 1,13,-1
EndSplineSet
EndChar
StartChar: uni0E3A.alt1
Encoding: 63258 63258 365
Width: 0
Flags: W
Fore
-98 -229 m 1,0,-1
 -104 -258 l 1,1,-1
 -130 -280 l 1,2,-1
 -159 -280 l 1,3,-1
 -175 -258 l 1,4,-1
 -169 -229 l 1,5,-1
 -144 -208 l 1,6,-1
 -115 -208 l 1,7,-1
 -98 -229 l 1,0,-1
EndSplineSet
EndChar
StartChar: uni0E0E.alt1
Encoding: 63259 63259 366
Width: 448
Flags: W
Fore
469 342 m 1,0,-1
 358 -180 l 1,1,-1
 322 -180 l 1,2,-1
 293 -142 l 1,3,-1
 247 -180 l 1,4,-1
 106 -180 l 1,5,-1
 78 -144 l 1,6,-1
 89 -90 l 1,7,-1
 133 -54 l 1,8,-1
 274 -54 l 1,9,-1
 333 -129 l 1,10,-1
 430 327 l 1,11,-1
 404 360 l 1,12,-1
 236 360 l 1,13,-1
 214 342 l 1,14,-1
 259 285 l 1,15,-1
 194 231 l 1,16,-1
 152 37 l 1,17,-1
 108 0 l 1,18,-1
 56 0 l 1,19,-1
 26 37 l 1,20,-1
 37 89 l 1,21,-1
 82 126 l 1,22,-1
 134 126 l 1,23,-1
 135 125 l 1,24,-1
 161 245 l 1,25,-1
 208 285 l 1,26,-1
 163 342 l 1,27,-1
 229 396 l 1,28,-1
 427 396 l 1,29,-1
 469 342 l 1,0,-1
130 76 m 1,30,-1
 115 94 l 1,31,-1
 89 94 l 1,32,-1
 67 76 l 1,33,-1
 61 50 l 1,34,-1
 75 31 l 1,35,-1
 101 31 l 1,36,-1
 124 50 l 1,37,-1
 130 76 l 1,30,-1
273 -117 m 1,38,-1
 251 -90 l 1,39,-1
 140 -90 l 1,40,-1
 122 -105 l 1,41,-1
 117 -129 l 1,42,-1
 129 -144 l 1,43,-1
 240 -144 l 1,44,-1
 273 -117 l 1,38,-1
EndSplineSet
EndChar
StartChar: uni0E0F.alt1
Encoding: 63260 63260 367
Width: 447
Flags: W
Fore
508 342 m 1,0,-1
 397 -179 l 1,1,-1
 360 -179 l 1,2,-1
 331 -142 l 1,3,-1
 285 -180 l 1,4,-1
 256 -142 l 1,5,-1
 210 -179 l 1,6,-1
 145 -179 l 1,7,-1
 117 -143 l 1,8,-1
 129 -89 l 1,9,-1
 172 -54 l 1,10,-1
 237 -54 l 1,11,-1
 296 -129 l 1,12,-1
 342 -91 l 1,13,-1
 372 -129 l 1,14,-1
 469 327 l 1,15,-1
 443 360 l 1,16,-1
 275 360 l 1,17,-1
 253 342 l 1,18,-1
 298 285 l 1,19,-1
 233 231 l 1,20,-1
 191 37 l 1,21,-1
 147 0 l 1,22,-1
 95 0 l 1,23,-1
 65 37 l 1,24,-1
 76 89 l 1,25,-1
 121 126 l 1,26,-1
 173 126 l 1,27,-1
 174 125 l 1,28,-1
 200 246 l 1,29,-1
 247 285 l 1,30,-1
 202 342 l 1,31,-1
 268 396 l 1,32,-1
 466 396 l 1,33,-1
 508 342 l 1,0,-1
168 76 m 1,34,-1
 154 95 l 1,35,-1
 128 95 l 1,36,-1
 105 76 l 1,37,-1
 99 50 l 1,38,-1
 114 32 l 1,39,-1
 140 32 l 1,40,-1
 162 50 l 1,41,-1
 168 76 l 1,34,-1
236 -116 m 1,42,-1
 215 -89 l 1,43,-1
 180 -89 l 1,44,-1
 161 -104 l 1,45,-1
 156 -128 l 1,46,-1
 168 -143 l 1,47,-1
 203 -143 l 1,48,-1
 236 -116 l 1,42,-1
EndSplineSet
EndChar
StartChar: uni0E2C.alt1
Encoding: 63261 63261 368
Width: 447
Flags: W
Fore
531 415 m 1,0,-1
 549 393 l 1,1,-1
 466 325 l 1,2,-1
 397 0 l 1,3,-1
 361 0 l 1,4,-1
 294 189 l 1,5,-1
 145 0 l 1,6,-1
 109 0 l 1,7,-1
 167 271 l 1,8,-1
 166 270 l 1,9,-1
 114 270 l 1,10,-1
 85 307 l 1,11,-1
 96 359 l 1,12,-1
 141 396 l 1,13,-1
 193 396 l 1,14,-1
 222 359 l 1,15,-1
 159 64 l 1,16,-1
 307 252 l 1,17,-1
 375 64 l 1,18,-1
 423 289 l 1,19,-1
 422 288 l 1,20,-1
 370 288 l 1,21,-1
 340 325 l 1,22,-1
 352 377 l 1,23,-1
 396 414 l 1,24,-1
 448 414 l 1,25,-1
 478 377 l 1,26,-1
 476 369 l 1,27,-1
 531 415 l 1,0,-1
160 302 m 1,28,-1
 182 320 l 1,29,-1
 188 346 l 1,30,-1
 173 365 l 1,31,-1
 147 365 l 1,32,-1
 125 346 l 1,33,-1
 119 320 l 1,34,-1
 134 302 l 1,35,-1
 160 302 l 1,28,-1
415 320 m 1,36,-1
 437 338 l 1,37,-1
 443 364 l 1,38,-1
 429 383 l 1,39,-1
 403 383 l 1,40,-1
 380 364 l 1,41,-1
 374 338 l 1,42,-1
 389 320 l 1,43,-1
 415 320 l 1,36,-1
EndSplineSet
EndChar
StartChar: uni0E24.liga
Encoding: 63617 63617 370
Width: 622
Flags: W
Fore
602 396 m 1,0,-1
 643 342 l 1,1,-1
 532 -180 l 1,2,-1
 496 -180 l 1,3,-1
 604 327 l 1,4,-1
 579 360 l 1,5,-1
 447 360 l 1,6,-1
 407 327 l 1,7,-1
 299 -180 l 1,8,-1
 263 -180 l 1,9,-1
 371 327 l 1,10,-1
 345 360 l 1,11,-1
 177 360 l 1,12,-1
 155 341 l 1,13,-1
 200 284 l 1,14,-1
 134 230 l 1,15,-1
 112 125 l 1,16,-1
 113 126 l 1,17,-1
 165 126 l 1,18,-1
 194 89 l 1,19,-1
 183 37 l 1,20,-1
 139 0 l 1,21,-1
 87 0 l 1,22,-1
 57 37 l 1,23,-1
 102 245 l 1,24,-1
 149 284 l 1,25,-1
 104 342 l 1,26,-1
 170 396 l 1,27,-1
 368 396 l 1,28,-1
 396 360 l 1,29,-1
 440 396 l 1,30,-1
 602 396 l 1,0,-1
120 94 m 1,31,-1
 97 76 l 1,32,-1
 91 50 l 1,33,-1
 106 31 l 1,34,-1
 132 31 l 1,35,-1
 154 50 l 1,36,-1
 160 76 l 1,37,-1
 146 94 l 1,38,-1
 120 94 l 1,31,-1
EndSplineSet
Ligature: 0 0 'liga' uni0E24 uni0E45
Ligature: 0 0 'liga' uni0E24 uni0E32
EndChar
StartChar: uni0E26.liga
Encoding: 63618 63618 371
Width: 681
Flags: W
Fore
660 396 m 1,0,-1
 702 342 l 1,1,-1
 591 -180 l 1,2,-1
 555 -180 l 1,3,-1
 663 327 l 1,4,-1
 637 360 l 1,5,-1
 505 360 l 1,6,-1
 465 327 l 1,7,-1
 357 -180 l 1,8,-1
 321 -180 l 1,9,-1
 429 327 l 1,10,-1
 404 360 l 1,11,-1
 235 360 l 1,12,-1
 213 342 l 1,13,-1
 258 285 l 1,14,-1
 193 231 l 1,15,-1
 151 37 l 1,16,-1
 108 0 l 1,17,-1
 55 0 l 1,18,-1
 26 37 l 1,19,-1
 37 89 l 1,20,-1
 81 126 l 1,21,-1
 134 126 l 1,22,-1
 135 125 l 1,23,-1
 161 246 l 1,24,-1
 208 285 l 1,25,-1
 163 342 l 1,26,-1
 229 396 l 1,27,-1
 426 396 l 1,28,-1
 454 360 l 1,29,-1
 498 396 l 1,30,-1
 660 396 l 1,0,-1
123 50 m 1,31,-1
 129 76 l 1,32,-1
 115 95 l 1,33,-1
 88 95 l 1,34,-1
 66 76 l 1,35,-1
 60 50 l 1,36,-1
 74 32 l 1,37,-1
 101 32 l 1,38,-1
 123 50 l 1,31,-1
EndSplineSet
Ligature: 0 0 'liga' uni0E26 uni0E45
Ligature: 0 0 'liga' uni0E26 uni0E32
EndChar
StartChar: fi
Encoding: 64257 64257 372
Width: 245
Flags: W
Fore
124 270 m 1,0,-1
 250 270 l 1,1,-1
 193 0 l 1,2,-1
 157 0 l 1,3,-1
 206 234 l 1,4,-1
 116 234 l 1,5,-1
 67 0 l 1,6,-1
 32 0 l 1,7,-1
 111 378 l 1,8,-1
 176 432 l 1,9,-1
 248 432 l 1,10,-1
 241 396 l 1,11,-1
 184 396 l 1,12,-1
 144 363 l 1,13,-1
 124 270 l 1,0,-1
EndSplineSet
Ligature: 0 0 'liga' f i
EndChar
StartChar: fl
Encoding: 64258 64258 373
Width: 245
Flags: W
Fore
112 378 m 1,0,-1
 177 432 l 1,1,-1
 249 432 l 1,2,-1
 242 396 l 1,3,-1
 185 396 l 1,4,-1
 145 363 l 1,5,-1
 125 270 l 1,6,-1
 179 270 l 1,7,-1
 171 234 l 1,8,-1
 117 234 l 1,9,-1
 68 0 l 1,10,-1
 33 0 l 1,11,-1
 112 378 l 1,0,-1
249 432 m 1,12,-1
 285 432 l 1,13,-1
 194 0 l 1,14,-1
 158 0 l 1,15,-1
 249 432 l 1,12,-1
EndSplineSet
Ligature: 0 0 'liga' f l
EndChar
StartChar: CHAKRA
Encoding: 65541 -1 374
Width: 1416
Flags: W
Fore
180 182 m 1,0,-1
 43 182 l 1,1,-1
 43 355 l 1,2,-1
 113 355 l 1,3,-1
 113 337 l 1,4,-1
 95 337 l 1,5,-1
 95 200 l 1,6,-1
 128 200 l 1,7,-1
 128 370 l 1,8,-1
 43 370 l 1,9,-1
 43 387 l 1,10,-1
 180 387 l 1,11,-1
 180 182 l 1,0,-1
230 430 m 1,12,-1
 230 415 l 1,13,-1
 128 415 l 1,14,-1
 128 447 l 1,15,-1
 180 447 l 1,16,-1
 180 430 l 1,17,-1
 230 430 l 1,12,-1
360 387 m 1,18,-1
 360 182 l 1,19,-1
 308 182 l 1,20,-1
 308 370 l 1,21,-1
 275 370 l 1,22,-1
 275 182 l 1,23,-1
 223 182 l 1,24,-1
 223 370 l 1,25,-1
 205 370 l 1,26,-1
 205 387 l 1,27,-1
 360 387 l 1,18,-1
540 327 m 1,28,-1
 540 182 l 1,29,-1
 403 182 l 1,30,-1
 403 370 l 1,31,-1
 385 370 l 1,32,-1
 385 387 l 1,33,-1
 455 387 l 1,34,-1
 455 200 l 1,35,-1
 488 200 l 1,36,-1
 488 327 l 1,37,-1
 470 327 l 1,38,-1
 470 345 l 1,39,-1
 488 345 l 1,40,-1
 488 387 l 1,41,-1
 540 387 l 1,42,-1
 540 345 l 1,43,-1
 558 345 l 1,44,-1
 558 327 l 1,45,-1
 540 327 l 1,28,-1
650 182 m 1,46,-1
 583 182 l 1,47,-1
 583 200 l 1,48,-1
 600 200 l 1,49,-1
 600 337 l 1,50,-1
 565 337 l 1,51,-1
 565 387 l 1,52,-1
 650 387 l 1,53,-1
 650 370 l 1,54,-1
 618 370 l 1,55,-1
 618 355 l 1,56,-1
 650 355 l 1,57,-1
 650 182 l 1,46,-1
883 422 m 1,58,-1
 883 182 l 1,59,-1
 763 182 l 1,60,-1
 748 337 l 1,61,-1
 728 337 l 1,62,-1
 728 200 l 1,63,-1
 745 200 l 1,64,-1
 745 182 l 1,65,-1
 678 182 l 1,66,-1
 678 355 l 1,67,-1
 798 355 l 1,68,-1
 813 200 l 1,69,-1
 830 200 l 1,70,-1
 830 370 l 1,71,-1
 678 370 l 1,72,-1
 678 387 l 1,73,-1
 830 387 l 1,74,-1
 830 422 l 1,75,-1
 883 422 l 1,58,-1
1070 182 m 1,76,-1
 1063 182 l 1,77,-1
 1063 175 l 1,78,-1
 1010 175 l 1,79,-1
 1010 182 l 1,80,-1
 925 182 l 1,81,-1
 925 370 l 1,82,-1
 908 370 l 1,83,-1
 908 387 l 1,84,-1
 978 387 l 1,85,-1
 978 200 l 1,86,-1
 1010 200 l 1,87,-1
 1010 387 l 1,88,-1
 1063 387 l 1,89,-1
 1063 200 l 1,90,-1
 1070 200 l 1,91,-1
 1070 182 l 1,76,-1
1173 387 m 1,92,-1
 1173 182 l 1,93,-1
 1123 182 l 1,94,-1
 1123 370 l 1,95,-1
 1088 370 l 1,96,-1
 1088 387 l 1,97,-1
 1173 387 l 1,92,-1
1363 182 m 1,98,-1
 1353 182 l 1,99,-1
 1353 175 l 1,100,-1
 1303 175 l 1,101,-1
 1303 182 l 1,102,-1
 1218 182 l 1,103,-1
 1218 370 l 1,104,-1
 1200 370 l 1,105,-1
 1200 387 l 1,106,-1
 1268 387 l 1,107,-1
 1268 200 l 1,108,-1
 1303 200 l 1,109,-1
 1303 387 l 1,110,-1
 1353 387 l 1,111,-1
 1353 200 l 1,112,-1
 1363 200 l 1,113,-1
 1363 182 l 1,98,-1
510 135 m 1,114,-1
 510 0 l 1,115,-1
 475 0 l 1,116,-1
 475 125 l 1,117,-1
 453 125 l 1,118,-1
 453 0 l 1,119,-1
 418 0 l 1,120,-1
 418 125 l 1,121,-1
 408 125 l 1,122,-1
 408 135 l 1,123,-1
 510 135 l 1,114,-1
585 0 m 1,124,-1
 538 0 l 1,125,-1
 538 10 l 1,126,-1
 550 10 l 1,127,-1
 550 102 l 1,128,-1
 528 102 l 1,129,-1
 528 135 l 1,130,-1
 585 135 l 1,131,-1
 585 125 l 1,132,-1
 563 125 l 1,133,-1
 563 112 l 1,134,-1
 585 112 l 1,135,-1
 585 0 l 1,124,-1
658 135 m 1,136,-1
 658 0 l 1,137,-1
 625 0 l 1,138,-1
 625 125 l 1,139,-1
 603 125 l 1,140,-1
 603 135 l 1,141,-1
 658 135 l 1,136,-1
875 157 m 1,142,-1
 875 0 l 1,143,-1
 795 0 l 1,144,-1
 785 125 l 1,145,-1
 778 125 l 1,146,-1
 768 0 l 1,147,-1
 688 0 l 1,148,-1
 688 125 l 1,149,-1
 675 125 l 1,150,-1
 675 135 l 1,151,-1
 720 135 l 1,152,-1
 720 10 l 1,153,-1
 733 10 l 1,154,-1
 743 135 l 1,155,-1
 818 135 l 1,156,-1
 828 10 l 1,157,-1
 840 10 l 1,158,-1
 840 157 l 1,159,-1
 875 157 l 1,142,-1
728 152 m 1,160,-1
 728 165 l 1,161,-1
 830 165 l 1,162,-1
 830 152 l 1,163,-1
 728 152 l 1,160,-1
995 135 m 1,164,-1
 995 0 l 1,165,-1
 960 0 l 1,166,-1
 960 125 l 1,167,-1
 938 125 l 1,168,-1
 938 0 l 1,169,-1
 903 0 l 1,170,-1
 903 125 l 1,171,-1
 893 125 l 1,172,-1
 893 135 l 1,173,-1
 995 135 l 1,164,-1
EndSplineSet
Ligature: 0 0 'liga' C H A K R A D e i g n parenleft c parenright
EndChar
StartChar: uni1EDA
Encoding: 7898 7898 434
Width: 388
Flags: W
Fore
418 454 m 1,0,-1
 413 432 l 1,1,-1
 391 414 l 1,2,-1
 390 414 l 1,3,-1
 376 432 l 1,4,-1
 178 432 l 1,5,-1
 113 378 l 1,6,-1
 45 54 l 1,7,-1
 86 0 l 1,8,-1
 284 0 l 1,9,-1
 350 54 l 1,10,-1
 419 378 l 1,11,-1
 408 391 l 1,12,-1
 442 419 l 1,13,-1
 450 454 l 1,14,-1
 418 454 l 1,0,-1
277 36 m 1,15,-1
 109 36 l 1,16,-1
 83 69 l 1,17,-1
 145 363 l 1,18,-1
 185 396 l 1,19,-1
 353 396 l 1,20,-1
 379 363 l 1,21,-1
 317 69 l 1,22,-1
 277 36 l 1,15,-1
247 472 m 1,23,-1
 237 484 l 1,24,-1
 331 562 l 1,25,-1
 355 532 l 1,26,-1
 247 472 l 1,23,-1
EndSplineSet
Ligature: 0 0 'liga' Ohorn acutecomb
EndChar
StartChar: uni1EDC
Encoding: 7900 7900 436
Width: 389
Flags: W
Fore
450 454 m 1,0,-1
 442 419 l 1,1,-1
 408 391 l 1,2,-1
 419 378 l 1,3,-1
 350 54 l 1,4,-1
 284 0 l 1,5,-1
 86 0 l 1,6,-1
 45 54 l 1,7,-1
 113 378 l 1,8,-1
 178 432 l 1,9,-1
 376 432 l 1,10,-1
 390 414 l 1,11,-1
 391 414 l 1,12,-1
 413 432 l 1,13,-1
 418 454 l 1,14,-1
 450 454 l 1,0,-1
317 69 m 1,15,-1
 379 363 l 1,16,-1
 353 396 l 1,17,-1
 185 396 l 1,18,-1
 145 363 l 1,19,-1
 83 69 l 1,20,-1
 109 36 l 1,21,-1
 277 36 l 1,22,-1
 317 69 l 1,15,-1
241 532 m 1,23,-1
 277 562 l 1,24,-1
 338 484 l 1,25,-1
 323 472 l 1,26,-1
 241 532 l 1,23,-1
EndSplineSet
Ligature: 0 0 'liga' Ohorn gravecomb
EndChar
StartChar: uni1EDE
Encoding: 7902 7902 438
Width: 389
Flags: W
Fore
450 454 m 1,0,-1
 442 419 l 1,1,-1
 408 391 l 1,2,-1
 419 378 l 1,3,-1
 350 54 l 1,4,-1
 284 0 l 1,5,-1
 86 0 l 1,6,-1
 45 54 l 1,7,-1
 113 378 l 1,8,-1
 178 432 l 1,9,-1
 376 432 l 1,10,-1
 390 414 l 1,11,-1
 391 414 l 1,12,-1
 413 432 l 1,13,-1
 418 454 l 1,14,-1
 450 454 l 1,0,-1
317 69 m 1,15,-1
 379 363 l 1,16,-1
 353 396 l 1,17,-1
 185 396 l 1,18,-1
 145 363 l 1,19,-1
 83 69 l 1,20,-1
 109 36 l 1,21,-1
 277 36 l 1,22,-1
 317 69 l 1,15,-1
322 562 m 1,23,-1
 341 538 l 1,24,-1
 341 537 l 1,25,-1
 334 503 l 1,26,-1
 287 472 l 1,27,-1
 275 480 l 1,28,-1
 309 514 l 1,29,30
 309 516 309 516 310 520.5 c 128,-1,31
 311 525 311 525 311 526 c 256,32,33
 311 527 311 527 308.5 530.5 c 128,-1,34
 306 534 306 534 305 535 c 1,35,-1
 288 535 l 1,36,37
 287 534 287 534 283 532 c 128,-1,38
 279 530 279 530 274 527 c 0,39,40
 268 523 268 523 260 520 c 1,41,-1
 249 527 l 1,42,-1
 287 562 l 1,43,-1
 322 562 l 1,23,-1
EndSplineSet
Ligature: 0 0 'liga' Ohorn hookabovecomb
EndChar
StartChar: uni1EE0
Encoding: 7904 7904 440
Width: 389
Flags: W
Fore
450 454 m 1,0,-1
 442 419 l 1,1,-1
 408 391 l 1,2,-1
 419 378 l 1,3,-1
 350 54 l 1,4,-1
 284 0 l 1,5,-1
 86 0 l 1,6,-1
 45 54 l 1,7,-1
 113 378 l 1,8,-1
 178 432 l 1,9,-1
 376 432 l 1,10,-1
 390 414 l 1,11,-1
 391 414 l 1,12,-1
 413 432 l 1,13,-1
 418 454 l 1,14,-1
 450 454 l 1,0,-1
317 69 m 1,15,-1
 379 363 l 1,16,-1
 353 396 l 1,17,-1
 185 396 l 1,18,-1
 145 363 l 1,19,-1
 83 69 l 1,20,-1
 109 36 l 1,21,-1
 277 36 l 1,22,-1
 317 69 l 1,15,-1
395 542 m 1,23,-1
 312 492 l 1,24,-1
 273 520 l 1,25,-1
 211 493 l 1,26,-1
 202 506 l 1,27,-1
 282 557 l 1,28,-1
 322 528 l 1,29,-1
 386 556 l 1,30,-1
 395 542 l 1,23,-1
EndSplineSet
Ligature: 0 0 'liga' Ohorn tildecomb
EndChar
StartChar: uni1EE2
Encoding: 7906 7906 442
Width: 389
Flags: W
Fore
450 454 m 1,0,-1
 442 419 l 1,1,-1
 408 391 l 1,2,-1
 419 378 l 1,3,-1
 350 54 l 1,4,-1
 284 0 l 1,5,-1
 86 0 l 1,6,-1
 45 54 l 1,7,-1
 113 378 l 1,8,-1
 178 432 l 1,9,-1
 376 432 l 1,10,-1
 390 414 l 1,11,-1
 391 414 l 1,12,-1
 413 432 l 1,13,-1
 418 454 l 1,14,-1
 450 454 l 1,0,-1
317 69 m 1,15,-1
 379 363 l 1,16,-1
 353 396 l 1,17,-1
 185 396 l 1,18,-1
 145 363 l 1,19,-1
 83 69 l 1,20,-1
 109 36 l 1,21,-1
 277 36 l 1,22,-1
 317 69 l 1,15,-1
201 -75 m 1,23,-1
 178 -94 l 1,24,-1
 151 -94 l 1,25,-1
 136 -75 l 1,26,-1
 141 -48 l 1,27,-1
 164 -29 l 1,28,-1
 191 -29 l 1,29,-1
 206 -48 l 1,30,-1
 201 -75 l 1,23,-1
EndSplineSet
Ligature: 0 0 'liga' Ohorn dotbelowcomb
EndChar
StartChar: franc
Encoding: 8355 8355 466
Width: 352
Flags: W
Fore
184 396 m 1,0,-1
 144 363 l 1,1,-1
 116 234 l 1,2,-1
 332 234 l 1,3,-1
 325 198 l 1,4,-1
 109 198 l 1,5,-1
 93 126 l 1,6,-1
 201 126 l 1,7,-1
 194 90 l 1,8,-1
 86 90 l 1,9,-1
 67 0 l 1,10,-1
 32 0 l 1,11,-1
 50 90 l 1,12,-1
 15 90 l 1,13,-1
 22 126 l 1,14,-1
 57 126 l 1,15,-1
 111 378 l 1,16,-1
 176 432 l 1,17,-1
 392 432 l 1,18,-1
 385 396 l 1,19,-1
 184 396 l 1,0,-1
EndSplineSet
EndChar
StartChar: dong
Encoding: 8363 8363 467
Width: 371
Flags: W
Fore
405 387 m 1,0,-1
 441 387 l 1,1,-1
 433 351 l 1,2,-1
 397 351 l 1,3,-1
 334 54 l 1,4,-1
 268 0 l 1,5,-1
 88 0 l 1,6,-1
 46 54 l 1,7,-1
 88 252 l 1,8,-1
 153 306 l 1,9,-1
 279 306 l 1,10,-1
 336 234 l 1,11,-1
 361 351 l 1,12,-1
 307 351 l 1,13,-1
 315 387 l 1,14,-1
 369 387 l 1,15,-1
 378 432 l 1,16,-1
 414 432 l 1,17,-1
 405 387 l 1,0,-1
301 69 m 1,18,-1
 326 189 l 1,19,-1
 263 270 l 1,20,-1
 161 270 l 1,21,-1
 121 237 l 1,22,-1
 85 69 l 1,23,-1
 111 36 l 1,24,-1
 261 36 l 1,25,-1
 301 69 l 1,18,-1
20 -66 m 1,26,-1
 28 -30 l 1,27,-1
 315 -30 l 1,28,-1
 307 -66 l 1,29,-1
 20 -66 l 1,26,-1
EndSplineSet
EndChar
StartChar: Dcroat
Encoding: 272 272 474
Width: 371
Flags: W
Fore
356 432 m 1,0,-1
 399 378 l 1,1,-1
 330 54 l 1,2,-1
 265 0 l 1,3,-1
 32 0 l 1,4,-1
 73 198 l 1,5,-1
 38 198 l 1,6,-1
 45 234 l 1,7,-1
 80 234 l 1,8,-1
 122 432 l 1,9,-1
 356 432 l 1,0,-1
297 69 m 1,10,-1
 360 363 l 1,11,-1
 334 396 l 1,12,-1
 151 396 l 1,13,-1
 116 234 l 1,14,-1
 242 234 l 1,15,-1
 235 198 l 1,16,-1
 109 198 l 1,17,-1
 74 36 l 1,18,-1
 257 36 l 1,19,-1
 297 69 l 1,10,-1
EndSplineSet
EndChar
StartChar: dcroat
Encoding: 273 273 475
Width: 371
Flags: W
Fore
439 387 m 1,0,-1
 431 351 l 1,1,-1
 395 351 l 1,2,-1
 332 54 l 1,3,-1
 268 0 l 1,4,-1
 88 0 l 1,5,-1
 46 54 l 1,6,-1
 87 252 l 1,7,-1
 152 306 l 1,8,-1
 278 306 l 1,9,-1
 334 234 l 1,10,-1
 359 351 l 1,11,-1
 305 351 l 1,12,-1
 313 387 l 1,13,-1
 367 387 l 1,14,-1
 376 432 l 1,15,-1
 412 432 l 1,16,-1
 403 387 l 1,17,-1
 439 387 l 1,0,-1
299 69 m 1,18,-1
 325 189 l 1,19,-1
 262 270 l 1,20,-1
 159 270 l 1,21,-1
 120 237 l 1,22,-1
 84 69 l 1,23,-1
 110 36 l 1,24,-1
 260 36 l 1,25,-1
 299 69 l 1,18,-1
EndSplineSet
EndChar
StartChar: Idotaccent
Encoding: 304 304 480
Width: 119
Flags: W
Fore
67 0 m 1,0,-1
 32 0 l 1,1,-1
 123 431 l 1,2,-1
 159 431 l 1,3,-1
 67 0 l 1,4,-1
 67 0 l 1,0,-1
169 517 m 1,5,-1
 179 504 l 1,6,-1
 175 485 l 1,7,-1
 159 472 l 1,8,-1
 140 472 l 1,9,-1
 130 485 l 1,10,-1
 134 504 l 1,11,-1
 150 517 l 1,12,-1
 169 517 l 1,5,-1
EndSplineSet
EndChar
StartChar: dotlessi
Encoding: 305 305 481
Width: 119
Flags: W
Fore
32 0 m 1,0,-1
 97 305 l 1,1,-1
 133 305 l 1,2,-1
 68 0 l 1,3,-1
 32 0 l 1,4,-1
 32 0 l 1,0,-1
EndSplineSet
EndChar
StartChar: Scedilla
Encoding: 350 350 482
Width: 371
Flags: W
Fore
215 -65 m 1,0,-1
 205 -113 l 1,1,-1
 160 -150 l 1,2,-1
 106 -150 l 1,3,-1
 113 -119 l 1,4,-1
 154 -119 l 1,5,-1
 176 -100 l 1,6,-1
 180 -79 l 1,7,-1
 166 -60 l 1,8,-1
 125 -60 l 1,9,-1
 129 -42 l 1,10,-1
 172 0 l 1,11,-1
 96 0 l 1,12,-1
 53 54 l 1,13,-1
 61 90 l 1,14,-1
 97 90 l 1,15,-1
 92 68 l 1,16,-1
 118 36 l 1,17,-1
 259 36 l 1,18,-1
 299 69 l 1,19,-1
 324 183 l 1,20,-1
 298 216 l 1,21,-1
 133 216 l 1,22,-1
 90 269 l 1,23,-1
 113 377 l 1,24,-1
 178 431 l 1,25,-1
 349 431 l 1,26,-1
 392 377 l 1,27,-1
 384 341 l 1,28,-1
 348 341 l 1,29,-1
 353 363 l 1,30,-1
 327 395 l 1,31,-1
 186 395 l 1,32,-1
 146 362 l 1,33,-1
 129 284 l 1,34,-1
 155 251 l 1,35,-1
 320 251 l 1,36,-1
 363 198 l 1,37,-1
 332 54 l 1,38,-1
 267 0 l 1,39,-1
 200 0 l 1,40,-1
 178 -29 l 1,41,-1
 186 -29 l 1,42,-1
 215 -65 l 1,0,-1
EndSplineSet
EndChar
StartChar: scedilla
Encoding: 351 351 483
Width: 372
Flags: W
Fore
218 -65 m 1,0,-1
 208 -113 l 1,1,-1
 163 -150 l 1,2,-1
 109 -150 l 1,3,-1
 116 -119 l 1,4,-1
 157 -119 l 1,5,-1
 179 -100 l 1,6,-1
 183 -79 l 1,7,-1
 169 -60 l 1,8,-1
 128 -60 l 1,9,-1
 132 -42 l 1,10,-1
 175 0 l 1,11,-1
 96 0 l 1,12,-1
 53 54 l 1,13,-1
 61 90 l 1,14,-1
 97 90 l 1,15,-1
 93 69 l 1,16,-1
 119 36 l 1,17,-1
 260 36 l 1,18,-1
 300 69 l 1,19,-1
 307 103 l 1,20,-1
 281 135 l 1,21,-1
 116 135 l 1,22,-1
 73 189 l 1,23,-1
 87 252 l 1,24,-1
 152 306 l 1,25,-1
 323 306 l 1,26,-1
 366 252 l 1,27,-1
 358 216 l 1,28,-1
 322 216 l 1,29,-1
 326 237 l 1,30,-1
 300 270 l 1,31,-1
 159 270 l 1,32,-1
 119 237 l 1,33,-1
 112 204 l 1,34,-1
 138 171 l 1,35,-1
 303 171 l 1,36,-1
 346 118 l 1,37,-1
 332 54 l 1,38,-1
 267 0 l 1,39,-1
 203 0 l 1,40,-1
 181 -29 l 1,41,-1
 189 -29 l 1,42,-1
 218 -65 l 1,0,-1
EndSplineSet
EndChar
StartChar: Ohorn
Encoding: 416 416 486
Width: 389
Flags: W
Fore
450 454 m 1,0,-1
 442 419 l 1,1,-1
 408 391 l 1,2,-1
 419 378 l 1,3,-1
 350 54 l 1,4,-1
 284 0 l 1,5,-1
 86 0 l 1,6,-1
 45 54 l 1,7,-1
 113 378 l 1,8,-1
 178 432 l 1,9,-1
 376 432 l 1,10,-1
 390 414 l 1,11,-1
 391 414 l 1,12,-1
 413 432 l 1,13,-1
 418 454 l 1,14,-1
 450 454 l 1,0,-1
317 69 m 1,15,-1
 379 363 l 1,16,-1
 353 396 l 1,17,-1
 185 396 l 1,18,-1
 145 363 l 1,19,-1
 83 69 l 1,20,-1
 109 36 l 1,21,-1
 277 36 l 1,22,-1
 317 69 l 1,15,-1
EndSplineSet
EndChar
StartChar: ohorn
Encoding: 417 417 487
Width: 371
Flags: W
Fore
403 329 m 1,0,-1
 396 294 l 1,1,-1
 363 266 l 1,2,-1
 374 252 l 1,3,-1
 332 54 l 1,4,-1
 267 0 l 1,5,-1
 87 0 l 1,6,-1
 44 54 l 1,7,-1
 86 252 l 1,8,-1
 152 306 l 1,9,-1
 332 306 l 1,10,-1
 345 289 l 1,11,-1
 368 307 l 1,12,-1
 372 329 l 1,13,-1
 403 329 l 1,0,-1
259 36 m 1,14,-1
 299 69 l 1,15,-1
 335 237 l 1,16,-1
 309 270 l 1,17,-1
 159 270 l 1,18,-1
 119 237 l 1,19,-1
 83 69 l 1,20,-1
 109 36 l 1,21,-1
 259 36 l 1,14,-1
EndSplineSet
EndChar
StartChar: Uhorn
Encoding: 431 431 488
Width: 418
Flags: W
Fore
448 453 m 1,0,-1
 480 453 l 1,1,-1
 472 418 l 1,2,-1
 427 381 l 1,3,-1
 401 381 l 1,4,-1
 332 54 l 1,5,-1
 266 0 l 1,6,-1
 86 0 l 1,7,-1
 45 54 l 1,8,-1
 124 432 l 1,9,-1
 160 432 l 1,10,-1
 83 69 l 1,11,-1
 109 36 l 1,12,-1
 259 36 l 1,13,-1
 299 69 l 1,14,-1
 376 432 l 1,15,-1
 412 432 l 1,16,-1
 408 413 l 1,17,-1
 421 413 l 1,18,-1
 443 431 l 1,19,-1
 448 453 l 1,0,-1
EndSplineSet
EndChar
StartChar: uhorn
Encoding: 432 432 489
Width: 398
Flags: W
Fore
401 328 m 1,0,-1
 432 328 l 1,1,-1
 425 293 l 1,2,-1
 381 256 l 1,3,-1
 356 256 l 1,4,-1
 302 0 l 1,5,-1
 266 0 l 1,6,-1
 281 72 l 1,7,-1
 194 0 l 1,8,-1
 86 0 l 1,9,-1
 43 54 l 1,10,-1
 97 306 l 1,11,-1
 133 306 l 1,12,-1
 82 69 l 1,13,-1
 108 36 l 1,14,-1
 192 36 l 1,15,-1
 290 116 l 1,16,-1
 331 306 l 1,17,-1
 367 306 l 1,18,-1
 363 287 l 1,19,-1
 375 287 l 1,20,-1
 397 306 l 1,21,-1
 401 328 l 1,0,-1
EndSplineSet
EndChar
StartChar: hookabovecomb
Encoding: 777 777 490
Width: 172
Flags: W
Fore
116 545 m 1,0,-1
 135 521 l 1,1,-1
 135 520 l 1,2,-1
 128 486 l 1,3,-1
 81 455 l 1,4,-1
 69 463 l 1,5,-1
 103 497 l 1,6,7
 103 499 103 499 104 503.5 c 128,-1,8
 105 508 105 508 105 509 c 256,9,10
 105 510 105 510 102.5 513.5 c 128,-1,11
 100 517 100 517 99 518 c 1,12,-1
 82 518 l 1,13,14
 81 517 81 517 77 515 c 128,-1,15
 73 513 73 513 68 510 c 0,16,17
 62 506 62 506 54 503 c 1,18,-1
 43 510 l 1,19,-1
 81 545 l 1,20,-1
 116 545 l 1,0,-1
EndSplineSet
EndChar
StartChar: tildecomb
Encoding: 771 771 491
Width: 267
Flags: W
Fore
227 517 m 1,0,-1
 144 467 l 1,1,-1
 105 495 l 1,2,-1
 43 468 l 1,3,-1
 34 481 l 1,4,-1
 114 532 l 1,5,-1
 154 503 l 1,6,-1
 218 531 l 1,7,-1
 227 517 l 1,0,-1
EndSplineSet
EndChar
StartChar: acutecomb
Encoding: 769 769 492
Width: 189
Flags: W
Fore
43 455 m 1,0,-1
 33 467 l 1,1,-1
 127 545 l 1,2,-1
 151 515 l 1,3,-1
 43 455 l 1,0,-1
EndSplineSet
EndChar
StartChar: dotbelowcomb
Encoding: 803 803 493
Width: 147
Flags: W
Fore
100 -76 m 1,0,-1
 77 -95 l 1,1,-1
 50 -95 l 1,2,-1
 35 -76 l 1,3,-1
 40 -49 l 1,4,-1
 63 -30 l 1,5,-1
 90 -30 l 1,6,-1
 105 -49 l 1,7,-1
 100 -76 l 1,0,-1
EndSplineSet
EndChar
StartChar: gravecomb
Encoding: 768 768 494
Width: 189
Flags: W
Fore
44 515 m 1,0,-1
 80 545 l 1,1,-1
 141 467 l 1,2,-1
 126 455 l 1,3,-1
 44 515 l 1,0,-1
EndSplineSet
EndChar
